<svg xmlns="http://www.w3.org/2000/svg" width="203" height="36" fill="none" viewBox="0 0 203 36">
  <mask id="a" width="203" height="36" x="0" y="0" maskUnits="userSpaceOnUse" style="mask-type:luminance">
    <path fill="#fff" d="M203 0H0v35.506h203V0Z"/>
  </mask>
  <g mask="url(#a)">
    <path fill="#006241" d="M13.718 24.398h-4.46v10.393H0V.71h13.718c3.069 0 5.705.435 7.91 1.306A10.684 10.684 0 0 1 26.7 5.89c1.18 1.726 1.768 3.87 1.765 6.434-.003 2.563-.591 4.746-1.765 6.548a11.136 11.136 0 0 1-5.06 4.101c-2.213.947-4.853 1.422-7.922 1.424Zm-.05-16.14h-4.41v8.592h4.41c1.838 0 3.227-.412 4.165-1.234a4.09 4.09 0 0 0 1.075-1.437 3.97 3.97 0 0 0 .343-1.743 3.614 3.614 0 0 0-.326-1.708 3.732 3.732 0 0 0-1.092-1.377c-.949-.728-2.337-1.092-4.166-1.092ZM51.78 34.791H30.747V.71h9.261v25.964h14.794L51.78 34.79Zm54.041.715a17.997 17.997 0 0 1-6.889-1.317 17.54 17.54 0 0 1-5.8-3.834 17.689 17.689 0 0 1-3.823-5.674 18.368 18.368 0 0 1 0-13.928 17.62 17.62 0 0 1 9.63-9.441A18.017 18.017 0 0 1 105.82 0a19.635 19.635 0 0 1 8.769 1.91 17.143 17.143 0 0 1 6.42 5.345 16.71 16.71 0 0 1 3.038 7.95h-9.797a8.742 8.742 0 0 0-1.517-3.773 8.194 8.194 0 0 0-2.917-2.539 8.352 8.352 0 0 0-3.893-.901 8.687 8.687 0 0 0-3.527.687 7.378 7.378 0 0 0-2.672 1.97 8.997 8.997 0 0 0-1.69 3.055 12.651 12.651 0 0 0-.588 3.963c-.015 1.35.183 2.695.587 3.987a8.965 8.965 0 0 0 1.69 3.085 7.615 7.615 0 0 0 2.673 1.993 8.384 8.384 0 0 0 3.527.714 8.143 8.143 0 0 0 3.893-.928 8.19 8.19 0 0 0 2.893-2.562 9.443 9.443 0 0 0 1.541-3.772h9.801a17.094 17.094 0 0 1-3.101 8.033 17.108 17.108 0 0 1-6.393 5.346 19.478 19.478 0 0 1-8.737 1.943Zm31.823-.715h-9.261V.71h9.261v34.081Zm14.267 0h-9.262V.71h23.961v7.785h-14.699v6.312h12.295l-3.153 7.785h-9.142v12.2Zm38.691-12.814v12.814h-9.261V21.978L169.029.71h10.01l7.251 13.055L193.688.71h9.308l-12.394 21.267Z"/>
    <path fill="#006241" fill-rule="evenodd" d="M67.154.71h10.14l12.87 34.081h-9.37a8.225 8.225 0 0 0-2.612-5.735 8.758 8.758 0 0 0-5.996-2.355 8.76 8.76 0 0 0-5.996 2.355 8.225 8.225 0 0 0-2.61 5.735h-9.46L67.154.71Zm10.928 22.146h.902l-.252-8 .52-.164-7.05-4.272-7.046 4.272 3.373 1.07v2.821a4.908 4.908 0 0 1 1.66-1.182 5.049 5.049 0 0 1 4.03 0 4.916 4.916 0 0 1 1.66 1.182v-2.825l2.447-.764-.244 7.862Zm-2.736.986a3.49 3.49 0 0 0 .5-1.793v.016-.025a3.5 3.5 0 0 0-.485-1.762 3.643 3.643 0 0 0-1.34-1.316 3.791 3.791 0 0 0-1.838-.494 3.793 3.793 0 0 0-1.849.459 3.648 3.648 0 0 0-1.366 1.29 3.502 3.502 0 0 0-.522 1.778c-.01.627.149 1.245.462 1.794a3.642 3.642 0 0 0 1.323 1.332l.063.034c.56.313 1.194.477 1.84.477.646 0 1.28-.164 1.84-.477a3.635 3.635 0 0 0 1.371-1.312Z" clip-rule="evenodd"/>
  </g>
</svg>
