<svg width="345" height="319" viewBox="0 0 345 319" fill="none" xmlns="http://www.w3.org/2000/svg">
<path d="M332.798 0.649414H13.0805C6.59631 0.649414 1.33984 5.90588 1.33984 12.3901V306.532C1.33984 313.017 6.59631 318.273 13.0805 318.273H332.798C339.282 318.273 344.539 313.017 344.539 306.532V12.3901C344.539 5.90588 339.282 0.649414 332.798 0.649414Z" fill="white"/>
<path d="M332.8 318.274C332.8 318.274 333.086 318.238 333.641 318.202C334.196 318.166 335.037 318.041 336.093 317.737C337.149 317.414 338.437 316.86 339.744 315.875C341.05 314.891 342.393 313.477 343.305 311.526C344.326 309.593 344.522 307.141 344.433 304.475C344.433 301.808 344.433 298.873 344.415 295.705C344.415 289.369 344.397 282.049 344.379 273.817C344.343 240.868 344.29 193.225 344.236 134.361C344.236 104.92 344.2 72.6687 344.182 38.0553C344.182 29.4109 344.147 20.6233 344.129 11.6746C343.914 7.3435 340.925 3.26291 336.773 1.75953C334.715 0.900463 332.478 1.04364 330.169 1.04364C327.878 1.04364 325.587 1.04364 323.278 1.04364C304.844 1.04364 285.855 1.04364 266.401 1.06154C188.547 1.06154 102.962 1.07944 13.1357 1.09733C10.4332 1.09733 7.76652 2.08169 5.72622 3.85352C3.68593 5.60746 2.30784 8.11308 1.94989 10.7619C1.77092 12.0684 1.84251 13.4823 1.82461 14.8783V19.0483C1.82461 21.8224 1.82461 24.6144 1.82461 27.3885C1.82461 38.4848 1.82461 49.5096 1.82461 60.4448C1.82461 82.3154 1.82461 103.882 1.82461 125.072C1.82461 167.435 1.80671 208.312 1.78881 247.239C1.78881 266.711 1.78881 285.683 1.77092 304.117C1.77092 305.262 1.73512 306.443 1.82461 307.535C1.94989 308.627 2.16466 309.737 2.59419 310.757C3.41747 312.815 4.84925 314.587 6.65688 315.84C8.46451 317.092 10.6122 317.79 12.7957 317.844C15.0507 317.844 17.2879 317.844 19.5251 317.862C28.4737 317.862 37.2792 317.862 45.9236 317.862C80.537 317.88 112.788 317.898 142.229 317.916C201.093 317.987 248.736 318.023 281.685 318.059C298.133 318.095 310.911 318.13 319.591 318.148C323.923 318.166 327.216 318.184 329.453 318.202C331.672 318.202 332.818 318.256 332.818 318.256C332.818 318.256 331.672 318.291 329.453 318.309C327.216 318.309 323.923 318.327 319.591 318.363C310.911 318.381 298.133 318.417 281.685 318.453C248.754 318.488 201.111 318.542 142.229 318.596C112.788 318.596 80.537 318.632 45.9236 318.649C37.2613 318.649 28.4737 318.649 19.5251 318.649C17.2879 318.649 15.0328 318.649 12.7778 318.649C10.4511 318.596 8.12446 317.844 6.19155 316.502C4.25864 315.159 2.71947 313.262 1.84251 311.061C1.37718 309.969 1.14451 308.788 1.01923 307.607C0.929742 306.408 0.983434 305.28 0.965537 304.117C0.965537 285.683 0.965537 266.693 0.94764 247.239C0.94764 208.312 0.94764 167.453 0.911845 125.072C0.911845 103.882 0.911845 82.3332 0.911845 60.4448C0.911845 49.5096 0.911845 38.4848 0.911845 27.3885C0.911845 24.6144 0.911845 21.8403 0.911845 19.0483V14.8783C0.911845 13.4823 0.840256 12.1042 1.05502 10.6366C1.44876 7.75514 2.91634 5.03474 5.13561 3.15552C7.30119 1.25841 10.2006 0.18457 13.1178 0.18457C102.944 0.18457 188.529 0.202468 266.383 0.220365C285.837 0.220365 304.826 0.220365 323.26 0.238262C325.569 0.238262 327.86 0.238262 330.151 0.238262C332.388 0.238262 334.84 0.0950838 337.041 1.02574C341.48 2.6365 344.684 7.00345 344.898 11.6389C344.898 20.5875 344.898 29.393 344.916 38.0553C344.898 72.6687 344.88 104.92 344.862 134.361C344.809 193.225 344.755 240.886 344.719 273.817C344.719 282.049 344.684 289.352 344.684 295.705C344.684 298.873 344.684 301.79 344.666 304.475C344.755 307.124 344.522 309.665 343.484 311.616C342.554 313.602 341.176 315.034 339.851 316.001C338.509 316.985 337.202 317.522 336.146 317.826C335.073 318.112 334.231 318.22 333.659 318.238C333.104 318.256 332.818 318.256 332.818 318.256L332.8 318.274Z" fill="#263238"/>
<path d="M27.237 22.6641C27.237 25.9393 24.5882 28.5881 21.2951 28.5881C18.002 28.5881 15.3711 25.9393 15.3711 22.6641C15.3711 19.3889 18.0199 16.7222 21.2951 16.7222C24.5703 16.7222 27.237 19.371 27.237 22.6641Z" fill="#263238"/>
<path d="M38.6369 28.5875C41.9086 28.5875 44.5609 25.9353 44.5609 22.6635C44.5609 19.3918 41.9086 16.7395 38.6369 16.7395C35.3652 16.7395 32.7129 19.3918 32.7129 22.6635C32.7129 25.9353 35.3652 28.5875 38.6369 28.5875Z" fill="#263238"/>
<path d="M55.965 28.5875C59.2368 28.5875 61.889 25.9353 61.889 22.6635C61.889 19.3918 59.2368 16.7395 55.965 16.7395C52.6933 16.7395 50.041 19.3918 50.041 22.6635C50.041 25.9353 52.6933 28.5875 55.965 28.5875Z" fill="#263238"/>
<path d="M344.539 39.4873C344.539 39.7379 267.706 39.9526 172.957 39.9526C78.2088 39.9526 1.33984 39.7558 1.33984 39.4873C1.33984 39.2188 78.1551 39.022 172.939 39.022C267.723 39.022 344.521 39.2367 344.521 39.4873H344.539Z" fill="#263238"/>
<path d="M227.028 170.355C227.028 170.355 227.189 170.134 227.491 169.731C227.571 169.631 227.652 169.51 227.752 169.389C227.833 169.248 227.913 169.107 228.014 168.946C228.195 168.624 228.437 168.242 228.598 167.779C228.699 167.557 228.799 167.316 228.9 167.054C228.98 166.792 229.061 166.511 229.141 166.209C229.242 165.907 229.282 165.605 229.343 165.263C229.383 164.92 229.484 164.598 229.484 164.216C229.645 162.767 229.544 161.076 229.262 159.204C228.678 155.46 227.088 151.051 224.673 146.261C222.237 141.45 218.896 136.297 214.789 130.902C210.683 125.507 205.751 119.952 200.054 114.356C194.378 108.78 187.937 103.164 180.73 97.8495C177.127 95.1924 173.323 92.6159 169.297 90.2003C165.291 87.7647 161.064 85.5102 156.595 83.5375C152.147 81.6051 147.436 79.9142 142.464 79.1091C139.989 78.7266 137.432 78.5454 134.936 78.9279C133.688 79.1292 132.46 79.4714 131.293 79.9746C130.145 80.5382 129.099 81.2629 128.233 82.209C127.408 83.1752 126.784 84.3024 126.361 85.4901C125.978 86.6978 125.777 87.966 125.717 89.2341C125.616 91.7704 126.099 94.2866 126.764 96.7021C128.112 101.533 130.326 106.022 132.762 110.229C135.218 114.436 137.955 118.381 140.814 122.085C143.672 125.789 146.671 129.292 149.711 132.573C155.81 139.135 162.111 144.892 168.31 149.904C174.51 154.916 180.61 159.184 186.427 162.646C192.244 166.108 197.76 168.846 202.812 170.718C207.845 172.59 212.414 173.657 216.198 173.818C218.09 173.898 219.781 173.798 221.19 173.475C221.553 173.415 221.875 173.294 222.197 173.214C222.519 173.133 222.841 173.033 223.103 172.912C223.384 172.791 223.666 172.69 223.908 172.59C224.149 172.469 224.391 172.328 224.612 172.207C225.055 171.986 225.397 171.704 225.719 171.483C225.86 171.362 226.021 171.281 226.142 171.181C226.263 171.08 226.364 170.979 226.444 170.879C226.806 170.516 227.008 170.355 227.008 170.355C227.008 170.355 226.826 170.537 226.464 170.899C226.364 171 226.263 171.1 226.162 171.201C226.041 171.301 225.901 171.402 225.74 171.523C225.438 171.744 225.095 172.026 224.653 172.248C224.431 172.368 224.21 172.509 223.948 172.63C223.686 172.731 223.425 172.851 223.123 172.972C222.841 173.093 222.539 173.194 222.197 173.274C221.875 173.355 221.532 173.496 221.17 173.536C219.741 173.858 218.05 173.979 216.138 173.898C212.333 173.757 207.744 172.711 202.691 170.838C197.619 168.987 192.103 166.269 186.266 162.807C180.428 159.345 174.329 155.077 168.109 150.065C161.909 145.053 155.589 139.296 149.469 132.734C146.41 129.453 143.41 125.95 140.552 122.226C137.674 118.522 134.936 114.557 132.46 110.35C130.024 106.123 127.79 101.634 126.421 96.7424C125.757 94.3067 125.274 91.7704 125.375 89.1939C125.415 87.9056 125.636 86.6173 126.019 85.3693C126.462 84.1414 127.086 82.9739 127.951 81.9876C128.837 81.0214 129.924 80.2564 131.091 79.6928C132.279 79.1493 133.547 78.8071 134.815 78.6058C137.372 78.2234 139.948 78.4045 142.444 78.787C147.436 79.5922 152.167 81.3032 156.635 83.2356C161.104 85.2083 165.351 87.4829 169.357 89.9185C173.383 92.3542 177.188 94.9307 180.811 97.5878C188.037 102.922 194.479 108.538 200.155 114.134C205.832 119.73 210.763 125.326 214.87 130.721C218.976 136.115 222.318 141.309 224.733 146.14C227.149 150.951 228.739 155.379 229.302 159.143C229.584 161.015 229.665 162.726 229.504 164.176C229.504 164.538 229.403 164.88 229.343 165.222C229.282 165.565 229.242 165.867 229.141 166.168C229.061 166.47 228.98 166.752 228.9 167.014C228.799 167.276 228.699 167.517 228.598 167.759C228.417 168.222 228.195 168.604 227.994 168.926C227.893 169.087 227.813 169.248 227.732 169.369C227.632 169.49 227.551 169.611 227.471 169.711C227.149 170.114 226.988 170.315 226.988 170.315L227.028 170.355Z" fill="#FF725E"/>
<path d="M245.285 126.232C245.285 126.232 245.265 125.97 245.225 125.467C245.225 125.346 245.205 125.205 245.185 125.044C245.164 124.883 245.124 124.722 245.084 124.541C245.003 124.179 244.923 123.736 244.742 123.273C244.661 123.031 244.581 122.79 244.48 122.528C244.359 122.287 244.218 122.025 244.098 121.743C243.977 121.461 243.796 121.2 243.614 120.918C243.433 120.636 243.272 120.334 243.031 120.052C242.185 118.865 240.978 117.677 239.528 116.469C236.609 114.054 232.483 111.819 227.471 109.867C222.459 107.894 216.52 106.264 209.878 104.975C203.235 103.687 195.827 102.821 187.876 102.439C179.925 102.057 171.39 102.157 162.473 103.003C158.024 103.425 153.455 104.049 148.845 104.895C144.236 105.76 139.566 106.867 134.936 108.377C130.327 109.907 125.677 111.779 121.449 114.476C119.356 115.845 117.323 117.395 115.713 119.348C114.907 120.334 114.223 121.401 113.7 122.548C113.217 123.716 112.935 124.964 112.915 126.252C112.935 127.52 113.217 128.788 113.7 129.956C114.223 131.123 114.907 132.19 115.713 133.177C117.323 135.129 119.356 136.699 121.449 138.048C125.677 140.765 130.327 142.617 134.936 144.147C139.566 145.657 144.236 146.784 148.845 147.629C153.455 148.495 158.004 149.099 162.473 149.522C171.39 150.367 179.925 150.448 187.896 150.085C195.848 149.703 203.235 148.837 209.898 147.549C216.54 146.261 222.479 144.63 227.491 142.657C232.503 140.705 236.609 138.471 239.548 136.055C240.998 134.847 242.205 133.66 243.051 132.472C243.292 132.19 243.453 131.868 243.635 131.606C243.816 131.325 243.997 131.063 244.118 130.781C244.259 130.499 244.379 130.238 244.5 129.996C244.601 129.734 244.681 129.493 244.762 129.251C244.943 128.788 245.024 128.345 245.104 127.983C245.144 127.802 245.185 127.621 245.205 127.48C245.205 127.319 245.225 127.178 245.245 127.057C245.285 126.554 245.305 126.292 245.305 126.292C245.305 126.292 245.305 126.554 245.265 127.057C245.265 127.178 245.265 127.339 245.245 127.48C245.245 127.641 245.185 127.802 245.144 128.003C245.064 128.366 245.003 128.808 244.822 129.271C244.742 129.513 244.661 129.755 244.561 130.016C244.44 130.278 244.319 130.54 244.178 130.801C244.057 131.083 243.876 131.365 243.695 131.647C243.514 131.929 243.353 132.251 243.111 132.532C242.266 133.74 241.078 134.948 239.609 136.156C236.69 138.591 232.563 140.846 227.551 142.819C222.539 144.811 216.601 146.462 209.938 147.75C203.275 149.059 195.888 149.924 187.917 150.327C179.945 150.709 171.411 150.629 162.473 149.803C158.004 149.381 153.435 148.777 148.825 147.911C144.216 147.066 139.526 145.939 134.876 144.429C130.246 142.899 125.596 141.027 121.309 138.289C119.195 136.921 117.142 135.351 115.491 133.358C114.666 132.371 113.961 131.264 113.438 130.077C112.955 128.869 112.653 127.581 112.633 126.252C112.653 124.944 112.955 123.635 113.458 122.427C113.981 121.24 114.706 120.133 115.511 119.146C117.162 117.154 119.215 115.583 121.329 114.215C125.596 111.497 130.246 109.605 134.876 108.095C139.526 106.586 144.196 105.458 148.825 104.613C153.435 103.747 158.004 103.144 162.473 102.721C171.411 101.896 179.945 101.795 187.917 102.197C195.888 102.6 203.275 103.486 209.938 104.774C216.601 106.082 222.539 107.733 227.551 109.706C232.563 111.678 236.69 113.933 239.609 116.369C241.078 117.576 242.266 118.784 243.111 119.992C243.353 120.274 243.514 120.596 243.695 120.878C243.876 121.159 244.057 121.441 244.178 121.723C244.319 122.005 244.44 122.266 244.561 122.508C244.661 122.77 244.742 123.031 244.822 123.253C245.003 123.716 245.084 124.159 245.144 124.521C245.185 124.702 245.225 124.883 245.245 125.044C245.245 125.205 245.245 125.346 245.265 125.467C245.305 125.97 245.305 126.232 245.305 126.232H245.285Z" fill="#FF725E"/>
<path d="M221.09 71.3393C221.09 71.3393 220.868 71.1984 220.446 70.9165C220.345 70.8562 220.224 70.7756 220.083 70.675C219.942 70.5945 219.781 70.5341 219.62 70.4536C219.278 70.2925 218.896 70.0912 218.413 69.9503C218.171 69.8698 217.929 69.7893 217.668 69.7088C217.386 69.6484 217.104 69.588 216.802 69.5276C216.5 69.4471 216.178 69.427 215.856 69.4068C215.514 69.3867 215.172 69.3263 214.809 69.3263C213.36 69.2659 211.669 69.4874 209.837 69.8899C206.134 70.7153 201.846 72.6074 197.236 75.3651C192.607 78.1229 187.695 81.8065 182.602 86.2752C177.51 90.7439 172.296 96.0581 167.123 102.097C161.95 108.156 156.797 114.96 151.986 122.528C149.59 126.312 147.275 130.278 145.142 134.465C142.988 138.632 141.035 143 139.385 147.589C137.754 152.179 136.406 156.99 135.943 161.982C135.741 164.478 135.721 167.034 136.285 169.51C136.567 170.738 136.989 171.946 137.593 173.073C138.217 174.18 139.043 175.166 140.029 175.972C141.055 176.736 142.223 177.28 143.431 177.622C144.659 177.924 145.927 178.045 147.195 178.005C149.731 177.924 152.207 177.28 154.562 176.455C159.293 174.764 163.62 172.248 167.646 169.53C171.672 166.793 175.416 163.793 178.919 160.673C182.421 157.553 185.702 154.333 188.762 151.072C194.881 144.53 200.195 137.847 204.765 131.325C209.334 124.803 213.179 118.422 216.239 112.383C219.298 106.344 221.633 100.648 223.163 95.4945C224.673 90.3414 225.438 85.7116 225.337 81.9273C225.277 80.0351 225.075 78.3644 224.653 76.9553C224.572 76.593 224.431 76.271 224.331 75.969C224.23 75.6469 224.109 75.345 223.968 75.0833C223.827 74.8015 223.707 74.5398 223.586 74.2983C223.445 74.0567 223.304 73.8353 223.163 73.634C222.922 73.1912 222.62 72.8691 222.378 72.5873C222.257 72.4464 222.157 72.3055 222.036 72.1847C221.915 72.084 221.814 71.9834 221.714 71.9029C221.331 71.5607 221.15 71.3795 221.15 71.3795C221.15 71.3795 221.351 71.5406 221.734 71.8828C221.835 71.9633 221.935 72.0639 222.056 72.1646C222.177 72.2853 222.277 72.4061 222.398 72.547C222.64 72.8288 222.942 73.1509 223.203 73.5937C223.344 73.795 223.485 74.0165 223.626 74.258C223.747 74.4996 223.888 74.7814 224.009 75.0431C224.149 75.3047 224.27 75.6268 224.371 75.9288C224.471 76.2508 224.633 76.5729 224.713 76.9352C225.136 78.3443 225.357 80.015 225.438 81.9273C225.579 85.7317 224.834 90.3816 223.324 95.5549C221.814 100.728 219.479 106.445 216.44 112.504C213.38 118.563 209.556 124.944 204.986 131.486C200.417 138.028 195.103 144.731 188.983 151.273C185.924 154.554 182.643 157.775 179.12 160.895C175.618 164.015 171.853 167.034 167.828 169.772C163.782 172.509 159.454 175.025 154.683 176.736C152.308 177.562 149.792 178.226 147.215 178.307C145.927 178.347 144.618 178.226 143.35 177.924C142.102 177.582 140.894 177.018 139.828 176.233C138.801 175.408 137.956 174.381 137.311 173.254C136.687 172.107 136.265 170.879 135.983 169.611C135.419 167.095 135.439 164.498 135.641 162.002C136.104 156.949 137.472 152.138 139.103 147.529C140.754 142.939 142.726 138.551 144.88 134.384C147.034 130.197 149.349 126.232 151.744 122.448C156.555 114.879 161.728 108.075 166.922 102.016C172.115 95.9574 177.349 90.6634 182.462 86.1947C187.574 81.726 192.506 78.0423 197.156 75.3047C201.786 72.547 206.093 70.675 209.817 69.8497C211.669 69.4471 213.36 69.2257 214.83 69.3062C215.192 69.3062 215.554 69.3666 215.876 69.3867C216.218 69.4068 216.541 69.4471 216.842 69.5276C217.144 69.588 217.426 69.6484 217.708 69.7088C217.97 69.7893 218.231 69.8899 218.453 69.9503C218.936 70.0912 219.318 70.2925 219.661 70.4737C219.822 70.5542 219.983 70.6347 220.124 70.7153C220.264 70.7958 220.365 70.8763 220.486 70.9568C220.909 71.2386 221.13 71.3997 221.13 71.3997L221.09 71.3393Z" fill="#FF725E"/>
<path d="M112.029 153.588C112.995 154.554 112.995 156.104 112.029 157.07C111.063 158.037 109.513 158.037 108.547 157.07C107.581 156.104 107.581 154.554 108.547 153.588C109.513 152.622 111.063 152.622 112.029 153.588Z" fill="#FF725E"/>
<path d="M250.902 77.3176C250.902 78.6864 249.795 79.7734 248.446 79.7734C247.097 79.7734 245.99 78.6663 245.99 77.3176C245.99 75.9689 247.097 74.8618 248.446 74.8618C249.795 74.8618 250.902 75.9689 250.902 77.3176Z" fill="#FF725E"/>
<path d="M127.566 161.68C127.566 162.022 127.285 162.304 126.942 162.304C126.6 162.304 126.318 162.022 126.318 161.68C126.318 161.338 126.6 161.056 126.942 161.056C127.285 161.056 127.566 161.338 127.566 161.68Z" fill="#FF725E"/>
<path d="M140.916 92.7168C140.916 93.059 140.634 93.3408 140.292 93.3408C139.95 93.3408 139.668 93.059 139.668 92.7168C139.668 92.3746 139.95 92.0928 140.292 92.0928C140.634 92.0928 140.916 92.3746 140.916 92.7168Z" fill="#FF725E"/>
<path d="M238.545 126.232C238.545 126.574 238.263 126.856 237.921 126.856C237.579 126.856 237.297 126.574 237.297 126.232C237.297 125.889 237.579 125.608 237.921 125.608C238.263 125.608 238.545 125.889 238.545 126.232Z" fill="#FF725E"/>
<path d="M247.221 97.0845C247.221 97.4267 246.939 97.7085 246.597 97.7085C246.254 97.7085 245.973 97.4267 245.973 97.0845C245.973 96.7423 246.254 96.4604 246.597 96.4604C246.939 96.4604 247.221 96.7423 247.221 97.0845Z" fill="#FF725E"/>
<path d="M205.069 139.999H197.339V97.8885C197.339 87.9849 189.267 79.913 179.363 79.913C169.46 79.913 161.388 87.9849 161.388 97.8885V139.999H153.658V97.8885C153.658 83.7175 165.192 72.1833 179.363 72.1833C193.534 72.1833 205.069 83.7175 205.069 97.8885V139.999Z" fill="#FF725E"/>
<g opacity="0.3">
<path d="M205.071 139.999H197.341V97.8885C197.341 87.9849 189.269 79.913 179.365 79.913C169.462 79.913 161.39 87.9849 161.39 97.8885V139.999H153.66V97.8885C153.66 83.7175 165.194 72.1833 179.365 72.1833C193.536 72.1833 205.071 83.7175 205.071 97.8885V139.999Z" fill="black"/>
</g>
<path d="M209.479 121.259H149.252C146.75 121.259 144.723 123.286 144.723 125.788V161.175C144.723 163.676 146.75 165.704 149.252 165.704H209.479C211.98 165.704 214.008 163.676 214.008 161.175V125.788C214.008 123.286 211.98 121.259 209.479 121.259Z" fill="#FF725E"/>
<g opacity="0.3">
<path d="M185.163 137.704C185.163 134.503 182.566 131.907 179.366 131.907C176.165 131.907 173.568 134.503 173.568 137.704C173.568 140.341 175.36 142.555 177.775 143.24V151.895H180.936V143.24C183.351 142.555 185.143 140.341 185.143 137.704H185.163Z" fill="black"/>
</g>
<path d="M148.422 161.498C148.261 161.498 148.141 154.09 148.141 144.951C148.141 135.812 148.261 128.385 148.422 128.385C148.583 128.385 148.704 135.792 148.704 144.951C148.704 154.11 148.583 161.498 148.422 161.498Z" fill="#FAFAFA"/>
<path d="M174.835 145.132C174.835 145.132 174.573 145.051 174.151 144.749C173.748 144.448 173.205 143.964 172.661 143.22C171.574 141.811 170.588 139.234 171.232 136.456C171.896 133.678 173.949 131.826 175.54 131.041C176.345 130.639 177.049 130.437 177.553 130.357C178.056 130.276 178.338 130.276 178.338 130.317C178.358 130.417 177.231 130.538 175.741 131.404C174.272 132.229 172.42 134.021 171.796 136.597C171.192 139.154 172.057 141.589 173.003 142.998C173.949 144.448 174.916 145.051 174.835 145.132Z" fill="#FAFAFA"/>
<path d="M282.222 203.81H68.9109C58.5498 203.81 50.1504 212.209 50.1504 222.571V224.865C50.1504 235.227 58.5498 243.626 68.9109 243.626H282.222C292.583 243.626 300.982 235.227 300.982 224.865V222.571C300.982 212.209 292.583 203.81 282.222 203.81Z" fill="#F5F5F5"/>
<path d="M284.054 258.422H70.743C60.3818 258.422 51.9824 266.821 51.9824 277.182V279.477C51.9824 289.838 60.3818 298.237 70.743 298.237H284.054C294.415 298.237 302.814 289.838 302.814 279.477V277.182C302.814 266.821 294.415 258.422 284.054 258.422Z" fill="#F5F5F5"/>
<path d="M89.7858 223.416V217.639H92.161V223.316C92.161 225.268 93.0064 226.073 94.4558 226.073C95.9051 226.073 96.7505 225.268 96.7505 223.316V217.639H99.1056V223.416C99.1056 226.456 97.3745 228.127 94.4356 228.127C91.4967 228.127 89.7656 226.456 89.7656 223.416H89.7858Z" fill="#263238"/>
<path d="M100.553 227.2L101.318 225.549C102.022 226.012 103.089 226.314 104.075 226.314C105.142 226.314 105.525 226.033 105.525 225.59C105.525 224.301 100.754 225.61 100.754 222.449C100.754 220.94 102.103 219.893 104.418 219.893C105.505 219.893 106.712 220.135 107.457 220.577L106.692 222.208C105.907 221.765 105.122 221.624 104.418 221.624C103.391 221.624 102.948 221.946 102.948 222.369C102.948 223.718 107.739 222.409 107.739 225.529C107.739 226.999 106.37 228.045 103.995 228.045C102.646 228.045 101.298 227.683 100.573 227.2H100.553Z" fill="#263238"/>
<path d="M116.84 224.623H110.861C111.083 225.61 111.928 226.214 113.116 226.214C113.961 226.214 114.565 225.972 115.108 225.449L116.336 226.777C115.592 227.623 114.505 228.066 113.075 228.066C110.338 228.066 108.566 226.334 108.566 223.999C108.566 221.664 110.378 219.933 112.794 219.933C115.209 219.933 116.92 221.483 116.92 224.04C116.92 224.221 116.9 224.462 116.88 224.664L116.84 224.623ZM110.821 223.295H114.726C114.565 222.288 113.82 221.644 112.794 221.644C111.767 221.644 111.002 222.268 110.841 223.295H110.821Z" fill="#263238"/>
<path d="M123.322 219.914V222.027C123.121 222.027 122.98 222.007 122.799 222.007C121.531 222.007 120.685 222.691 120.685 224.221V227.965H118.391V220.054H120.585V221.101C121.148 220.336 122.094 219.934 123.302 219.934L123.322 219.914Z" fill="#263238"/>
<path d="M132.781 223.416V227.945H130.487V223.758C130.487 222.47 129.903 221.886 128.876 221.886C127.769 221.886 126.984 222.57 126.984 224.02V227.925H124.689V220.014H126.884V220.94C127.508 220.255 128.434 219.893 129.5 219.893C131.372 219.893 132.781 220.98 132.781 223.396V223.416Z" fill="#263238"/>
<path d="M141.86 223.416V227.925H139.707V226.938C139.284 227.663 138.459 228.045 137.291 228.045C135.439 228.045 134.332 227.019 134.332 225.65C134.332 224.281 135.318 223.275 137.734 223.275H139.566C139.566 222.288 138.982 221.725 137.734 221.725C136.888 221.725 136.023 222.007 135.459 222.47L134.634 220.859C135.5 220.235 136.788 219.893 138.056 219.893C140.471 219.893 141.86 221.02 141.86 223.416ZM139.566 225.429V224.623H137.996C136.929 224.623 136.587 225.026 136.587 225.549C136.587 226.133 137.07 226.516 137.875 226.516C138.64 226.516 139.304 226.153 139.566 225.449V225.429Z" fill="#263238"/>
<path d="M157.3 223.416V227.945H155.005V223.758C155.005 222.47 154.422 221.886 153.496 221.886C152.469 221.886 151.744 222.551 151.744 223.96V227.925H149.45V223.738C149.45 222.45 148.906 221.866 147.94 221.866C146.933 221.866 146.209 222.531 146.209 223.94V227.905H143.914V219.994H146.108V220.9C146.692 220.216 147.578 219.874 148.604 219.874C149.711 219.874 150.657 220.296 151.201 221.162C151.825 220.357 152.872 219.874 154.059 219.874C155.951 219.874 157.3 220.961 157.3 223.376V223.416Z" fill="#263238"/>
<path d="M167.162 224.623H161.183C161.405 225.61 162.25 226.214 163.438 226.214C164.283 226.214 164.887 225.972 165.431 225.449L166.659 226.777C165.914 227.623 164.827 228.066 163.398 228.066C160.66 228.066 158.889 226.334 158.889 223.999C158.889 221.664 160.7 219.933 163.116 219.933C165.531 219.933 167.242 221.483 167.242 224.04C167.242 224.221 167.222 224.462 167.202 224.664L167.162 224.623ZM161.143 223.295H165.048C164.887 222.288 164.142 221.644 163.116 221.644C162.089 221.644 161.324 222.268 161.163 223.295H161.143Z" fill="#263238"/>
<path d="M182.341 223.899C182.341 226.536 181.133 228.026 179.321 228.026C178.315 228.026 177.61 227.583 177.308 226.738C176.785 227.563 175.96 228.026 174.792 228.026C172.9 228.026 171.39 226.516 171.39 224.302C171.39 222.088 172.88 220.598 174.792 220.598C175.758 220.598 176.523 220.94 177.067 221.564V220.699H179.059V225.469C179.059 226.174 179.361 226.415 179.764 226.415C180.448 226.415 180.851 225.63 180.851 223.919C180.851 220.94 178.637 218.867 175.376 218.867C172.115 218.867 169.901 221.101 169.901 224.181C169.901 227.261 172.054 229.536 175.315 229.536C176.241 229.536 177.288 229.334 178.214 228.891L178.677 230.24C177.771 230.703 176.463 230.945 175.315 230.945C171.068 230.945 168.25 228.066 168.25 224.181C168.25 220.296 171.088 217.478 175.376 217.478C179.663 217.478 182.341 220.195 182.341 223.899ZM177.087 224.322C177.087 223.034 176.302 222.329 175.255 222.329C174.208 222.329 173.423 223.074 173.423 224.322C173.423 225.57 174.168 226.355 175.255 226.355C176.342 226.355 177.087 225.61 177.087 224.322Z" fill="#263238"/>
<path d="M197.335 223.416V227.945H195.04V223.758C195.04 222.47 194.457 221.886 193.531 221.886C192.504 221.886 191.78 222.551 191.78 223.96V227.925H189.485V223.738C189.485 222.45 188.941 221.866 187.975 221.866C186.969 221.866 186.244 222.531 186.244 223.94V227.905H183.949V219.994H186.143V220.9C186.727 220.216 187.613 219.874 188.639 219.874C189.746 219.874 190.693 220.296 191.236 221.162C191.86 220.357 192.907 219.874 194.094 219.874C195.987 219.874 197.335 220.961 197.335 223.376V223.416Z" fill="#263238"/>
<path d="M206.394 223.416V227.925H204.24V226.938C203.817 227.663 202.992 228.045 201.824 228.045C199.972 228.045 198.865 227.019 198.865 225.65C198.865 224.281 199.852 223.275 202.267 223.275H204.099C204.099 222.288 203.515 221.725 202.267 221.725C201.422 221.725 200.556 222.007 199.992 222.47L199.167 220.859C200.033 220.235 201.321 219.893 202.589 219.893C205.005 219.893 206.394 221.02 206.394 223.416ZM204.099 225.429V224.623H202.529C201.462 224.623 201.12 225.026 201.12 225.549C201.12 226.133 201.603 226.516 202.408 226.516C203.173 226.516 203.837 226.153 204.099 225.449V225.429Z" fill="#263238"/>
<path d="M208.205 217.639C208.205 216.914 208.789 216.351 209.634 216.351C210.48 216.351 211.063 216.874 211.063 217.579C211.063 218.344 210.48 218.907 209.634 218.907C208.789 218.907 208.205 218.344 208.205 217.619V217.639ZM208.487 220.014H210.782V227.925H208.487V220.014Z" fill="#263238"/>
<path d="M212.918 217.015H215.213V227.925H212.918V217.015Z" fill="#263238"/>
<path d="M216.781 226.616C216.781 225.771 217.405 225.207 218.21 225.207C219.016 225.207 219.64 225.771 219.64 226.616C219.64 227.462 219.016 228.066 218.21 228.066C217.405 228.066 216.781 227.462 216.781 226.616Z" fill="#263238"/>
<path d="M220.504 223.98C220.504 221.604 222.336 219.914 224.912 219.914C226.583 219.914 227.891 220.638 228.455 221.927L226.684 222.893C226.261 222.148 225.617 221.806 224.912 221.806C223.745 221.806 222.839 222.611 222.839 224C222.839 225.389 223.745 226.194 224.912 226.194C225.637 226.194 226.261 225.872 226.684 225.107L228.455 226.073C227.871 227.341 226.563 228.066 224.912 228.066C222.336 228.066 220.504 226.375 220.504 224V223.98Z" fill="#263238"/>
<path d="M229.104 223.98C229.104 221.604 230.935 219.914 233.451 219.914C235.968 219.914 237.799 221.604 237.799 223.98C237.799 226.355 235.968 228.046 233.451 228.046C230.935 228.046 229.104 226.355 229.104 223.98ZM235.464 223.98C235.464 222.611 234.599 221.786 233.451 221.786C232.304 221.786 231.418 222.611 231.418 223.98C231.418 225.348 232.304 226.174 233.451 226.174C234.599 226.174 235.464 225.348 235.464 223.98Z" fill="#263238"/>
<path d="M252.691 223.416V227.945H250.396V223.758C250.396 222.47 249.812 221.886 248.886 221.886C247.86 221.886 247.135 222.551 247.135 223.96V227.925H244.84V223.738C244.84 222.45 244.297 221.866 243.331 221.866C242.324 221.866 241.599 222.531 241.599 223.94V227.905H239.305V219.994H241.499V220.9C242.083 220.216 242.968 219.874 243.995 219.874C245.102 219.874 246.048 220.296 246.591 221.162C247.216 220.357 248.262 219.874 249.45 219.874C251.342 219.874 252.691 220.961 252.691 223.376V223.416Z" fill="#263238"/>
<path d="M120.525 278.53L124.249 280.543L122.578 283.341L118.814 281.127L118.875 285.274H115.654L115.694 281.107L111.93 283.361L110.279 280.563L114.003 278.55L110.279 276.497L111.93 273.699L115.694 275.954L115.654 271.787H118.875L118.814 275.954L122.578 273.699L124.249 276.497L120.525 278.55V278.53Z" fill="#263238"/>
<path d="M136.047 278.53L139.771 280.543L138.1 283.341L134.336 281.127L134.396 285.274H131.175L131.216 281.107L127.451 283.361L125.801 280.563L129.525 278.55L125.801 276.497L127.451 273.699L131.216 275.954L131.175 271.787H134.396L134.336 275.954L138.1 273.699L139.771 276.497L136.047 278.55V278.53Z" fill="#263238"/>
<path d="M151.564 278.53L155.288 280.543L153.617 283.341L149.853 281.127L149.914 285.274H146.693L146.733 281.107L142.969 283.361L141.318 280.563L145.042 278.55L141.318 276.497L142.969 273.699L146.733 275.954L146.693 271.787H149.914L149.853 275.954L153.617 273.699L155.288 276.497L151.564 278.55V278.53Z" fill="#263238"/>
<path d="M167.062 278.53L170.786 280.543L169.115 283.341L165.351 281.127L165.412 285.274H162.191L162.231 281.107L158.467 283.361L156.816 280.563L160.54 278.55L156.816 276.497L158.467 273.699L162.231 275.954L162.191 271.787H165.412L165.351 275.954L169.115 273.699L170.786 276.497L167.062 278.55V278.53Z" fill="#263238"/>
<path d="M182.584 278.53L186.308 280.543L184.637 283.341L180.873 281.127L180.933 285.274H177.712L177.753 281.107L173.988 283.361L172.338 280.563L176.062 278.55L172.338 276.497L173.988 273.699L177.753 275.954L177.712 271.787H180.933L180.873 275.954L184.637 273.699L186.308 276.497L182.584 278.55V278.53Z" fill="#263238"/>
<path d="M198.101 278.53L201.825 280.543L200.154 283.341L196.39 281.127L196.451 285.274H193.23L193.27 281.107L189.506 283.361L187.855 280.563L191.579 278.55L187.855 276.497L189.506 273.699L193.27 275.954L193.23 271.787H196.451L196.39 275.954L200.154 273.699L201.825 276.497L198.101 278.55V278.53Z" fill="#263238"/>
<path d="M213.603 278.53L217.327 280.543L215.656 283.341L211.892 281.127L211.953 285.274H208.732L208.772 281.107L205.008 283.361L203.357 280.563L207.081 278.55L203.357 276.497L205.008 273.699L208.772 275.954L208.732 271.787H211.953L211.892 275.954L215.656 273.699L217.327 276.497L213.603 278.55V278.53Z" fill="#263238"/>
<path d="M229.121 278.53L232.845 280.543L231.174 283.341L227.41 281.127L227.47 285.274H224.25L224.29 281.107L220.526 283.361L218.875 280.563L222.599 278.55L218.875 276.497L220.526 273.699L224.29 275.954L224.25 271.787H227.47L227.41 275.954L231.174 273.699L232.845 276.497L229.121 278.55V278.53Z" fill="#263238"/>
</svg>
