<svg width="437" height="342" viewBox="0 0 437 342" fill="none" xmlns="http://www.w3.org/2000/svg">
<path d="M301.569 143.414C319.913 189.244 297.624 241.281 251.782 259.625C223.538 270.932 192.912 266.819 169.311 251.253C154.588 241.57 142.595 227.46 135.546 209.874C117.202 164.043 139.492 111.982 185.322 93.6383C202.932 86.5893 221.469 85.5428 238.646 89.5123C266.192 95.9117 290.262 115.194 301.557 143.414H301.569Z" fill="#4E71AE"/>
<path d="M207.862 100.339C203.772 100.411 198.528 101.854 202.329 104.176C206.13 106.497 208.56 106.714 208.584 109.733C208.608 112.752 206.647 115.916 207.609 118.057C208.572 120.198 210.172 122.688 211.735 121.967C213.287 121.245 217.545 116.493 219.975 116.71C222.405 116.926 230.681 117.299 231.884 114.593C233.087 111.886 234.302 112.079 236.286 109.072C238.271 106.064 238.163 102.047 235.745 102.035C233.327 102.023 233.002 103.045 228.961 102.756C224.919 102.468 223.042 99.7853 219.109 100.495C215.164 101.193 210.869 100.303 207.862 100.351V100.339Z" fill="#B0BBE0"/>
<path d="M192.658 101.409C188.027 103.887 178.26 107.628 173.737 106.365C171.487 105.727 168.817 104.837 165.966 104.308C148.729 116.854 136.267 135.355 131.383 156.537C132.514 158.859 133.897 161.012 135.425 162.793C138.961 166.955 142.63 167.484 147.105 168.338C151.603 169.204 150.184 171.718 152.397 174.364C154.611 177.011 155.537 178.55 158.063 179.958C160.589 181.365 157.173 184.048 156.186 186.947C155.2 189.834 154.911 191.457 156.98 197.34C159.037 203.222 165.04 207.997 166.82 210.271C168.6 212.544 165.593 215.19 166.351 219.954C167.109 224.717 166.88 237.372 171.451 244.493C176.01 251.614 178.765 250.772 178.392 245.972C178.019 241.173 176.467 236.638 179.246 233.029C182.025 229.421 187.654 230.383 189.567 223.791C191.479 217.211 192.706 217.512 195.762 215.287C198.805 213.037 197.446 211.125 200.272 206.036C203.099 200.948 203.941 196.149 199.755 194.056C195.581 191.963 192.778 192.179 189.182 187.223C185.585 182.279 179.992 177.468 174.783 174.653C169.587 171.826 161.323 175.279 158.039 174.316C154.743 173.366 152.662 167.087 152.866 164.657C153.095 162.227 150.629 161.602 148.259 162.203C145.89 162.781 144.567 161.277 143.917 158.101C143.279 154.926 148.199 150.932 152.205 150.631C156.198 150.331 158.352 152.171 159.146 157.343C159.939 162.516 163.356 165.066 167.049 165.992C170.741 166.918 168.432 163.069 165.822 160.447C163.211 157.837 163.019 155.431 164.992 149.645C166.964 143.871 171.824 144.292 175.445 138.975C179.053 133.646 179.763 137.652 183.42 138.181C187.077 138.711 186.535 136.738 187.883 133.406C189.242 130.086 193.885 132.949 197.698 130.242C201.511 127.536 193.548 123.326 194.065 119.657C194.595 116 198.228 116.132 196.195 110.647C194.162 105.162 196.964 104.958 198.42 102.913C199.863 100.88 197.301 98.8949 192.67 101.373L192.658 101.409ZM187.245 114.785C186.042 117.492 184.996 116.974 183.023 119.934C181.026 122.905 177.947 124.541 175.95 124.793C173.953 125.034 170.669 121.485 170.501 119.284C170.332 117.095 173.508 116.433 177.093 115.964C180.677 115.483 183.745 113.931 186.992 111.381C189.567 109.36 188.46 112.079 187.257 114.773L187.245 114.785Z" fill="#B0BBE0"/>
<path d="M307.703 169.841L307.727 170.094C306.295 170.695 304.936 171.754 304.178 173.606C302.145 178.586 301.772 176.409 296.997 179.789C292.233 183.169 294.05 185.84 294.302 189.244C294.567 192.648 289.034 196.485 286.303 197.7C283.585 198.927 282.37 206.65 283.26 210.415C284.15 214.156 279.651 215.708 276.897 219.148C274.142 222.576 272.566 228.326 270.762 231.081C268.97 233.835 265.674 235.483 262.414 234.942C259.154 234.388 256.123 228.975 254.354 224.284C252.586 219.593 251.985 214.408 253.007 209.308C254.03 204.208 253.669 204.845 252.454 196.882C251.239 188.931 245.633 186.55 242.554 185.78C239.475 184.998 234.386 186.802 231.656 185.202C228.925 183.602 227.734 181.281 225.954 173.775C224.174 166.257 227.867 164.585 230.778 160.531C233.677 156.489 239.39 152.231 244.515 150.824C249.627 149.428 253.152 150.764 256.291 152.339C259.431 153.915 260.898 157.415 263.136 157.656C265.361 157.885 267.285 156.73 269.535 157.163C271.772 157.596 273.276 158.691 275.453 158.318C277.642 157.945 276.247 155.443 275.934 154.059C275.622 152.676 273.649 153.025 271.026 153.013C268.404 153.013 267.743 152.279 266.816 150.535C265.878 148.803 264.387 150.318 263.123 149.609C261.86 148.899 262.113 152.099 261.993 153.338C261.885 154.577 260.922 152.399 260.922 152.399C260.922 152.399 259.84 154.083 259.37 153.314C258.913 152.556 259.972 150.655 259.828 148.743C259.683 146.83 256.905 147.275 255.172 145.796C253.452 144.328 251.022 144.112 248.677 144.893C246.319 145.675 245.886 145.11 244.84 147.191C243.793 149.284 238.669 150.679 237.033 150.403C235.409 150.126 236.552 146.818 237.947 143.907C239.33 140.972 242.217 141.958 244.01 139.011C245.802 136.064 243.348 135.643 241.7 135.174C240.064 134.693 239.535 133.117 241.255 129.364C242.987 125.611 245.273 126.646 246.211 128.378C247.149 130.11 249.218 130.976 251.443 131C253.657 131.036 253.139 129.472 253.079 126.249C253.043 123.025 254.511 121.317 257.434 120.09C260.357 118.851 265.241 116.878 267.117 115.122C268.982 113.366 272.302 114.52 274.046 116.397C275.802 118.261 279.675 118.983 283.753 119.669C284.92 119.873 285.834 119.416 286.64 118.706C298.488 132.588 306.199 150.246 307.703 169.841Z" fill="#B0BBE0"/>
<path d="M290.958 213.843C288.781 213.47 288.973 214.192 287.698 215.9C286.423 217.608 284.559 219.557 284.895 221.337C285.232 223.118 285.401 225.319 286.904 223.996C288.408 222.673 287.891 221.109 290.032 220.134C292.173 219.172 294.218 214.385 290.958 213.831V213.843Z" fill="#B0BBE0"/>
<g style="mix-blend-mode:soft-light" opacity="0.4">
<path d="M241.846 97.4033C184.913 80.9718 174.28 119.777 204.448 144.244C234.629 168.711 286.341 176.758 293.318 160.639C300.282 144.509 284.164 109.625 241.846 97.4154V97.4033Z" fill="white"/>
</g>
<g style="mix-blend-mode:multiply" opacity="0.05">
<path d="M194.32 221.421C150.078 185.118 151.449 114.629 190.242 91.8459C188.606 92.3993 186.97 92.9767 185.346 93.6262C139.516 111.97 117.215 164.019 135.571 209.862C142.608 227.448 154.6 241.558 169.336 251.241C192.937 266.806 223.55 270.92 251.806 259.613C274.962 250.339 292.103 232.464 301.04 211.137C288.542 228.482 238.562 257.701 194.332 221.409L194.32 221.421Z" fill="black"/>
</g>
<path d="M425.674 92.9162C422.691 91.1961 418.577 91.4366 414.018 94.0589C404.925 99.3156 397.551 112.09 397.551 122.592C397.551 127.86 399.415 131.553 402.41 133.273C403.192 133.718 407.427 136.184 408.22 136.641C411.204 138.361 415.317 138.121 419.864 135.487C428.958 130.23 436.332 117.455 436.332 106.954C436.332 101.709 434.492 98.0165 431.508 96.2963" fill="#B0BBE0"/>
<path d="M419.852 97.4391C410.758 102.696 403.385 115.47 403.385 125.972C403.385 136.473 410.758 140.731 419.864 135.487C428.97 130.242 436.344 117.455 436.332 106.954C436.332 96.4527 428.946 92.1945 419.852 97.4391Z" fill="#B0BBE0"/>
<path d="M428.947 120.751V121.954C426.602 125.959 423.39 129.448 419.854 131.481C416.305 133.526 413.105 133.742 410.76 132.443V129.965C410.76 125.166 414.02 119.524 418.17 117.118L420.563 115.747C422.68 114.52 424.749 114.364 426.361 115.302C428.009 116.252 428.947 118.237 428.947 120.763V120.751Z" fill="#B0BBE0"/>
<path opacity="0.4" d="M425.675 92.9162L431.509 96.2964C428.526 94.5642 424.412 94.8168 419.853 97.4391C413.899 100.879 408.678 107.543 405.779 114.689L399.945 111.296C402.844 104.151 408.053 97.4872 414.019 94.047C418.566 91.4247 422.692 91.172 425.675 92.9042V92.9162Z" fill="white"/>
<path opacity="0.2" d="M407.992 136.509C406.969 135.92 403.132 133.682 402.41 133.273C399.415 131.565 397.551 127.872 397.551 122.592L403.385 125.984C403.385 131.108 405.141 134.741 407.992 136.509Z" fill="black"/>
<path opacity="0.1" d="M399.945 111.308L405.779 114.701C404.251 118.466 403.373 122.363 403.373 125.984L397.539 122.603C397.539 118.983 398.417 115.085 399.945 111.32V111.308Z" fill="black"/>
<path d="M417.783 115.182C417.217 115.182 416.676 115.049 416.195 114.773C415.088 114.135 414.475 112.86 414.475 111.2C414.475 108.157 416.544 104.572 419.178 103.057C420.609 102.227 422.017 102.118 423.135 102.756C424.242 103.393 424.856 104.668 424.856 106.328C424.856 109.372 422.787 112.956 420.152 114.472C419.334 114.941 418.528 115.182 417.783 115.182Z" fill="white"/>
<path d="M426.359 115.29C424.735 114.352 422.678 114.508 420.561 115.735L418.168 117.106C414.018 119.512 410.758 125.154 410.758 129.953V132.431C413.103 133.73 416.303 133.514 419.852 131.469C423.388 129.436 426.6 125.948 428.946 121.942V120.739C428.946 118.213 428.007 116.228 426.359 115.278V115.29Z" fill="white"/>
<path d="M341.11 234.906C342.891 230.792 343.793 226.401 343.673 222.792C344.49 221.529 345.2 220.134 345.766 218.691C345.008 219.569 344.202 220.338 343.36 220.964C344.226 219.773 344.887 218.294 345.2 216.802C344.394 217.909 343.492 218.895 342.542 219.701C341.772 219.051 340.689 219.003 339.474 219.701C336.768 221.265 334.771 225.788 335.385 228.927C331.896 230.707 328.805 230.262 326.736 228.073C325.641 231.225 326.17 234.208 328.035 234.797C327.349 235.17 326.7 235.29 326.134 235.194C326.086 237.817 327.482 239.428 329.502 238.815C328.913 239.368 328.263 239.789 327.614 240.006C328.143 241.918 329.695 242.64 331.535 241.63C329.767 244.493 327.554 246.598 325.316 247.536C327.169 248.053 329.382 247.704 331.752 246.333C335.902 243.939 339.089 239.609 341.122 234.918" fill="#B0BBE0"/>
<path d="M20.849 219.761C23.8322 218.041 27.9461 218.281 32.505 220.904C41.5989 226.16 48.9726 238.935 48.9726 249.436C48.9726 254.705 47.1081 258.398 44.1129 260.118C43.3311 260.563 39.0969 263.029 38.303 263.486C35.3198 265.206 31.2059 264.966 26.659 262.331C17.5651 257.075 10.1914 244.3 10.1914 233.799C10.1914 228.554 12.0318 224.861 15.015 223.141" fill="#B0BBE0"/>
<path d="M26.6593 224.296C35.7532 229.552 43.1269 242.327 43.1269 252.828C43.1269 263.33 35.7532 267.588 26.6473 262.343C17.5534 257.087 10.1677 244.312 10.1797 233.811C10.1797 223.309 17.5655 219.051 26.6593 224.296Z" fill="#B0BBE0"/>
<path d="M25.4908 237.889C23.4699 236.722 21.834 237.961 21.834 240.655C21.834 243.35 23.4699 246.477 25.4908 247.644C27.5116 248.811 29.1476 247.572 29.1476 244.877C29.1476 242.183 27.5116 239.055 25.4908 237.889ZM25.4908 245.924C24.1796 245.166 23.1211 243.133 23.1211 241.389C23.1211 239.645 24.1796 238.839 25.4908 239.597C26.8019 240.354 27.8605 242.387 27.8605 244.132C27.8605 245.876 26.8019 246.682 25.4908 245.924Z" fill="white"/>
<path d="M30.8683 239.861C30.8683 240.487 30.4833 240.775 30.0142 240.511C29.5451 240.234 29.1602 239.5 29.1602 238.875C29.1602 238.249 29.5451 237.961 30.0142 238.225C30.4833 238.502 30.8683 239.236 30.8683 239.861Z" fill="white"/>
<path d="M32.3476 235.507L19.6571 228.181C18.767 227.664 18.0332 228.217 18.0332 229.408V246.333C18.0332 247.524 18.7549 248.907 19.6571 249.424L24.204 252.046L27.9811 254.236L32.3476 256.75C33.2378 257.267 33.9715 256.714 33.9715 255.523V238.598C33.9715 237.407 33.2498 236.024 32.3476 235.507ZM32.3957 254.669L20.2706 247.668C19.8616 247.439 19.621 247.006 19.621 246.537V230.25L31.7462 237.251C32.1551 237.479 32.3957 237.912 32.3957 238.382V254.669Z" fill="white"/>
<path opacity="0.4" d="M20.8496 219.761L15.0156 223.141C17.9988 221.421 22.1127 221.662 26.6716 224.284C32.626 227.724 37.8465 234.388 40.7455 241.533L46.5795 238.141C43.6805 230.996 38.472 224.332 32.5057 220.892C27.9587 218.269 23.8328 218.017 20.8496 219.749V219.761Z" fill="white"/>
<path opacity="0.2" d="M38.5312 263.366C39.5537 262.776 43.3909 260.539 44.1127 260.13C47.1079 258.422 48.9723 254.729 48.9723 249.448L43.1383 252.84C43.1383 257.965 41.3821 261.597 38.5312 263.366Z" fill="black"/>
<path opacity="0.1" d="M46.5684 238.153L40.7344 241.545C42.262 245.31 43.1402 249.208 43.1402 252.828L48.9742 249.448C48.9742 245.828 48.0961 241.918 46.5684 238.165V238.153Z" fill="black"/>
<path d="M332.702 12.2143C329.719 10.4942 325.605 10.7347 321.046 13.357C311.952 18.6137 304.578 31.3884 304.578 41.8896C304.578 47.1583 306.443 50.8512 309.438 52.5713C310.22 53.0164 314.454 55.4823 315.248 55.9394C318.231 57.6595 322.345 57.4189 326.892 54.7846C335.986 49.528 343.359 36.7533 343.359 26.252C343.359 21.0074 341.519 17.3145 338.536 15.5944" fill="#B0BBE0"/>
<path d="M326.891 16.7491C317.798 22.0058 310.424 34.7805 310.424 45.2817C310.424 55.783 317.798 60.0412 326.903 54.7966C335.997 49.54 343.383 36.7653 343.371 26.264C343.371 15.7628 335.985 11.5045 326.891 16.7491Z" fill="#B0BBE0"/>
<path opacity="0.4" d="M332.703 12.2143L338.537 15.5945C335.553 13.8743 331.439 14.1149 326.881 16.7372C320.926 20.1775 315.706 26.8415 312.807 33.9867L306.973 30.5945C309.872 23.4493 315.08 16.7853 321.046 13.345C325.593 10.7227 329.719 10.4701 332.703 12.2023V12.2143Z" fill="white"/>
<path opacity="0.2" d="M315.031 55.8071C314.008 55.2177 310.171 52.9803 309.45 52.5713C306.454 50.8632 304.59 47.1703 304.59 41.8896L310.424 45.2818C310.424 50.4061 312.18 54.0389 315.031 55.8071Z" fill="black"/>
<path opacity="0.1" d="M306.984 30.6064L312.818 33.9986C311.29 37.7636 310.412 41.661 310.412 45.2817L304.578 41.9016C304.578 38.2809 305.456 34.3835 306.984 30.6185V30.6064Z" fill="black"/>
<path d="M324.269 51.7893L328.455 49.3715V35.3819L331.378 33.6979L331.691 28.8382L328.455 30.7027V28.0322C328.455 26.9256 328.623 26.3963 329.417 25.9272C330.067 25.5543 331.691 24.616 331.691 24.616V19.7563C331.691 19.7563 329.297 21.1397 328.792 21.4284C325.676 23.2327 324.269 25.867 324.269 29.3795V33.1205L322.092 34.3835V39.1229L324.269 37.8599V51.7893Z" fill="white"/>
<path d="M285.305 296.65C282.322 294.93 278.208 295.171 273.649 297.793C264.555 303.049 257.182 315.824 257.182 326.325C257.182 331.594 259.046 335.287 262.041 337.007C262.823 337.452 267.057 339.918 267.851 340.375C270.834 342.095 274.948 341.855 279.495 339.22C288.589 333.964 295.963 321.189 295.963 310.688C295.963 305.443 294.122 301.75 291.139 300.03" fill="#B0BBE0"/>
<path d="M279.495 301.173C270.401 306.43 263.027 319.204 263.027 329.706C263.027 340.207 270.401 344.465 279.507 339.22C288.601 333.964 295.987 321.189 295.975 310.688C295.975 300.187 288.589 295.928 279.495 301.173Z" fill="#B0BBE0"/>
<path opacity="0.4" d="M285.306 296.65L291.14 300.03C288.157 298.298 284.043 298.551 279.484 301.173C273.53 304.613 268.309 311.289 265.41 318.422L259.576 315.03C262.475 307.885 267.684 301.221 273.65 297.781C278.197 295.159 282.323 294.906 285.306 296.638V296.65Z" fill="white"/>
<path opacity="0.2" d="M267.634 340.243C266.612 339.653 262.775 337.416 262.053 337.007C259.058 335.299 257.193 331.606 257.193 326.325L263.027 329.718C263.027 334.842 264.784 338.475 267.634 340.243Z" fill="black"/>
<path opacity="0.1" d="M259.587 315.042L265.421 318.434C263.894 322.199 263.016 326.097 263.016 329.717L257.182 326.337C257.182 322.717 258.06 318.819 259.587 315.054V315.042Z" fill="black"/>
<path d="M275.672 319.216C275.672 319.216 278.342 313.081 278.595 312.191C278.848 311.301 278.583 308.21 278.571 307.62C278.571 307.031 281.001 305.395 281.783 307.079C282.564 308.763 282.637 310.495 282.192 312.757L288.11 309.304C289.361 308.571 289.878 309.605 289.878 310.411C289.878 311.554 289.24 312.552 288.928 312.961C288.928 312.961 290.119 312.6 290.119 314.188C290.119 315.078 289.577 316.353 288.687 317.087C288.687 317.087 289.072 317.376 289.084 318.482C289.084 319.216 288.266 320.96 287.424 321.442C287.424 321.442 287.689 321.959 287.689 322.837C287.689 323.907 286.799 325.495 285.524 326.241C284.248 326.987 275.732 331.955 275.732 331.955L275.672 319.204V319.216Z" fill="white"/>
<path d="M270.054 336.995L274.325 334.505L274.264 319.661L269.994 322.151L270.054 336.995Z" fill="white"/>
<path d="M81.1653 144.388L83.8838 144.171C87.4685 143.883 91.7387 142.475 91.7387 137.351C91.7387 133.887 89.3089 129.664 86.3017 127.932C83.956 126.585 81.9712 127.138 81.2014 129.087C80.4315 126.248 78.4347 123.397 76.1011 122.038C73.0939 120.306 70.6641 121.713 70.6641 125.178C70.6641 130.194 74.9103 136.557 78.4708 141.008L81.1773 144.388H81.1653Z" fill="#B0BBE0"/>
<path d="M144.484 293.101C147.467 291.381 151.581 291.622 156.14 294.244C165.234 299.501 172.607 312.276 172.607 322.777C172.607 328.045 170.743 331.738 167.748 333.459C166.966 333.904 162.732 336.369 161.938 336.827C158.955 338.547 154.841 338.306 150.294 335.672C141.2 330.415 133.826 317.64 133.826 307.139C133.826 301.895 135.667 298.202 138.65 296.482" fill="#B0BBE0"/>
<path d="M150.294 297.636C159.388 302.893 166.762 315.668 166.762 326.169C166.762 336.67 159.388 340.928 150.282 335.684C141.176 330.439 133.802 317.652 133.814 307.151C133.814 296.65 141.2 292.392 150.294 297.636Z" fill="#B0BBE0"/>
<path opacity="0.4" d="M144.484 293.102L138.65 296.482C141.634 294.749 145.747 295.002 150.306 297.624C156.261 301.065 161.481 307.729 164.38 314.874L170.214 311.482C167.315 304.337 162.107 297.673 156.14 294.232C151.594 291.61 147.468 291.357 144.484 293.09V293.102Z" fill="white"/>
<path opacity="0.2" d="M162.166 336.706C163.188 336.117 167.026 333.879 167.747 333.47C170.743 331.762 172.607 328.07 172.607 322.789L166.773 326.181C166.773 331.305 165.017 334.938 162.166 336.706Z" fill="black"/>
<path opacity="0.1" d="M170.203 311.506L164.369 314.898C165.897 318.663 166.775 322.56 166.775 326.181L172.609 322.801C172.609 319.18 171.731 315.283 170.203 311.518V311.506Z" fill="black"/>
<path d="M145.111 306.201V322.152C145.111 323.342 145.592 324.221 146.17 324.112L157.224 321.983C157.814 321.875 157.561 320.804 156.659 319.589L146.735 306.213C145.845 305.01 145.111 304.998 145.111 306.189V306.201Z" fill="white"/>
<path d="M10.9877 84.5683C13.9709 82.8482 18.0848 83.0887 22.6437 85.711C31.7376 90.9677 39.1113 103.742 39.1113 114.244C39.1113 119.512 37.2468 123.205 34.2516 124.925C33.4697 125.37 29.2356 127.836 28.4417 128.293C25.4585 130.014 21.3446 129.773 16.7977 127.139C7.7038 121.894 0.330078 109.119 0.330078 98.606C0.330078 93.3614 2.1705 89.6685 5.15367 87.9484" fill="#B0BBE0"/>
<path d="M16.8097 89.103C25.9035 94.3596 33.2773 107.134 33.2773 117.636C33.2773 128.137 25.9035 132.395 16.7977 127.15C7.7038 121.894 0.330078 109.119 0.330078 98.6058C0.330078 88.1046 7.71583 83.8463 16.8097 89.0909V89.103Z" fill="#B0BBE0"/>
<path opacity="0.4" d="M10.9883 84.5683L5.1543 87.9485C8.13747 86.2283 12.2514 86.4689 16.8103 89.0912C22.7646 92.5315 27.9852 99.1955 30.8841 106.341L36.7182 102.949C33.8192 95.8033 28.6107 89.1393 22.6443 85.6991C18.0974 83.0768 13.9715 82.8241 10.9883 84.5563V84.5683Z" fill="white"/>
<path opacity="0.2" d="M28.6699 128.161C29.6924 127.571 33.5296 125.334 34.2513 124.925C37.2465 123.217 39.111 119.512 39.111 114.243L33.277 117.636C33.277 122.76 31.5208 126.393 28.6699 128.161Z" fill="black"/>
<path opacity="0.1" d="M36.7071 102.96L30.873 106.353C32.4007 110.118 33.2788 114.015 33.2788 117.636L39.1129 114.256C39.1129 110.635 38.2347 106.738 36.7071 102.972V102.96Z" fill="black"/>
<path d="M12.9609 94.0352V110.394C12.7324 110.13 12.1429 109.721 11.8783 109.564C10.6393 108.843 9.62891 109.817 9.62891 111.73C9.62891 113.642 10.6393 115.771 11.8783 116.493C13.1173 117.215 14.6089 116.493 14.6089 114.581V99.5925L21.8142 103.815V115.567C21.5736 115.302 20.9962 114.881 20.7316 114.737C19.4926 114.015 18.8912 115.206 18.8912 117.119C18.8912 119.031 19.9016 121.16 21.1406 121.882C22.3796 122.604 23.39 121.629 23.39 119.717V100.098L12.9609 94.0472V94.0352Z" fill="white"/>
<path d="M418.204 226.702C415.221 224.981 411.107 225.222 406.548 227.844C397.454 233.101 390.08 245.876 390.08 256.377C390.08 261.646 391.945 265.338 394.94 267.059C395.722 267.504 399.956 269.97 400.75 270.427C403.733 272.147 407.847 271.906 412.394 269.272C421.488 264.015 428.861 251.241 428.861 240.739C428.861 235.495 427.021 231.802 424.038 230.082" fill="#B0BBE0"/>
<path d="M412.382 231.236C403.288 236.493 395.914 249.268 395.914 259.769C395.914 270.27 403.288 274.528 412.394 269.284C421.488 264.027 428.873 251.253 428.861 240.751C428.861 230.25 421.476 225.992 412.382 231.236Z" fill="#B0BBE0"/>
<path opacity="0.4" d="M418.204 226.702L424.038 230.082C421.055 228.35 416.941 228.602 412.382 231.225C406.428 234.665 401.208 241.329 398.309 248.474L392.475 245.082C395.374 237.937 400.582 231.273 406.548 227.832C411.095 225.21 415.221 224.957 418.204 226.69V226.702Z" fill="white"/>
<path opacity="0.2" d="M400.521 270.306C399.499 269.717 395.661 267.48 394.94 267.071C391.945 265.362 390.08 261.67 390.08 256.389L395.914 259.781C395.914 264.905 397.67 268.538 400.521 270.306Z" fill="black"/>
<path opacity="0.1" d="M392.474 245.106L398.308 248.498C396.781 252.263 395.902 256.161 395.902 259.781L390.068 256.401C390.068 252.78 390.946 248.883 392.474 245.118V245.106Z" fill="black"/>
<path d="M404.154 244.673V265.375C404.154 265.988 404.587 266.241 405.129 265.94L419.66 257.556C420.201 257.243 420.634 256.497 420.634 255.872V235.17C420.634 234.545 420.201 234.304 419.66 234.605L405.129 242.989C404.587 243.302 404.154 244.047 404.154 244.673ZM418.733 256.654L406.043 263.979C405.502 264.292 405.069 264.039 405.069 263.414V245.539C405.069 244.913 405.502 244.168 406.043 243.855L418.733 236.529C419.275 236.217 419.708 236.469 419.708 237.095V254.97C419.708 255.583 419.275 256.341 418.733 256.654Z" fill="white"/>
<path d="M405.068 264.545V258.723L409.687 249.858L414.487 255.126L413.453 252.576L415.353 249.076L419.708 252.059V256.101L405.068 264.545Z" fill="white"/>
<path d="M416.074 241.858C416.664 241.522 417.133 241.979 417.133 242.881C417.133 243.783 416.664 244.781 416.074 245.118C415.485 245.455 415.016 244.998 415.016 244.096C415.016 243.194 415.485 242.195 416.074 241.858Z" fill="white"/>
<path d="M120.62 61.1721L117.36 55.0494L119.982 47.4832V42.8521L111.959 47.4832V52.1143L115.411 58.0807C115.471 58.1769 115.556 58.2491 115.64 58.2851L120.62 61.1601V61.1721Z" fill="#B0BBE0"/>
<path opacity="0.2" d="M120.62 61.1721L117.36 55.0494L119.982 47.4832V42.8521L111.959 47.4832V52.1143L115.411 58.0807C115.471 58.1769 115.556 58.2491 115.64 58.2851L120.62 61.1601V61.1721Z" fill="black"/>
<path d="M155.093 6.80126C155.093 5.27359 154.022 3.40911 152.687 2.63926L150.727 1.50854C149.403 0.73869 147.25 0.73869 145.915 1.50854L100.566 27.7075C99.2428 28.4774 98.1602 30.3418 98.1602 31.8695V55.3259C98.1602 56.8536 99.2428 58.7181 100.566 59.4879L102.527 60.6186C103.85 61.3885 106.003 61.3885 107.338 60.6186L116.997 55.0372L120.438 60.9915C120.654 61.3764 121.22 61.3163 121.364 60.9073L124.997 50.4061L152.675 34.4076C153.998 33.6378 155.081 31.7733 155.081 30.2456V6.80126H155.093Z" fill="#B0BBE0"/>
<path opacity="0.2" d="M98.1719 55.3139C98.1719 56.8415 99.2424 58.706 100.578 59.4759L102.538 60.6066C103.741 61.3043 105.606 61.3644 106.941 60.7991C105.81 61.2321 104.944 60.5825 104.944 59.2233V35.7669C104.944 34.997 105.209 34.155 105.642 33.3972L98.8816 29.4878C98.4485 30.2456 98.1719 31.0876 98.1719 31.8575V55.3139Z" fill="black"/>
<path opacity="0.2" d="M155.008 6.11563C154.731 5.09317 153.793 4.76839 152.686 5.40592L107.337 31.6049C106.676 31.9898 106.074 32.6394 105.641 33.3972L98.8809 29.4998C99.3139 28.742 99.9153 28.0925 100.577 27.7075L145.914 1.50855C147.249 0.75073 149.402 0.75073 150.725 1.50855L152.686 2.63927C153.817 3.28883 154.767 4.74433 155.008 6.11563Z" fill="white"/>
<path d="M118.19 36.1516C116.422 37.174 114.979 39.664 114.979 41.7089C114.979 43.7539 116.41 44.5838 118.19 43.5614C119.958 42.5389 121.402 40.0489 121.402 38.004C121.402 35.9591 119.971 35.1291 118.19 36.1516Z" fill="white"/>
<path d="M130.014 29.3073C128.246 30.3298 126.803 32.8198 126.803 34.8647C126.803 36.9096 128.234 37.7396 130.014 36.7172C131.783 35.6947 133.226 33.2047 133.226 31.1598C133.226 29.1149 131.795 28.2849 130.014 29.3073Z" fill="white"/>
<path d="M141.85 22.4629C140.082 23.4853 138.639 25.9753 138.639 28.0202C138.639 30.0651 140.07 30.8951 141.85 29.8727C143.619 28.8502 145.062 26.3602 145.062 24.3153C145.062 22.2704 143.631 21.4404 141.85 22.4629Z" fill="white"/>
<path d="M340.915 141.14L361.737 129.123C362.134 128.895 362.459 128.281 362.459 127.752V109.023C362.459 108.494 362.134 108.253 361.737 108.482L340.915 120.498C340.518 120.727 340.193 121.34 340.193 121.87V140.599C340.193 141.128 340.518 141.369 340.915 141.14Z" fill="#B0BBE0"/>
<path d="M340.194 140.587V140.214L348.795 125.947L340.302 121.244C340.302 121.244 340.338 121.136 340.362 121.088L350.948 125.502C351.176 125.599 351.465 125.43 351.682 125.081L362.255 108.469C362.255 108.469 362.303 108.506 362.315 108.542L353.835 123.049L362.435 127.379V127.752C362.435 128.041 362.351 128.341 362.219 128.594L353.39 123.806L352.139 125.947C351.646 126.79 350.972 127.186 350.467 126.91L349.216 126.212L340.398 141.176C340.266 141.08 340.17 140.899 340.17 140.611L340.194 140.587Z" fill="white"/>
<path d="M104.406 217.716C105.043 218.366 105.621 219.087 106.138 219.905C106.655 220.723 107.1 221.553 107.473 222.407C107.846 223.261 108.135 224.103 108.339 224.933C108.556 225.763 108.664 226.509 108.676 227.171C108.676 227.399 108.628 227.568 108.532 227.676C108.436 227.784 108.339 227.808 108.219 227.748L105.428 226.136C105.224 226.016 105.067 225.884 104.947 225.703C104.827 225.535 104.707 225.306 104.574 225.03C104.526 224.933 104.466 224.765 104.37 224.536C104.274 224.308 104.141 224.043 103.973 223.767C103.804 223.478 103.588 223.189 103.335 222.9C103.083 222.612 102.77 222.359 102.397 222.155C102.132 221.998 101.868 221.878 101.615 221.806C101.363 221.722 101.146 221.698 100.954 221.734C100.761 221.77 100.605 221.866 100.484 222.046C100.364 222.227 100.304 222.504 100.304 222.888C100.304 223.273 100.376 223.622 100.508 223.947C100.641 224.272 100.869 224.645 101.194 225.042C101.519 225.439 101.94 225.896 102.457 226.401C102.986 226.906 103.636 227.52 104.418 228.253C105.2 228.987 105.873 229.733 106.463 230.491C107.04 231.261 107.533 232.067 107.918 232.945C108.303 233.811 108.604 234.737 108.784 235.711C108.977 236.698 109.073 237.768 109.073 238.959C109.073 240.018 108.965 240.92 108.736 241.678C108.508 242.435 108.195 243.025 107.774 243.47C107.365 243.915 106.872 244.192 106.282 244.312C105.705 244.432 105.067 244.384 104.37 244.192V246.874C104.37 247.151 104.31 247.355 104.201 247.5C104.093 247.632 103.949 247.656 103.792 247.572L101.002 245.96C100.845 245.876 100.713 245.695 100.593 245.419C100.484 245.154 100.424 244.877 100.424 244.601V241.798C99.7386 241.124 99.1252 240.378 98.5839 239.548C98.0426 238.718 97.5734 237.864 97.1765 236.974C96.7795 236.084 96.4908 235.206 96.2743 234.316C96.0578 233.426 95.9495 232.584 95.9375 231.79C95.9375 231.561 95.9856 231.393 96.0818 231.285C96.1781 231.176 96.2743 231.152 96.3946 231.212L99.1853 232.824C99.3898 232.933 99.5462 233.077 99.6544 233.221C99.7627 233.378 99.883 233.57 99.9912 233.811C100.051 233.943 100.136 234.16 100.244 234.448C100.352 234.737 100.508 235.062 100.701 235.411C100.893 235.759 101.134 236.108 101.423 236.457C101.711 236.806 102.072 237.095 102.493 237.347C103.239 237.78 103.877 237.997 104.37 237.997C104.875 237.997 105.128 237.624 105.128 236.866C105.128 236.493 105.031 236.12 104.851 235.759C104.67 235.399 104.394 235.014 104.021 234.581C103.648 234.16 103.179 233.678 102.602 233.137C102.024 232.608 101.351 231.958 100.569 231.212C99.1131 229.817 98.0426 228.277 97.3689 226.581C96.6953 224.897 96.3585 222.973 96.3585 220.795C96.3585 219.917 96.4547 219.111 96.6352 218.402C96.8156 217.692 97.0802 217.091 97.4291 216.609C97.7779 216.128 98.1989 215.779 98.7041 215.575C99.2094 215.358 99.7747 215.298 100.412 215.394V212.592C100.412 212.315 100.472 212.111 100.581 211.978C100.689 211.846 100.833 211.822 100.99 211.906L103.78 213.518C103.937 213.602 104.069 213.783 104.189 214.059C104.298 214.324 104.358 214.601 104.358 214.877V217.716H104.406Z" fill="#B0BBE0"/>
<path d="M232.654 22.7759L228.829 20.5746C227.001 19.3476 224.463 19.4078 221.66 21.0197C216.103 24.2314 211.592 32.387 211.592 39.2314V40.7952C211.592 47.6397 220.794 55.0856 220.794 55.0856L224.559 57.2147C224.559 57.2147 222.298 54.6405 222.55 54.1112C225.016 49.047 231.728 34.7687 231.728 29.1753V27.6115C231.728 26.3605 231.572 25.2418 231.295 24.2675L231.728 24.5201L232.654 22.7759ZM221.66 38.4736C218.881 40.0735 216.62 38.7743 216.62 35.5626C218.111 35.322 221.877 28.8986 221.66 26.8417C224.439 25.2418 226.7 26.5409 226.7 29.7527C226.7 32.9644 224.451 36.8738 221.66 38.4736Z" fill="#B0BBE0"/>
<g opacity="0.2">
<path d="M232.654 22.7759L228.829 20.5746C227.001 19.3476 224.463 19.4078 221.66 21.0197C216.103 24.2314 211.592 32.387 211.592 39.2314V40.7952C211.592 47.6397 220.794 55.0856 220.794 55.0856L224.559 57.2147C224.559 57.2147 222.298 54.6405 222.55 54.1112C225.016 49.047 231.728 34.7687 231.728 29.1753V27.6115C231.728 26.3605 231.572 25.2418 231.295 24.2675L231.728 24.5201L232.654 22.7759ZM221.66 38.4736C218.881 40.0735 216.62 38.7743 216.62 35.5626C218.111 35.322 221.877 28.8986 221.66 26.8417C224.439 25.2418 226.7 26.5409 226.7 29.7527C226.7 32.9644 224.451 36.8738 221.66 38.4736Z" fill="black"/>
</g>
<path d="M235.758 29.9332C235.758 23.0887 231.247 20.1417 225.689 23.3534C220.132 26.5651 215.621 34.7207 215.621 41.5652V43.1289C215.621 48.3976 221.587 54.5203 224.342 57.0464C225.016 57.6598 226.086 57.4674 226.483 56.6494C228.853 51.7897 235.77 37.1626 235.77 31.497V29.9332H235.758ZM225.689 40.7953C222.911 42.3951 220.649 41.096 220.649 37.8843C220.649 34.6726 222.899 30.7632 225.689 29.1633C228.468 27.5635 230.729 28.8626 230.729 32.0743C230.729 35.2861 228.48 39.1955 225.689 40.7953Z" fill="#B0BBE0"/>
<g opacity="0.8">
<path d="M337.031 39.7244L411.394 100.218" stroke="#B0BBE0" stroke-width="0.75" stroke-miterlimit="10" stroke-linecap="round"/>
<path d="M414.473 134.536L410.131 228.686" stroke="#B0BBE0" stroke-width="0.75" stroke-miterlimit="10" stroke-linecap="round"/>
<path d="M403.445 234.46L354.211 141.862" stroke="#B0BBE0" stroke-width="0.75" stroke-miterlimit="10" stroke-linecap="round"/>
<path d="M365.9 118.008L402.769 110.683" stroke="#B0BBE0" stroke-width="0.75" stroke-miterlimit="10" stroke-linecap="round"/>
<path d="M322.766 55.8069L346.92 111.308" stroke="#B0BBE0" stroke-width="0.75" stroke-miterlimit="10" stroke-linecap="round"/>
<path d="M315.031 25.5181L235.977 38.4371" stroke="#B0BBE0" stroke-width="0.75" stroke-miterlimit="10" stroke-linecap="round"/>
<path d="M235.221 47.002L341.147 114.977" stroke="#B0BBE0" stroke-width="0.75" stroke-miterlimit="10" stroke-linecap="round"/>
<path d="M348.844 141.862L340.725 213.999" stroke="#B0BBE0" stroke-width="0.75" stroke-miterlimit="10" stroke-linecap="round"/>
<path d="M393.363 258.302L292.32 317.123" stroke="#B0BBE0" stroke-width="0.75" stroke-miterlimit="10" stroke-linecap="round"/>
<path d="M347.895 232.945L395.3 246.742" stroke="#B0BBE0" stroke-width="0.75" stroke-miterlimit="10" stroke-linecap="round"/>
<path d="M326.988 251.878L291.154 300.03" stroke="#B0BBE0" stroke-width="0.75" stroke-miterlimit="10" stroke-linecap="round"/>
<path d="M112.404 244.781L151.919 295.387" stroke="#B0BBE0" stroke-width="0.75" stroke-miterlimit="10" stroke-linecap="round"/>
<path d="M44.8496 246.056L87.6966 228.987" stroke="#B0BBE0" stroke-width="0.75" stroke-miterlimit="10" stroke-linecap="round"/>
<path d="M99.0155 205.002L85.916 151.281" stroke="#B0BBE0" stroke-width="0.75" stroke-miterlimit="10" stroke-linecap="round"/>
<path d="M73.3839 143.377L32.4375 224.921" stroke="#B0BBE0" stroke-width="0.75" stroke-miterlimit="10" stroke-linecap="round"/>
<path d="M26.6623 222.046L17.3398 124.624" stroke="#B0BBE0" stroke-width="0.75" stroke-miterlimit="10" stroke-linecap="round"/>
<path d="M43.1406 259.204L141.573 316.04" stroke="#B0BBE0" stroke-width="0.75" stroke-miterlimit="10" stroke-linecap="round"/>
<path d="M84.834 122.483L111.045 62.5913" stroke="#B0BBE0" stroke-width="0.75" stroke-miterlimit="10" stroke-linecap="round"/>
<path d="M159.955 25.6145L209.695 37.884" stroke="#B0BBE0" stroke-width="0.75" stroke-miterlimit="10" stroke-linecap="round"/>
<path d="M94.3375 47.074L27.4688 95.3821" stroke="#B0BBE0" stroke-width="0.75" stroke-miterlimit="10" stroke-linecap="round"/>
<path d="M36.2383 108.975L67.3691 123.554" stroke="#B0BBE0" stroke-width="0.75" stroke-miterlimit="10" stroke-linecap="round"/>
<path d="M205.592 48.698L92.4844 129.436" stroke="#B0BBE0" stroke-width="0.75" stroke-miterlimit="10" stroke-linecap="round"/>
<path d="M168.484 315.812L261.312 315.884" stroke="#B0BBE0" stroke-width="0.71" stroke-miterlimit="10" stroke-linecap="round"/>
</g>
</svg>
