<svg width="324" height="333" viewBox="0 0 324 333" fill="none" xmlns="http://www.w3.org/2000/svg">
<path d="M89.6112 134.796C85.9098 108.354 66.0843 99.7132 71.541 82.7483C81.4592 51.9176 156.204 51.7009 168.406 51.6642C207.988 51.5504 272.201 51.3631 298.523 97.2052C310.651 118.331 292.941 130.878 300.693 184.674C305.294 216.606 311.915 220.466 308.643 234.552C298.772 277.081 226.425 293.635 216.114 295.996C138.931 313.655 41.3492 289.034 33.95 249.009C27.3329 213.21 96.9554 187.252 89.6112 134.796Z" fill="#D9E8FF"/>
<path d="M54.191 215.034C49.8984 205.689 28.0165 158.048 48.4075 129.013C60.2352 112.176 75.1402 117.453 104.069 98.6519C143.452 73.0539 137.969 48.8807 166.237 34.3173C203.883 14.9214 267.053 30.2707 285.509 64.678C303.356 97.9469 266.756 125.469 284.062 174.554C297.084 211.487 324.286 214.282 323.82 238.165C323.152 272.605 265.798 307.214 213.944 311.896C143.308 318.278 79.1941 269.473 54.191 215.031V215.034Z" fill="#B5D3FB"/>
<path d="M178.749 205.33C178.697 205.499 178.635 205.667 178.565 205.836C178.385 206.288 178.143 206.714 177.845 207.122C177.199 208.021 176.303 208.811 175.242 209.508C174.83 209.777 174.393 210.034 173.938 210.272C173.497 210.507 173.035 210.728 172.554 210.937C170.608 211.792 168.419 212.442 166.264 212.934C163.928 213.467 161.644 213.812 159.768 214.029C157.906 214.234 156.444 214.319 155.75 214.323C155.53 214.323 155.383 214.319 155.328 214.308C156.393 214.925 156.158 217.088 155.071 220.187C153.745 223.984 151.153 229.18 148.138 234.655C147.738 235.375 147.334 236.098 146.923 236.825C144.033 241.955 140.864 247.202 138.091 251.675C133.85 258.52 130.527 263.543 130.527 263.543C130.527 263.543 130.666 263.727 130.883 264.072C131.148 264.49 131.533 265.155 131.922 266.025C131.977 266.146 132.036 266.271 132.091 266.403C132.095 266.414 132.102 266.429 132.106 266.44C132.179 266.602 132.245 266.774 132.312 266.954C132.499 267.428 132.682 267.946 132.844 268.504C132.877 268.614 132.906 268.724 132.939 268.834C132.943 268.842 132.947 268.849 132.947 268.856C133.009 269.084 133.068 269.312 133.119 269.55C133.175 269.793 133.23 270.039 133.277 270.292C133.296 270.402 133.318 270.516 133.336 270.626C133.38 270.902 133.424 271.181 133.457 271.467C133.472 271.599 133.487 271.735 133.501 271.875C133.542 272.286 133.575 272.712 133.582 273.145C133.597 273.781 133.578 274.438 133.52 275.114C133.509 275.253 133.494 275.393 133.479 275.532C133.38 276.417 133.208 277.339 132.947 278.283C132.917 278.389 132.888 278.496 132.855 278.602C132.848 278.631 132.837 278.661 132.829 278.694C132.8 278.789 132.771 278.881 132.738 278.977C132.734 278.991 132.73 279.006 132.723 279.024C132.686 279.149 132.642 279.274 132.598 279.399C132.565 279.498 132.532 279.597 132.492 279.696C132.473 279.755 132.451 279.818 132.429 279.876C132.392 279.972 132.359 280.06 132.319 280.155C132.301 280.214 132.275 280.273 132.245 280.332C132.205 280.445 132.157 280.559 132.106 280.669C131.981 280.974 131.838 281.283 131.687 281.591C131.548 281.885 131.397 282.179 131.236 282.476C127.692 289.012 119.434 296.324 101.969 302.816L100.849 304.042L97.1222 308.129L78.5084 332.258H0.943359C25.66 308.423 59.7479 271.28 60.8715 264.938C62.9829 253.056 62.6782 231.526 65.0246 224.524C66.6624 219.647 69.6881 211.767 72.5524 204.614C75.4276 197.424 78.1412 190.972 79.0923 189.044C79.2833 188.651 79.4669 188.177 79.6321 187.634C81.1266 182.809 81.7876 172.725 83.6861 171.837C84.2516 171.572 85.8379 172.237 87.5895 173.827C88.4047 174.565 89.2529 175.505 90.0461 176.643C93.586 181.696 96.1087 190.671 90.0461 203.516C89.4512 204.775 88.7756 206.071 88.0118 207.404C88.0118 207.404 88.4634 213.805 90.0461 215.843C90.4904 216.416 91.0302 216.643 91.6691 216.276C94.9189 214.44 103.949 203.431 110.191 195.529C111.337 194.078 112.391 192.734 113.294 191.57C115.292 188.996 116.577 187.3 116.577 187.3C116.577 187.3 139.476 179.805 156.044 175.579C159.892 174.594 163.399 173.79 166.197 173.295C169.333 172.74 171.584 172.578 172.429 172.993C172.59 173.074 172.737 173.17 172.877 173.295C173.428 173.765 173.806 174.558 173.938 175.579C174.397 179.192 171.79 185.721 162.911 191.57C162.011 192.165 161.046 192.753 160.006 193.329C158.005 194.446 155.743 195.525 153.202 196.535C152.357 196.869 151.483 197.2 150.573 197.515C148.81 198.14 146.919 198.731 144.907 199.285C144.907 199.285 147.191 199.15 150.573 199.08C150.867 199.076 151.168 199.069 151.476 199.065C152.923 199.043 154.535 199.032 156.228 199.05C157.373 199.061 158.56 199.083 159.757 199.12C166.065 199.318 172.767 199.961 176.31 201.632C176.909 201.915 177.416 202.223 177.816 202.568C178.216 202.906 178.51 203.281 178.679 203.688C178.895 204.184 178.921 204.724 178.738 205.33H178.749Z" fill="#FEC5BE"/>
<path d="M101.973 302.823L100.853 304.049C99.4209 299.896 87.9016 296.044 83.9615 295.027C78.5525 293.745 76.2134 286.673 72.8829 283.948C69.5449 281.231 63.4787 279.667 55.9252 285.355C52.6277 287.844 36.1548 313.145 21.4592 332.265H0.943359C25.66 308.43 59.7479 271.287 60.8715 264.945C62.9829 253.063 62.6782 231.533 65.0246 224.531C66.6624 219.654 69.6881 211.774 72.5524 204.621C67.4041 225.485 70.5658 227.263 67.8448 237.89C66.5779 242.836 62.7222 262.801 68.4911 273.182C71.2598 278.168 79.2576 281.224 82.2062 286.155C83.7999 288.825 86.2161 292.192 93.1453 294.7C99.6155 297.054 101.529 300.722 101.969 302.826L101.973 302.823Z" fill="#F0B2AA"/>
<path d="M131.238 282.483C128.293 281.635 123.633 281.668 116.476 283.232C86.9561 289.681 88.3662 277.75 88.3662 277.75L106.113 264.953L130.881 264.068C132.137 266.069 136.081 273.557 131.238 282.483Z" fill="#F0B2AA"/>
<path d="M92.3968 19.3979H284.861C287.512 19.3979 289.664 21.5498 289.664 24.201V276.792C289.664 279.443 287.512 281.595 284.861 281.595H92.3968C89.7456 281.595 87.5938 279.443 87.5938 276.792V24.201C87.5938 21.5498 89.7456 19.3979 92.3968 19.3979Z" fill="#404466"/>
<path d="M281.89 32.5183H95.364C92.4264 32.5183 90.0469 34.8464 90.0469 37.718V273.777C90.0469 276.648 92.4264 278.977 95.364 278.977H281.89C284.828 278.977 287.208 276.648 287.208 273.777V37.718C287.208 34.8464 284.828 32.5183 281.89 32.5183Z" fill="white"/>
<path d="M263.889 95.1675H163.752C162.331 95.1675 161.178 94.5652 161.178 93.8198C161.178 93.0781 162.331 92.4722 163.752 92.4722H263.889C265.31 92.4722 266.463 93.0744 266.463 93.8198C266.463 94.5616 265.31 95.1675 263.889 95.1675Z" fill="#C8CBE3"/>
<path d="M263.889 103.062H163.752C162.331 103.062 161.178 102.46 161.178 101.715C161.178 100.973 162.331 100.367 163.752 100.367H263.889C265.31 100.367 266.463 100.969 266.463 101.715C266.463 102.456 265.31 103.062 263.889 103.062Z" fill="#C8CBE3"/>
<path d="M263.889 110.957H163.752C162.331 110.957 161.178 110.355 161.178 109.61C161.178 108.868 162.331 108.262 163.752 108.262H263.889C265.31 108.262 266.463 108.864 266.463 109.61C266.463 110.351 265.31 110.957 263.889 110.957Z" fill="#C8CBE3"/>
<path d="M263.889 118.852H163.752C162.331 118.852 161.178 118.25 161.178 117.505C161.178 116.763 162.331 116.157 163.752 116.157H263.889C265.31 116.157 266.463 116.759 266.463 117.505C266.463 118.246 265.31 118.852 263.889 118.852Z" fill="#C8CBE3"/>
<path d="M263.889 126.747H163.752C162.331 126.747 161.178 126.145 161.178 125.4C161.178 124.658 162.331 124.052 163.752 124.052H263.889C265.31 124.052 266.463 124.654 266.463 125.4C266.463 126.141 265.31 126.747 263.889 126.747Z" fill="#C8CBE3"/>
<path d="M128.933 157.405H125.878C121.809 157.405 118.512 154.108 118.512 150.039C118.512 145.971 121.809 142.673 125.878 142.673H128.933C133.002 142.673 136.299 145.971 136.299 150.039C136.299 154.108 133.002 157.405 128.933 157.405Z" fill="#FF9C61"/>
<path d="M128.933 177.558H125.878C121.809 177.558 118.512 174.26 118.512 170.191C118.512 166.123 121.809 162.825 125.878 162.825H128.933C133.002 162.825 136.299 166.123 136.299 170.191C136.299 174.26 133.002 177.558 128.933 177.558Z" fill="#FF9C61"/>
<path d="M246.047 145.038H145.252C144.897 145.038 144.609 145.326 144.609 145.68V146.679C144.609 147.034 144.897 147.322 145.252 147.322H246.047C246.401 147.322 246.689 147.034 246.689 146.679V145.68C246.689 145.326 246.401 145.038 246.047 145.038Z" fill="#C8CBE3"/>
<path d="M246.051 151.659H216.707C216.352 151.659 216.064 151.946 216.064 152.301V153.3C216.064 153.655 216.352 153.943 216.707 153.943H246.051C246.405 153.943 246.693 153.655 246.693 153.3V152.301C246.693 151.946 246.405 151.659 246.051 151.659Z" fill="#C8CBE3"/>
<path d="M229.587 173.294H190.686C190.331 173.294 190.043 173.582 190.043 173.937V174.936C190.043 175.291 190.331 175.578 190.686 175.578H229.587C229.942 175.578 230.23 175.291 230.23 174.936V173.937C230.23 173.582 229.942 173.294 229.587 173.294Z" fill="#C8CBE3"/>
<path d="M212.082 151.659H196.766C196.411 151.659 196.123 151.946 196.123 152.301V153.3C196.123 153.655 196.411 153.943 196.766 153.943H212.082C212.437 153.943 212.724 153.655 212.724 153.3V152.301C212.724 151.946 212.437 151.659 212.082 151.659Z" fill="#C8CBE3"/>
<path d="M192.074 166.438H176.758C176.403 166.438 176.115 166.726 176.115 167.081V168.08C176.115 168.435 176.403 168.723 176.758 168.723H192.074C192.429 168.723 192.717 168.435 192.717 168.08V167.081C192.717 166.726 192.429 166.438 192.074 166.438Z" fill="#C8CBE3"/>
<path d="M189.397 151.659H148.758C148.403 151.659 148.115 151.946 148.115 152.301V153.3C148.115 153.655 148.403 153.943 148.758 153.943H189.397C189.752 153.943 190.039 153.655 190.039 153.3V152.301C190.039 151.946 189.752 151.659 189.397 151.659Z" fill="#C8CBE3"/>
<path d="M244.851 145.038H144.057C143.702 145.038 143.414 145.326 143.414 145.68V146.679C143.414 147.034 143.702 147.322 144.057 147.322H244.851C245.206 147.322 245.494 147.034 245.494 146.679V145.68C245.494 145.326 245.206 145.038 244.851 145.038Z" fill="#C8CBE3"/>
<path d="M173.4 151.659H144.057C143.702 151.659 143.414 151.946 143.414 152.301V153.3C143.414 153.655 143.702 153.943 144.057 153.943H173.4C173.755 153.943 174.043 153.655 174.043 153.3V152.301C174.043 151.946 173.755 151.659 173.4 151.659Z" fill="#C8CBE3"/>
<path d="M193.475 166.438H144.057C143.702 166.438 143.414 166.726 143.414 167.081V168.08C143.414 168.435 143.702 168.723 144.057 168.723H193.475C193.83 168.723 194.118 168.435 194.118 168.08V167.081C194.118 166.726 193.83 166.438 193.475 166.438Z" fill="#C8CBE3"/>
<path d="M182.959 173.294H144.057C143.702 173.294 143.414 173.582 143.414 173.937V174.936C143.414 175.291 143.702 175.578 144.057 175.578H182.959C183.313 175.578 183.601 175.291 183.601 174.936V173.937C183.601 173.582 183.313 173.294 182.959 173.294Z" fill="#C8CBE3"/>
<path d="M213.344 166.438H198.027C197.672 166.438 197.385 166.726 197.385 167.081V168.08C197.385 168.435 197.672 168.723 198.027 168.723H213.344C213.698 168.723 213.986 168.435 213.986 168.08V167.081C213.986 166.726 213.698 166.438 213.344 166.438Z" fill="#C8CBE3"/>
<path d="M130.686 145.717C129.464 147.428 128.237 149.136 127.014 150.847C126.162 150.047 125.31 149.246 124.459 148.449C123.944 149.103 123.43 149.757 122.92 150.41C124.363 151.365 125.81 152.32 127.253 153.278C129.096 151.295 130.943 149.316 132.787 147.333C132.085 146.797 131.388 146.261 130.686 145.725V145.717Z" fill="white"/>
<path d="M130.686 166.707C129.464 168.418 128.237 170.125 127.014 171.836C126.162 171.036 125.31 170.235 124.459 169.439C123.944 170.092 123.43 170.746 122.92 171.399C124.363 172.354 125.81 173.309 127.253 174.267C129.096 172.284 130.943 170.305 132.787 168.322C132.085 167.786 131.388 167.25 130.686 166.714V166.707Z" fill="white"/>
<path d="M269.262 250.896H216.659C216.381 250.896 216.156 251.121 216.156 251.399V252.181C216.156 252.459 216.381 252.685 216.659 252.685H269.262C269.54 252.685 269.765 252.459 269.765 252.181V251.399C269.765 251.121 269.54 250.896 269.262 250.896Z" fill="#C8CBE3"/>
<path d="M269.262 258.075H249.595C249.317 258.075 249.092 258.3 249.092 258.578V259.36C249.092 259.638 249.317 259.863 249.595 259.863H269.262C269.54 259.863 269.766 259.638 269.766 259.36V258.578C269.766 258.3 269.54 258.075 269.262 258.075Z" fill="#C8CBE3"/>
<path d="M242.46 258.075H231.517C231.239 258.075 231.014 258.3 231.014 258.578V259.36C231.014 259.638 231.239 259.863 231.517 259.863H242.46C242.737 259.863 242.963 259.638 242.963 259.36V258.578C242.963 258.3 242.737 258.075 242.46 258.075Z" fill="#C8CBE3"/>
<path d="M269.262 265.298H258.319C258.042 265.298 257.816 265.523 257.816 265.801V266.583C257.816 266.861 258.042 267.086 258.319 267.086H269.262C269.54 267.086 269.765 266.861 269.765 266.583V265.801C269.765 265.523 269.54 265.298 269.262 265.298Z" fill="#C8CBE3"/>
<path d="M197.204 191.578H162.709C161.082 191.578 159.764 192.896 159.764 194.523V219.471C159.764 221.097 161.082 222.416 162.709 222.416H197.204C198.831 222.416 200.149 221.097 200.149 219.471V194.523C200.149 192.896 198.831 191.578 197.204 191.578Z" fill="#62C0A6"/>
<path d="M147.64 191.578H113.144C111.518 191.578 110.199 192.896 110.199 194.523V219.471C110.199 221.097 111.518 222.416 113.144 222.416H147.64C149.266 222.416 150.585 221.097 150.585 219.471V194.523C150.585 192.896 149.266 191.578 147.64 191.578Z" fill="#62C0A6"/>
<path d="M269.234 193.189H212.152C211.858 193.189 211.619 193.428 211.619 193.722V194.544C211.619 194.839 211.858 195.077 212.152 195.077H269.234C269.528 195.077 269.766 194.839 269.766 194.544V193.722C269.766 193.428 269.528 193.189 269.234 193.189Z" fill="#C8CBE3"/>
<path d="M269.234 201.481H212.152C211.858 201.481 211.619 201.719 211.619 202.013V202.836C211.619 203.13 211.858 203.368 212.152 203.368H269.234C269.528 203.368 269.766 203.13 269.766 202.836V202.013C269.766 201.719 269.528 201.481 269.234 201.481Z" fill="#C8CBE3"/>
<path d="M269.234 209.773H212.152C211.858 209.773 211.619 210.011 211.619 210.305V211.128C211.619 211.422 211.858 211.66 212.152 211.66H269.234C269.528 211.66 269.766 211.422 269.766 211.128V210.305C269.766 210.011 269.528 209.773 269.234 209.773Z" fill="#C8CBE3"/>
<path d="M269.234 219.658H212.152C211.858 219.658 211.619 219.896 211.619 220.19V221.013C211.619 221.307 211.858 221.545 212.152 221.545H269.234C269.528 221.545 269.766 221.307 269.766 221.013V220.19C269.766 219.896 269.528 219.658 269.234 219.658Z" fill="#C8CBE3"/>
<path d="M149.042 230.388H111.286C110.688 230.388 110.199 229.903 110.199 229.301C110.199 228.702 110.684 228.214 111.286 228.214H149.042C149.641 228.214 150.129 228.698 150.129 229.301C150.129 229.899 149.645 230.388 149.042 230.388Z" fill="#C8CBE3"/>
<path d="M149.042 236.821H111.286C110.688 236.821 110.199 236.336 110.199 235.734C110.199 235.136 110.684 234.647 111.286 234.647H149.042C149.641 234.647 150.129 235.132 150.129 235.734C150.129 236.333 149.645 236.821 149.042 236.821Z" fill="#C8CBE3"/>
<path d="M198.835 230.388H161.079C160.481 230.388 159.992 229.903 159.992 229.301C159.992 228.702 160.477 228.214 161.079 228.214H198.835C199.434 228.214 199.922 228.698 199.922 229.301C199.922 229.899 199.438 230.388 198.835 230.388Z" fill="#C8CBE3"/>
<path d="M198.835 236.821H161.079C160.481 236.821 159.992 236.336 159.992 235.734C159.992 235.136 160.477 234.647 161.079 234.647H198.835C199.434 234.647 199.922 235.132 199.922 235.734C199.922 236.333 199.438 236.821 198.835 236.821Z" fill="#C8CBE3"/>
<path d="M129.807 207.973L120.414 201.749C120.752 201.577 121.13 201.481 121.534 201.481H138.08C138.484 201.481 138.863 201.577 139.2 201.749L129.807 207.973Z" fill="white"/>
<path d="M140.56 203.96V213.25C140.56 214.62 139.451 215.729 138.082 215.729H121.535C120.166 215.729 119.057 214.62 119.057 213.25V203.96C119.057 203.394 119.248 202.869 119.567 202.454L129.805 209.24L140.046 202.454C140.366 202.873 140.557 203.394 140.557 203.96H140.56Z" fill="white"/>
<path d="M173.934 210.272C173.761 208.821 173.989 207.195 174.752 205.506C175.413 204.121 176.508 203.122 177.826 202.568C178.645 202.219 179.544 202.039 180.481 202.039C185.005 201.8 187.131 206.644 185.442 210.375C184.913 211.392 183.855 212.776 182.728 212.391C182.401 212.314 183.933 204.283 183.903 203.963H181.975L181.799 205.08C180.782 203.681 179.688 203.357 178.689 203.684C176.809 204.29 175.267 207.191 175.241 209.501C175.237 209.651 175.241 209.798 175.252 209.941C174.998 213.349 178.406 215.692 180.844 213.011C181.95 215.861 185.982 212.923 186.731 211.039C188.064 208.407 187.641 204.529 185.545 202.542C183.422 200.196 178.942 199.997 176.328 201.628C176.324 201.632 176.317 201.635 176.313 201.639C173.812 203.166 172.399 206.203 172.435 209.222C172.424 209.82 172.465 210.389 172.56 210.929C173.702 218.035 182.75 219.97 187.498 214.286H185.475C180.191 218.317 174.55 215.38 173.945 210.268L173.934 210.272ZM179.93 212.2C178.604 213.573 177.165 212.09 177.323 210.426C177.323 209.629 177.437 208.755 177.664 207.797C177.705 207.569 177.764 207.342 177.841 207.114C178.006 206.633 178.256 206.174 178.56 205.829C179.155 205.149 179.967 204.892 180.797 205.7C181.773 207.099 180.852 210.973 179.93 212.196V212.2Z" fill="white"/>
<path d="M248.71 19.398C248.375 17.7309 246.899 16.4714 245.133 16.4714H197.385V9.05011C197.385 4.21767 193.463 0.295898 188.631 0.295898C183.798 0.295898 179.877 4.21767 179.877 9.05011V16.4714H132.125C130.363 16.4714 128.886 17.7309 128.552 19.398C128.508 19.633 128.482 19.8717 128.482 20.1214C128.482 22.1337 130.116 23.7678 132.129 23.7678H140.248V36.1463C140.248 36.7999 140.773 37.3214 141.423 37.3214H179.601C180.086 37.3214 180.523 37.6261 180.696 38.0815C180.791 38.3312 180.898 38.5772 181.015 38.8122C182.403 41.614 185.289 43.5382 188.631 43.5382C191.972 43.5382 194.859 41.6103 196.247 38.8122C196.364 38.5735 196.471 38.3312 196.563 38.0815C196.735 37.6261 197.172 37.3214 197.661 37.3214H235.839C236.489 37.3214 237.014 36.7963 237.014 36.1463V23.7678H245.129C247.145 23.7678 248.779 22.1337 248.779 20.1214C248.779 19.8717 248.754 19.633 248.706 19.398H248.71ZM188.631 5.00349C190.658 5.00349 192.303 6.64858 192.303 8.67556C192.303 10.7025 190.658 12.3476 188.631 12.3476C186.604 12.3476 184.959 10.7025 184.959 8.67556C184.959 6.64858 186.604 5.00349 188.631 5.00349ZM234.664 33.9761C234.664 34.6297 234.135 35.1512 233.489 35.1512H196.056C195.501 35.1512 195.042 35.5441 194.906 36.0802C194.198 38.8893 191.657 40.9677 188.635 40.9677C185.612 40.9677 183.068 38.8893 182.363 36.0802C182.227 35.5441 181.768 35.1512 181.213 35.1512H143.78C143.13 35.1512 142.605 34.6261 142.605 33.9761V23.7678H234.671V33.9761H234.664Z" fill="#7A81AD"/>
<path d="M150.237 90.5259H114.563C112.084 90.5259 110.068 92.5382 110.068 95.0168V123.519C110.068 125.998 112.084 128.01 114.563 128.01H150.237C152.716 128.01 154.728 125.998 154.728 123.519V95.0168C154.728 92.5382 152.716 90.5259 150.237 90.5259ZM153.208 123.516C153.208 125.153 151.875 126.486 150.237 126.486H114.563C112.922 126.486 111.592 125.153 111.592 123.516V95.0131C111.592 93.3754 112.922 92.0424 114.563 92.0424H150.237C151.875 92.0424 153.208 93.3754 153.208 95.0131V123.516Z" fill="#C8CBE3"/>
<path d="M141.377 111.045C140.91 110.707 140.496 110.392 140.268 110.01C141.847 105.17 138.961 106.889 138.41 103.275C138.7 101.234 139.119 98.8026 137.231 96.9996C135.424 95.3031 133.071 95.4868 131.33 96.5002C129.149 94.8552 126.046 96.559 125.032 98.7365C124.309 100.253 124.746 102.291 124.32 103.955C123.542 104.942 121.845 106.253 121.691 107.296C121.592 108.023 121.808 108.798 121.981 109.415C122.201 110.27 122.374 110.539 121.739 110.957C119.781 112.154 119.286 115.309 121.5 116.689C121.621 116.766 121.75 116.836 121.889 116.899C122.576 117.273 123.193 117.427 123.193 117.427H139.666C140.026 117.328 140.547 117.13 141.065 116.832C141.865 116.377 142.64 115.69 142.739 114.813C143.613 112.694 142.434 111.827 141.373 111.049L141.377 111.045ZM137.047 97.2016C138.45 98.4795 138.48 100.407 138.318 101.924C138.48 99.3534 137.371 96.9409 134.826 96.0596C135.542 96.1918 136.302 96.5186 137.047 97.1979V97.2016ZM120.736 112.386C121.18 111.666 121.874 111.277 122.348 110.777C122.565 110.483 122.425 109.977 122.245 109.345C121.419 106.984 122.37 106.426 124.067 104.667C124.019 104.766 123.96 104.858 123.905 104.95C123.718 105.24 123.49 105.478 123.196 105.688C121.07 107.219 122.837 109.643 122.624 110.601C122.473 111.291 121.456 111.413 120.736 112.389V112.386ZM142.728 113.88C142.258 111.269 140.286 111.637 140.22 110.421C141.179 111.515 143.04 111.989 142.728 113.88Z" fill="#30334D"/>
<path d="M141.747 126.552C141.49 126.519 120.725 126.534 120.725 126.534C120.725 126.534 121.055 117.159 121.672 116.212C122.179 115.433 124.173 114.478 125.81 113.825C126.67 113.483 128.583 112.929 129.262 112.786C131.425 112.705 134.557 112.756 136.753 113.612C138.384 114.111 140.143 114.849 140.752 115.793C141.376 116.755 141.641 122.884 141.747 126.552Z" fill="#D94559"/>
<path d="M130.818 122.318C130.807 121.551 132.012 121.551 131.997 122.318C132.008 123.086 130.804 123.086 130.818 122.318Z" fill="white"/>
<path d="M130.818 124.294C130.807 123.526 132.012 123.526 131.997 124.294C132.008 125.061 130.804 125.061 130.818 124.294Z" fill="white"/>
<path d="M130.818 117.901C130.807 117.133 132.012 117.133 131.997 117.901C132.008 118.668 130.804 118.668 130.818 117.901Z" fill="white"/>
<path d="M130.818 119.88C130.807 119.113 132.012 119.113 131.997 119.88C132.008 120.648 130.804 120.648 130.818 119.88Z" fill="white"/>
<path d="M137.602 119.307H134.238C134.098 119.307 133.988 119.193 133.988 119.058C133.988 118.922 134.102 118.808 134.238 118.808H137.602C137.925 118.804 137.928 119.315 137.602 119.307Z" fill="white"/>
<path d="M129.284 112.786C128.549 113.157 127.903 113.594 127.605 114.214C129.126 114.596 130.249 114.758 131.347 115.881L129.287 112.786H129.284Z" fill="white"/>
<path d="M133.426 112.786C134.16 113.157 134.784 113.594 135.086 114.214C133.565 114.596 132.442 114.758 131.344 115.881L133.426 112.786Z" fill="white"/>
<path d="M133.427 112.786C133.413 113.061 131.364 115.907 131.364 115.907L129.285 112.786C129.461 112.051 130.012 109.822 130.119 109.114L132.678 109.165L132.693 109.29L133.424 112.79L133.427 112.786Z" fill="#F9CBCB"/>
<path d="M133.443 112.793C133.428 113.069 132.441 111.504 131.974 110.877C131.537 110.289 130.52 110.183 129.918 110.19L130.12 109.14L132.679 109.191L132.698 109.287L133.443 112.793Z" fill="#EBB0B0"/>
<path d="M126.981 104.796L127.631 106.903C127.605 106.9 127.587 106.892 127.565 106.9V106.889C124.256 106.764 124.006 103.312 126.268 103.716C126.353 104.116 126.702 104.458 126.977 104.796H126.981Z" fill="#F9CBCB"/>
<path d="M135.578 107.157C135.497 107.179 135.42 107.186 135.328 107.205C135.335 107.205 135.71 105.288 135.721 105.222C135.949 104.866 136.14 104.476 136.301 104.058C138.262 103.441 138.75 106.408 135.574 107.161L135.578 107.157Z" fill="#F9CBCB"/>
<path d="M136.787 103.727C136.566 109.268 130.342 112.345 127.034 106.848C122.238 98.0277 136.177 93.0447 136.787 103.727Z" fill="#F9CBCB"/>
<path d="M137.131 101.366C135.453 99.9227 134.164 97.422 131.315 97.6277C132.714 97.7415 133.958 98.4465 134.847 99.5151C133.566 99.3205 129.02 98.9496 129.02 98.9496C130.319 102.809 135.031 101.895 136.136 104.829C135.618 107.553 133.551 109.848 131.076 109.768C134.274 110.109 137.138 106.441 136.753 102.919L137.131 101.369V101.366Z" fill="#EBB0B0"/>
<path d="M126.23 104.359C127.717 102.787 128.977 101.123 129.021 98.9496C131.268 103.327 136.681 100.786 136.919 105.868C137.584 105.148 137.691 102.262 137.397 100.91C137.096 99.5371 132.785 96.8345 132.065 96.6839C129.891 96.6105 128.191 97.3265 126.601 97.9802L125.723 100.209C125.723 100.209 125.466 102.908 126.23 104.359Z" fill="#30334D"/>
<path d="M260.265 64.4507H117.785C114.363 64.4507 111.59 67.2242 111.59 70.6455V71.4827C111.59 74.904 114.363 77.6775 117.785 77.6775H260.265C263.686 77.6775 266.459 74.904 266.459 71.4827V70.6455C266.459 67.2242 263.686 64.4507 260.265 64.4507Z" fill="#52A1FA"/>
<path d="M209.891 68.0972H169.928C169.561 68.0972 169.264 68.3947 169.264 68.7618V68.8499C169.264 69.217 169.561 69.5146 169.928 69.5146H209.891C210.259 69.5146 210.556 69.217 210.556 68.8499V68.7618C210.556 68.3947 210.259 68.0972 209.891 68.0972Z" fill="#88C0FF"/>
<path d="M230.364 73.2563H149.458C149.091 73.2563 148.793 73.5539 148.793 73.921V74.0091C148.793 74.3762 149.091 74.6738 149.458 74.6738H230.364C230.731 74.6738 231.029 74.3762 231.029 74.0091V73.921C231.029 73.5539 230.731 73.2563 230.364 73.2563Z" fill="#88C0FF"/>
<path d="M307.622 277.647C310.49 258.703 306.161 250.995 297.767 246.255C295.369 244.904 292.644 243.795 289.662 242.73C288.862 242.443 288.047 242.164 287.209 241.881C286.302 241.577 285.37 241.268 284.419 240.952C279.641 239.384 274.398 237.688 268.919 235.253C268.915 235.25 268.908 235.246 268.904 235.246C268.9 235.242 268.9 235.239 268.897 235.239C263.855 231.713 261.079 226.694 258.376 221.549C258.049 220.921 257.719 220.29 257.389 219.662C255.942 216.915 254.44 214.179 252.556 211.664C252.075 211.018 251.565 210.386 251.021 209.777C249.446 207.985 247.606 206.347 245.359 204.951C245.282 204.904 245.212 204.856 245.135 204.812C244.489 204.397 243.772 203.887 243.02 203.376C241.951 202.656 240.802 201.933 239.641 201.489C238.279 200.964 236.902 200.817 235.617 201.489C235.565 201.511 235.51 201.54 235.459 201.573C235.363 201.625 235.275 201.683 235.18 201.746C235.18 201.749 235.176 201.749 235.176 201.753C234.691 202.267 234.486 202.814 234.445 203.38C234.365 204.511 234.926 205.723 235.136 206.934C235.437 207.937 235.837 208.884 236.304 209.78C236.616 210.382 236.961 210.966 237.324 211.532C237.354 211.576 237.383 211.624 237.416 211.668C238.823 213.808 240.556 215.736 242.216 217.716C242.597 218.167 242.968 218.619 243.336 219.082C243.49 219.276 243.644 219.471 243.791 219.665C244.228 220.235 244.65 220.811 245.047 221.406C245.072 221.454 245.094 221.505 245.124 221.553C245.469 222.243 245.81 222.941 246.137 223.646C246.145 223.657 246.152 223.668 246.156 223.679C248.451 228.633 250.199 233.939 251.135 239.348C251.8 243.178 252.06 247.059 251.829 250.904C251.796 251.502 251.745 252.097 251.689 252.692C251.51 254.502 251.216 256.305 250.797 258.083C250.764 258.233 250.731 258.384 250.687 258.531C250.672 258.597 250.658 258.67 250.639 258.736C250.544 259.118 250.448 259.493 250.338 259.867C249.861 261.567 249.266 263.246 248.546 264.894C248.168 265.629 247.797 266.613 247.367 267.534C247.033 268.243 246.662 268.912 246.229 269.404C245.965 269.705 245.675 269.94 245.359 270.076C241.448 268.776 237.875 264.659 234.288 259.871C233.847 259.283 233.41 258.688 232.969 258.083C231.669 256.302 230.362 254.473 229.033 252.692C228.581 252.09 228.129 251.495 227.674 250.904C221.924 243.493 215.655 237.589 207.599 241.055C207.041 241.29 206.861 241.815 206.949 242.546C207.224 244.65 209.802 248.44 212.24 251.723C213.797 253.812 215.296 255.696 216.111 256.819C216.698 258.384 217.271 259.944 217.859 261.49C217.87 261.516 217.881 261.542 217.888 261.567C218.211 262.419 218.542 263.268 218.88 264.108C219.75 266.293 220.679 268.452 221.729 270.557C221.729 270.557 221.729 270.558 221.729 270.56C222.39 271.882 223.095 273.193 223.866 274.471C223.874 274.486 223.881 274.5 223.892 274.511C224.656 275.778 225.486 277.023 226.396 278.239C226.55 278.492 226.701 278.738 226.848 278.984C227.384 279.854 227.913 280.728 228.434 281.606C228.945 282.454 229.448 283.306 229.954 284.154C231.768 287.184 233.59 290.202 235.569 293.077C239.37 298.655 246.075 301.082 251.26 305.485C258.846 311.933 263.528 322.527 266.514 332.273H318.833C313.476 312.058 306.646 285.785 307.622 277.655V277.647Z" fill="#FEC5BE"/>
<path d="M218.074 261.685C218.078 261.718 218.085 261.751 218.089 261.788C217.994 261.681 217.898 261.571 217.803 261.465C217.939 261.509 218.089 261.582 218.074 261.685Z" fill="#F0B2AA"/>
<path d="M269.179 332.262H265.698C262.364 322.656 257.377 312.495 249.875 307.207C244.316 303.282 239.377 298.651 235.569 293.074C233.825 290.07 231.897 287.114 229.954 284.147C229.403 283.299 228.849 282.45 228.295 281.598C227.729 280.728 227.167 279.858 226.613 278.977C225.676 277.5 224.762 276.01 223.892 274.5C223.881 274.489 223.873 274.475 223.866 274.46C223.121 273.171 222.405 271.871 221.729 270.549C221.729 270.549 221.729 270.548 221.729 270.545C220.649 268.445 219.687 266.304 218.879 264.097C218.593 263.337 218.332 262.562 218.09 261.788C222.992 266.664 226.627 272.852 230.395 278.977C230.935 279.854 231.478 280.728 232.029 281.598C237.126 289.681 242.803 297.297 252.325 301.2C255.001 301.787 262.702 317.75 269.179 332.266V332.262Z" fill="#F0B2AA"/>
<path d="M255.98 255.189C253.145 261.332 253.556 267.861 245.79 270.028C255.253 256.739 253.042 231.57 242.687 218.211C238.978 214.345 235.273 209.692 234.652 204.312C237.935 214.312 248.757 217.275 250.541 227.957C251.522 234.071 258.815 249.046 255.983 255.189H255.98Z" fill="#F0B2AA"/>
<path d="M298.229 246.233C293.404 246.549 291.263 243.953 286.427 243.703C279.226 244.327 273.674 240.001 268.9 235.231C277.824 240.791 289.361 240.659 298.229 246.229V246.233Z" fill="#F0B2AA"/>
<path d="M216.496 248.969C216.592 250.276 212.222 251.719 212.222 251.719C199.237 236.256 213.981 239.542 216.496 248.969Z" fill="#FEDCD8"/>
<path d="M245.773 205.293C243.815 206.769 240.569 208.847 238.274 207.555C237.11 206.277 234.411 203.082 235.175 201.742C238.219 199.708 240.962 201.323 245.773 205.293Z" fill="#FEDCD8"/>
</svg>
