<svg width="25" height="24" viewBox="0 0 25 24" fill="none" xmlns="http://www.w3.org/2000/svg">
<path d="M20.793 18.9533C21.3501 18.9533 21.8032 19.4123 21.8032 19.9766C21.8032 20.5421 21.3501 21 20.793 21H15.0829C14.5258 21 14.0727 20.5421 14.0727 19.9766C14.0727 19.4123 14.5258 18.9533 15.0829 18.9533H20.793ZM16.8331 3.69906L18.3081 4.87078C18.9129 5.34377 19.3162 5.96726 19.4541 6.62299C19.6133 7.3443 19.4435 8.0527 18.966 8.66544L10.1796 20.0279C9.77638 20.5439 9.18213 20.8341 8.54544 20.8449L5.04362 20.8879C4.85261 20.8879 4.69344 20.7589 4.65099 20.5761L3.85512 17.1255C3.71717 16.4912 3.85512 15.8355 4.25836 15.3303L10.4874 7.26797C10.5935 7.13898 10.7845 7.11855 10.9118 7.21422L13.5329 9.29967C13.7027 9.43942 13.9361 9.51467 14.1802 9.48242C14.7002 9.41792 15.0503 8.94493 14.9973 8.43969C14.9654 8.1817 14.8381 7.96671 14.6683 7.80546C14.6153 7.76246 12.1215 5.76301 12.1215 5.76301C11.9624 5.63401 11.9305 5.39752 12.0579 5.23735L13.0447 3.95706C13.9573 2.78534 15.5491 2.67784 16.8331 3.69906Z" fill="#C4C4C4"/>
</svg>
