<svg width="436" height="335" viewBox="0 0 436 335" fill="none" xmlns="http://www.w3.org/2000/svg">
<path d="M181.603 44.7231H320.255C325.556 44.7231 329.861 49.0281 329.861 54.3285V127.521C329.861 132.822 325.556 137.127 320.255 137.127H181.603C176.303 137.127 171.998 132.822 171.998 127.521V54.3285C171.998 49.0281 176.303 44.7231 181.603 44.7231Z" fill="white"/>
<path d="M329.861 124.841V127.513C329.861 132.813 325.564 137.118 320.255 137.118H181.603C176.303 137.118 171.998 132.822 171.998 127.513V124.841H329.861Z" fill="#3C4F6D"/>
<path d="M329.861 56.9914V54.3199C329.861 49.0196 325.564 44.7146 320.255 44.7146H181.603C176.303 44.7146 171.998 49.0111 171.998 54.3199V56.9914H329.861Z" fill="#3C4F6D"/>
<path d="M320.254 137.305H181.602C176.208 137.305 171.818 132.915 171.818 127.521V54.3284C171.818 48.9345 176.208 44.5444 181.602 44.5444H320.254C325.648 44.5444 330.038 48.9345 330.038 54.3284V127.521C330.038 132.915 325.648 137.305 320.254 137.305ZM181.602 44.9018C176.404 44.9018 172.184 49.1302 172.184 54.3199V127.513C172.184 132.711 176.413 136.931 181.602 136.931H320.254C325.453 136.931 329.673 132.703 329.673 127.513V54.3284C329.673 49.1302 325.444 44.9103 320.254 44.9103H181.602V44.9018Z" fill="#142241"/>
<path d="M286.223 53.5031C287.586 53.5031 288.69 52.3985 288.69 51.0359C288.69 49.6732 287.586 48.5686 286.223 48.5686C284.86 48.5686 283.756 49.6732 283.756 51.0359C283.756 52.3985 284.86 53.5031 286.223 53.5031Z" fill="white"/>
<path d="M299.571 53.5031C300.933 53.5031 302.038 52.3985 302.038 51.0359C302.038 49.6732 300.933 48.5686 299.571 48.5686C298.208 48.5686 297.104 49.6732 297.104 51.0359C297.104 52.3985 298.208 53.5031 299.571 53.5031Z" fill="white"/>
<path d="M312.918 53.5031C314.281 53.5031 315.386 52.3985 315.386 51.0359C315.386 49.6732 314.281 48.5686 312.918 48.5686C311.556 48.5686 310.451 49.6732 310.451 51.0359C310.451 52.3985 311.556 53.5031 312.918 53.5031Z" fill="white"/>
<path d="M276.115 124.841C275.834 121.395 275.528 118.681 275.213 116.92L228.947 121.021L228.998 124.849H276.115V124.841Z" fill="#142241"/>
<path d="M228.78 92.6983L226.908 124.841H278.142L274.815 70.0164L267.703 37.7718L256.898 37.1762L247.684 36.6658L237.185 40.3582L234.659 41.2515C228.363 43.4635 223.641 48.7384 222.109 55.2298C220.051 64.0014 217.32 76.2442 216.307 83.5014C214.597 95.7696 228.78 92.6898 228.78 92.6898V92.6983Z" fill="#FF6355"/>
<path d="M228.617 94.1107C228.805 94.1107 228.975 93.9661 228.992 93.7704L232.71 60.9302C232.735 60.7175 232.582 60.5303 232.378 60.5133C232.174 60.4878 231.978 60.6409 231.961 60.8451L228.243 93.6853C228.217 93.898 228.371 94.0852 228.575 94.1022C228.592 94.1022 228.6 94.1022 228.617 94.1022V94.1107Z" fill="#F24435"/>
<path d="M256.897 37.1762C255.732 43.5316 253.179 53.6049 247.972 60.8876C243.923 57.5185 238.027 48.2109 237.746 41.6428L247.675 36.6658L256.889 37.1762H256.897Z" fill="white"/>
<path d="M235.449 29.145C235.449 29.145 238.818 37.5593 237.678 41.4899C238.495 43.821 239.831 49.785 247.045 48.7896C254.252 47.7942 256.906 37.1849 256.906 37.1849C256.906 37.1849 253.35 34.2838 251.878 27.7498L235.458 29.1535L235.449 29.145Z" fill="#FFBFB5"/>
<path d="M229.689 18.5867C229.494 18.6037 226.89 10.4277 229.936 6.15678C232.982 1.88585 237.006 -2.20641 245.573 1.98794C256.574 6.40351 256.974 10.9041 257.663 16.5533C258.344 22.2025 253.188 29.0684 253.188 29.0684C253.188 29.0684 250.916 41.4302 239.533 40.5539C229.893 39.8052 229.876 26.9754 230.089 23.0703C230.14 22.2366 230.089 21.3943 229.97 20.569L229.681 18.5782L229.689 18.5867Z" fill="#142241"/>
<path d="M254.66 23.2913C254.013 25.8777 252.32 27.6729 250.874 27.3155C249.427 26.9497 248.789 24.5675 249.436 21.9811C250.082 19.3947 251.776 17.5996 253.222 17.9569C254.668 18.3228 255.306 20.705 254.66 23.2913Z" fill="#FFBFB5"/>
<path d="M233.391 12.9461C236.751 14.1712 241.141 16.2301 246.518 14.3158C247.335 14.0266 248.177 14.6647 248.152 15.5325C247.956 22.2962 251.64 22.4493 250.364 25.4611C250.364 25.4611 244.927 33.9689 240.546 34.7346C232.446 36.1469 230.336 24.1849 230.634 14.8178C230.677 13.414 232.072 12.4696 233.391 12.9461Z" fill="#FFBFB5"/>
<path d="M235.406 21.8538C235.295 22.2536 234.878 22.4834 234.478 22.3728C234.079 22.2621 233.849 21.8453 233.959 21.4454C234.07 21.0455 234.487 20.8158 234.887 20.9264C235.287 21.037 235.516 21.4539 235.406 21.8538Z" fill="#142241"/>
<path d="M241.847 21.5476C241.736 21.9475 241.32 22.1772 240.92 22.0666C240.52 21.956 240.29 21.5391 240.401 21.1392C240.511 20.7394 240.928 20.5097 241.328 20.6203C241.728 20.7309 241.958 21.1478 241.847 21.5476Z" fill="#142241"/>
<path d="M239.193 27.6307C239.746 27.6307 240.104 27.5116 240.129 27.5031C240.325 27.435 240.435 27.2223 240.367 27.0181C240.299 26.8224 240.086 26.7118 239.882 26.7799C239.84 26.7969 238.7 27.1457 237.287 26.329C237.134 26.2354 237.075 26.0312 237.16 25.861C238.666 22.7897 238.912 20.5181 238.921 20.4245C238.938 20.2119 238.793 20.0332 238.581 20.0077C238.376 19.9821 238.189 20.1353 238.164 20.348C238.164 20.3735 237.926 22.5855 236.479 25.5292C236.224 26.0567 236.411 26.7033 236.905 26.9926C237.789 27.5031 238.598 27.6307 239.185 27.6307H239.193Z" fill="#142241"/>
<path d="M231.62 31.8589C231.841 31.6207 236.282 27.4604 238.707 27.9453C240.689 27.6731 245.3 26.7117 249.716 30.285L247.461 32.9905C247.461 32.9905 245.156 29.9872 239.183 29.4257C234.079 31.9865 233.594 34.6069 233.27 34.5304C232.947 34.4538 231.611 31.8589 231.611 31.8589H231.62Z" fill="#142241"/>
<path d="M251.595 82.1914H212.025V84.1142H251.595V82.1914Z" fill="#142241"/>
<path d="M187.898 49.4532L212.648 47.7432L233.739 84.1226H209.747L187.898 49.4532Z" fill="#6D83A9"/>
<path d="M210.07 82.5484C211.465 82.9228 213.592 83.4843 213.592 83.4843C214.009 83.5949 214.366 83.1695 214.188 82.7782L211.329 76.6866C211.074 76.1506 211.423 75.521 212.01 75.4359C212.35 75.3934 212.69 75.5465 212.869 75.8358L216.57 81.6892L215.736 74.8574C215.66 74.2533 216.136 73.7258 216.74 73.7258C217.191 73.7258 217.591 74.0236 217.71 74.4575L219.718 81.4254L220.05 75.5465C220.084 75.0105 220.543 74.6021 221.079 74.6362C221.547 74.6702 221.93 75.036 221.981 75.504L222.559 81.4935L223.036 77.4948C223.095 77.0269 223.529 76.7036 223.997 76.7887C224.346 76.8567 224.61 77.1375 224.652 77.4863L225.197 81.8423L226.133 85.9941C226.55 87.8573 225.367 89.712 223.495 90.0949C221.802 90.4437 219.82 90.5373 218.51 89.5844C215.787 87.6021 214.758 86.5216 214.758 86.5216C214.758 86.5216 211.04 85.1008 209.457 84.4967C209.04 84.3351 208.777 83.9267 208.794 83.4843C208.828 82.8122 209.44 82.3698 210.053 82.5314L210.07 82.5484Z" fill="#FFBFB5"/>
<path d="M246.014 76.3635C245.894 76.4145 242.951 78.7797 241.624 79.8517C241.266 80.141 241.207 80.6514 241.487 81.0173C241.717 81.3235 242.134 81.4342 242.483 81.281L249.434 78.3288L246.014 76.355V76.3635Z" fill="#FFBFB5"/>
<path d="M244.255 74.4916L241.073 74.2534C240.639 74.2194 240.197 74.3045 239.806 74.5001C238.691 75.0531 236.411 76.1932 236.317 76.2527C236.232 76.3123 234.743 77.8437 233.867 78.7541C233.527 79.1114 233.544 79.6814 233.91 80.0132C234.233 80.311 234.726 80.3195 235.058 80.0387L237.908 77.6736L240.988 76.9759L244.255 74.4831V74.4916Z" fill="#FFBFB5"/>
<path d="M270.279 73.9895L251.962 75.1976C251.715 75.2146 251.469 75.2061 251.222 75.1721L242.671 74.1171C241.991 74.032 241.31 74.2362 240.791 74.6786L237.635 77.3501C237.329 77.6138 237.082 77.9286 236.903 78.2945L235.925 80.3193C235.704 80.7873 235.942 81.3403 236.435 81.4934C236.793 81.6125 237.192 81.4679 237.397 81.1531L239.013 78.7284L242.093 76.9417C242.093 76.9417 247.147 79.5877 249.793 79.2814C254.106 80.3278 269.88 81.8677 273.708 81.4424L270.271 73.9895H270.279Z" fill="#FFBFB5"/>
<path d="M264.607 74.1342C264.607 74.1342 264.139 81.7827 266.419 85.9856C272.162 86.411 281.784 84.8371 288.429 82.2166C292.112 80.7618 293.984 76.627 292.606 72.9091C289.237 63.8397 282.541 51.6991 278.355 44.4759C276.126 40.6219 272.136 38.1121 267.695 37.7803C267.695 37.7803 263.373 49.2233 263.373 49.402C263.373 49.5806 273.88 72.22 273.88 72.22L264.598 74.1427L264.607 74.1342Z" fill="#FF6355"/>
<path d="M268.416 86.4366C269.964 86.4366 271.717 86.3346 273.58 86.1219C273.793 86.0963 273.937 85.9092 273.912 85.705C273.886 85.4923 273.699 85.3476 273.495 85.3732C270.909 85.6624 268.543 85.756 266.655 85.6284C264.8 81.9956 264.919 75.8614 264.97 74.4576L273.963 72.5944C274.074 72.5689 274.176 72.5008 274.227 72.3902C274.278 72.2881 274.278 72.1605 274.227 72.0584C274.227 72.0584 270.271 63.5251 267.208 56.8975C267.123 56.7103 266.893 56.6252 266.706 56.7103C266.519 56.7954 266.434 57.0251 266.519 57.2123C269.165 62.9551 272.491 70.1271 273.333 71.9478L264.519 73.777C264.349 73.811 264.23 73.9557 264.213 74.1258C264.196 74.4406 263.762 81.9275 266.068 86.1814C266.127 86.292 266.246 86.3686 266.374 86.3771C267.004 86.4196 267.676 86.4452 268.399 86.4452L268.416 86.4366Z" fill="#F24435"/>
<path d="M253.773 23.4532C253.943 23.4532 254.105 23.3341 254.139 23.1554C254.59 21.1816 254.488 19.7948 253.824 19.0462C253.39 18.5527 252.82 18.4676 252.548 18.4846C252.335 18.5017 252.182 18.6888 252.208 18.9015C252.225 19.1057 252.404 19.2589 252.616 19.2418C252.633 19.2418 252.991 19.2248 253.271 19.5566C253.544 19.8799 253.918 20.7477 253.407 22.9853C253.356 23.1895 253.484 23.3937 253.697 23.4447C253.722 23.4447 253.756 23.4532 253.782 23.4532H253.773Z" fill="#142241"/>
<path d="M281.52 73.5216C281.664 73.5216 281.8 73.445 281.86 73.3089C281.953 73.1217 281.868 72.892 281.681 72.7984C281.528 72.7218 277.861 71.0033 273.811 71.8455C273.607 71.8881 273.471 72.0923 273.514 72.2965C273.556 72.5006 273.76 72.6368 273.965 72.5942C277.759 71.803 281.315 73.479 281.349 73.4961C281.4 73.5216 281.46 73.5301 281.511 73.5301L281.52 73.5216Z" fill="#F24435"/>
<path d="M243.105 19.7351C243.207 19.7351 243.309 19.6925 243.377 19.6159C243.522 19.4628 243.514 19.2246 243.36 19.08C243.309 19.0289 242.067 17.8804 240.196 18.8502C240.008 18.9438 239.94 19.1735 240.034 19.3607C240.128 19.5479 240.357 19.6245 240.544 19.5224C241.94 18.7992 242.833 19.616 242.841 19.6245C242.918 19.6925 243.012 19.7266 243.105 19.7266V19.7351Z" fill="#142241"/>
<path d="M233.518 19.7352C233.595 19.7352 233.663 19.7182 233.731 19.6671C234.871 18.9014 235.849 19.6416 235.858 19.6501C236.019 19.7777 236.266 19.7522 236.394 19.582C236.521 19.4204 236.496 19.1737 236.326 19.046C235.841 18.6717 234.59 18.1782 233.314 19.029C233.135 19.1481 233.093 19.3778 233.212 19.5565C233.288 19.6671 233.407 19.7267 233.526 19.7267L233.518 19.7352Z" fill="#142241"/>
<path d="M239.67 32.3014C241.857 32.3014 242.24 30.5233 242.248 30.4978C242.291 30.2936 242.155 30.0894 241.95 30.0469C241.746 30.0043 241.542 30.1404 241.5 30.3446C241.466 30.4978 241.108 31.825 239.015 31.4762C238.803 31.4421 238.615 31.5783 238.581 31.791C238.547 31.9951 238.683 32.1908 238.896 32.2249C239.177 32.2674 239.432 32.2929 239.67 32.2929V32.3014Z" fill="#142241"/>
<path d="M420.778 238.117L419.682 238.176L422.818 296.651L423.914 296.592L420.778 238.117Z" fill="#3C4F6D"/>
<path d="M416.626 238.138L415.529 238.169L416.689 279.416L417.786 279.385L416.626 238.138Z" fill="#3C4F6D"/>
<path d="M57.051 157.315C65.6524 155.333 71.5994 156.056 75.0196 156.975C76.8232 157.46 78.5163 155.707 78.5248 153.359L78.5503 147.642C78.5503 145.957 77.674 144.485 76.4063 144.052C73.2244 142.954 66.4777 141.618 56.0046 144.247C54.6433 144.588 53.6649 146.11 53.6564 147.872L53.6309 153.648C53.6224 155.971 55.2644 157.715 57.0595 157.307L57.051 157.315Z" fill="#3C4F6D"/>
<path d="M115.399 231.767C115.246 231.997 108.363 244.172 108.516 246.324C108.669 248.477 113.28 252.041 113.28 252.041L103.326 250.918L101.174 246.996C101.174 246.996 104.943 240.998 106.023 231.308C114.327 232.074 115.407 231.767 115.407 231.767H115.399Z" fill="#FFB9AF"/>
<path d="M101.938 175.462C101.938 175.462 101.078 176.739 103.537 177.615C105.996 178.491 127.904 175.207 131.936 183.307C135.476 190.419 113.713 242.045 113.713 242.045C113.713 242.045 106.268 244.121 102.116 240.658C110.862 198.604 110.343 197.574 110.343 197.574C110.343 197.574 95.4378 202.79 81 197.566L81.8678 178.015L101.938 175.454V175.462Z" fill="#142241"/>
<path d="M91.7206 235.213C91.644 235.477 88.6833 249.149 89.466 251.157C90.2487 253.164 95.7107 255.198 95.7107 255.198L85.8757 257.078L82.6512 253.973C82.6512 253.973 84.4719 247.124 82.6172 237.553C90.7762 235.817 91.7121 235.204 91.7121 235.204L91.7206 235.213Z" fill="#FFB9AF"/>
<path d="M92.4428 253.028C91.3198 252.161 89.7118 252.169 88.6823 253.147C88.4526 253.369 88.2314 253.632 88.0272 253.964C86.7 256.176 84.8538 254.645 84.3008 253.513C83.7478 252.382 83.3394 251.863 82.8119 252.118C82.1653 252.424 82.0462 255.011 82.2164 256.346C82.2164 256.346 82.9225 257.844 86.4107 258.575C89.4225 260.081 97.8112 258.916 100.364 258.414C100.968 258.295 101.333 257.64 101.087 257.078C100.866 256.568 100.389 256.244 100.389 256.244C100.389 256.244 95.0717 255.062 92.4343 253.028H92.4428Z" fill="#6D83A9"/>
<path d="M66.521 176.926C66.521 176.926 63.8581 189.407 68.0184 196.188C72.1872 202.977 79.6741 202.534 79.6741 202.534L80.3633 247.992C80.3633 247.992 86.1316 250.527 93.3972 247.992C96.8599 221.226 100.314 193.542 97.4895 188.352C94.6649 183.162 84.0557 183.171 83.2474 182.124C82.4392 181.078 83.5112 177.845 83.5112 177.845L66.5125 176.926H66.521Z" fill="#142241"/>
<path d="M98.4849 199.659C98.6125 199.659 98.7146 199.557 98.7231 199.429C98.9103 193.499 98.5785 189.841 97.7022 188.241C95.6859 184.532 89.7814 183.409 86.2592 182.737C86.0465 182.694 85.8338 182.66 85.6381 182.618C85.5105 182.592 85.3829 182.677 85.3659 182.805C85.3403 182.933 85.4254 183.06 85.553 183.077C85.7487 183.12 85.9614 183.154 86.1741 183.196C89.6198 183.851 95.3796 184.949 97.2938 188.463C98.1106 189.969 98.4339 193.652 98.2552 199.412C98.2552 199.54 98.3573 199.65 98.4849 199.659Z" fill="white"/>
<path d="M64.1642 176.109C64.1386 177.794 65.4318 179.215 67.1164 179.334C73.0719 179.776 86.9481 180.389 100.373 177.853C102.041 177.539 103.096 175.88 102.705 174.229C101.36 168.622 100.739 159.995 100.237 150.041C100.22 149.692 100.203 149.352 100.186 149.012C100.212 149.02 99.6418 127.393 99.6418 127.393C98.7655 126.721 97.719 126.296 96.6045 126.177C91.1085 125.59 81.401 122.655 81.401 122.655C69.2944 125.598 59.4253 128.482 58.1406 131.086C64.0195 141.704 64.3088 167.108 64.1642 176.109Z" fill="#6D83A9"/>
<path d="M72.7129 123.982C74.976 130.243 79.3235 131.673 83.169 130.899C87.006 130.133 86.8274 123.684 86.8274 123.684C86.7168 123.42 86.6232 123.148 86.5381 122.884C85.4661 119.362 86.938 116.188 86.938 116.188H75.2312C75.2312 116.188 75.0951 119.183 73.5126 122.493C73.2829 122.986 73.0107 123.48 72.7129 123.982Z" fill="#FFB9AF"/>
<path d="M72.7129 123.982C74.976 130.243 79.3235 131.673 83.169 130.898C87.006 130.133 86.8274 123.684 86.8274 123.684C86.7168 123.42 86.6232 123.148 86.5381 122.884L83.1265 129.256L73.5126 122.493C73.2829 122.986 73.0107 123.48 72.7129 123.982Z" fill="#E0F3FF"/>
<path d="M90.3161 101.206C90.3161 101.206 97.2755 120.4 90.3161 121.676C83.3567 122.961 77.5969 120.893 77.5969 120.893C77.5969 120.893 75.0956 119.983 74.8744 118.673C74.6532 117.363 68.485 112.181 71.2585 103.155C74.0321 94.1278 85.2709 91.014 90.3076 101.206H90.3161Z" fill="#FFB9AF"/>
<path d="M87.4742 98.2455C87.4742 98.2455 87.0232 100.662 82.4886 100.551C77.9539 100.441 80.4722 104.031 78.9578 104.89C77.4434 105.758 77.6476 106.37 79.2301 110.403C80.5743 113.832 75.325 114.045 74.6444 117.09C74.5338 117.575 73.8957 117.686 73.6319 117.269C72.4919 115.423 70.952 112.87 68.2295 110.029C64.503 106.141 64.0691 101.274 65.9068 99.6578C65.7962 94.9019 79.128 90.5799 85.4663 93.1748C89.8649 93.4641 92.1279 97.1395 90.4774 101.7C89.6862 98.7645 87.4657 98.254 87.4657 98.254L87.4742 98.2455Z" fill="#142241"/>
<path d="M74.1686 113.67C74.8323 115.414 76.2616 116.486 77.3761 116.069C78.4906 115.652 78.8565 113.891 78.2013 112.147C77.5377 110.403 76.1084 109.331 74.9939 109.748C73.8794 110.165 73.5135 111.926 74.1686 113.67Z" fill="#FFB9AF"/>
<path d="M89.8059 107.128C90.21 107.128 90.5376 106.8 90.5376 106.396C90.5376 105.992 90.21 105.665 89.8059 105.665C89.4018 105.665 89.0742 105.992 89.0742 106.396C89.0742 106.8 89.4018 107.128 89.8059 107.128Z" fill="#142241"/>
<path d="M84.3352 108.94C84.7393 108.94 85.0669 108.612 85.0669 108.208C85.0669 107.804 84.7393 107.476 84.3352 107.476C83.9311 107.476 83.6035 107.804 83.6035 108.208C83.6035 108.612 83.9311 108.94 84.3352 108.94Z" fill="#142241"/>
<path d="M82.5667 106.889C82.6688 106.889 82.7538 106.83 82.7879 106.728C83.1112 105.766 84.1746 105.63 84.1832 105.622C84.3108 105.605 84.4044 105.486 84.3873 105.358C84.3703 105.23 84.2512 105.137 84.1236 105.154C84.064 105.154 82.7538 105.333 82.3369 106.575C82.2944 106.694 82.3625 106.83 82.4816 106.872C82.5071 106.872 82.5326 106.881 82.5582 106.881L82.5667 106.889Z" fill="#142241"/>
<path d="M88.5969 104.669C88.682 104.669 88.7756 104.618 88.8096 104.533C89.3201 103.418 90.4517 103.878 90.5793 103.937C90.6984 103.988 90.8345 103.937 90.8941 103.818C90.9451 103.699 90.8941 103.563 90.775 103.512C90.1964 103.257 88.9628 103.103 88.3928 104.346C88.3417 104.465 88.3928 104.601 88.5119 104.66C88.5459 104.677 88.5799 104.686 88.614 104.686L88.5969 104.669Z" fill="#142241"/>
<path d="M88.692 113.551C88.692 113.551 88.7261 113.551 88.7516 113.551C90.4446 113.143 90.8615 112.428 90.9211 111.909C90.9892 111.211 90.4532 110.633 89.8916 110.369C89.1089 109.995 88.5049 108.004 88.3432 107.264C88.3177 107.136 88.1901 107.059 88.0625 107.085C87.9348 107.11 87.8583 107.238 87.8838 107.366C87.9519 107.664 88.5644 110.258 89.696 110.794C90.1809 111.024 90.4957 111.467 90.4532 111.866C90.4021 112.394 89.7555 112.836 88.641 113.1C88.5134 113.134 88.4368 113.262 88.4708 113.381C88.4964 113.491 88.5899 113.559 88.7005 113.559L88.692 113.551Z" fill="#FF8376"/>
<path d="M88.7684 116.708C89.7893 116.708 90.4189 116.035 90.4274 116.018C90.5125 115.925 90.504 115.772 90.4104 115.687C90.3168 115.602 90.1637 115.602 90.0786 115.704C90.0361 115.746 89.0662 116.759 87.5943 115.874C87.4837 115.806 87.3391 115.84 87.271 115.959C87.203 116.069 87.237 116.214 87.3561 116.282C87.8836 116.597 88.36 116.708 88.7769 116.708H88.7684Z" fill="#FF8376"/>
<path d="M74.5863 112.734C74.5863 112.734 74.6203 112.734 74.6288 112.734C74.7564 112.709 74.8415 112.581 74.816 112.453C74.7479 112.096 74.7734 111.815 74.9096 111.628C75.0712 111.407 75.3349 111.373 75.3349 111.373C75.4626 111.356 75.5561 111.245 75.5391 111.109C75.5221 110.982 75.4115 110.888 75.2839 110.897C75.2669 110.897 74.816 110.948 74.5267 111.339C74.3055 111.637 74.2459 112.045 74.3395 112.539C74.3651 112.649 74.4586 112.726 74.5692 112.726L74.5863 112.734Z" fill="#FF8376"/>
<path d="M84.8126 122.382C85.187 122.382 85.5613 122.365 85.9357 122.339C86.0633 122.331 86.1654 122.212 86.1484 122.084C86.1399 121.957 86.0207 121.854 85.8931 121.871C82.473 122.135 78.653 120.978 78.6104 120.97C78.4828 120.927 78.3552 121.004 78.3127 121.123C78.2701 121.25 78.3467 121.378 78.4658 121.421C78.6104 121.463 81.6477 122.39 84.7956 122.39L84.8126 122.382Z" fill="#FF8376"/>
<path d="M83.1867 110.403L82.1402 108.089C82.1147 108.021 82.1147 107.953 82.1402 107.885C82.1743 107.817 83.0676 106.124 86.3346 105.868C86.4367 105.86 86.5218 105.911 86.5643 106.004C87.5512 108.089 87.5512 108.667 87.5427 108.761C87.5427 108.812 87.5087 108.863 87.4746 108.906C87.4066 108.974 85.7986 110.505 83.4079 110.548C83.3143 110.548 83.2292 110.497 83.1867 110.412V110.403ZM86.2155 106.345C83.7822 106.583 82.8464 107.681 82.6252 108.004L83.5525 110.063C85.3902 109.969 86.7345 108.914 87.0663 108.625C87.0407 108.421 86.8961 107.8 86.2155 106.345Z" fill="#142241"/>
<path d="M89.3453 108.387C89.3028 108.387 89.2517 108.353 89.2177 108.327C89.1496 108.259 88.7838 107.808 88.2223 105.579C88.1967 105.486 88.2393 105.384 88.3158 105.332C91.0298 103.444 92.3826 104.346 92.4336 104.388C92.4762 104.422 92.5102 104.465 92.5272 104.516L93.1908 106.966C93.2164 107.06 93.1908 107.153 93.1058 107.213C91.787 108.259 90.5024 108.421 89.8217 108.421C89.5325 108.421 89.3623 108.395 89.3368 108.387H89.3453ZM92.0933 104.728C91.8296 104.601 90.7406 104.252 88.7157 105.622C89.1241 107.213 89.4048 107.774 89.5155 107.936C89.8728 107.97 91.251 108.021 92.6974 106.932L92.1018 104.728H92.0933Z" fill="#142241"/>
<path d="M86.6497 106.974C86.7007 106.974 86.7432 106.957 86.7858 106.932C87.3558 106.515 87.9684 106.319 88.598 106.336C88.649 106.336 88.6745 106.336 88.7171 106.336C88.8447 106.311 88.9212 106.183 88.8957 106.056C88.8702 105.936 88.7596 105.868 88.649 105.877C87.7046 105.843 86.973 106.226 86.5135 106.558C86.4114 106.634 86.3859 106.779 86.4625 106.889C86.505 106.949 86.5816 106.983 86.6497 106.983V106.974Z" fill="#142241"/>
<path d="M76.7305 110.148C76.688 110.029 76.7475 109.893 76.8666 109.842C78.8915 109.067 81.9798 107.868 82.2691 107.715C82.3457 107.655 82.4478 107.647 82.5328 107.698C82.6434 107.766 82.6775 107.91 82.6094 108.021C82.5584 108.106 82.5158 108.183 77.0368 110.284C77.0113 110.292 76.9772 110.301 76.9517 110.301C76.8581 110.301 76.7645 110.241 76.7305 110.148Z" fill="#142241"/>
<path d="M110.795 248.987C109.979 247.822 108.447 247.354 107.171 247.983C106.882 248.119 106.593 248.315 106.303 248.57C104.381 250.289 103.07 248.273 102.883 247.03C102.696 245.788 102.458 245.176 101.879 245.252C101.173 245.354 100.288 247.788 100.059 249.115C100.059 249.115 100.288 250.757 103.402 252.484C105.835 254.815 114.19 256.193 116.768 256.474C117.381 256.542 117.925 256.023 117.857 255.411C117.797 254.858 117.44 254.407 117.44 254.407C117.44 254.407 112.718 251.701 110.804 248.979L110.795 248.987Z" fill="#6D83A9"/>
<path d="M79.6739 202.773C79.827 202.764 79.9206 202.645 79.9121 202.518C79.5207 198.119 80.4651 195.082 80.4821 195.056C80.5247 194.929 80.4566 194.801 80.329 194.759C80.2014 194.716 80.0737 194.784 80.0312 194.912C79.9887 195.039 79.0443 198.068 79.4442 202.56C79.4527 202.679 79.5548 202.773 79.6824 202.773H79.6739Z" fill="white"/>
<path d="M110.335 197.821C110.395 197.821 110.454 197.796 110.497 197.753C112.266 196.068 114.393 195.03 115.304 194.588C115.576 194.46 115.687 194.401 115.746 194.358C115.848 194.282 115.874 194.129 115.797 194.027C115.721 193.924 115.576 193.899 115.465 193.976C115.431 194.001 115.261 194.086 115.1 194.163C114.342 194.529 112.768 195.294 111.228 196.502L112.7 193.933C112.768 193.822 112.726 193.678 112.615 193.61C112.505 193.542 112.36 193.584 112.292 193.695L110.139 197.455C110.08 197.557 110.105 197.685 110.199 197.762C110.242 197.796 110.293 197.813 110.344 197.813L110.335 197.821Z" fill="white"/>
<path d="M96.8589 183.97C96.961 183.97 97.046 183.911 97.0801 183.809C97.0886 183.775 98.1691 180.763 103.35 178.704C103.469 178.653 103.529 178.517 103.486 178.398C103.435 178.279 103.299 178.219 103.18 178.262C97.7777 180.414 96.6887 183.528 96.6377 183.655C96.5951 183.783 96.6632 183.911 96.7908 183.953C96.8163 183.953 96.8418 183.962 96.8674 183.962L96.8589 183.97Z" fill="white"/>
<path d="M54.2561 209.277L53.1602 209.335L56.2959 267.802L57.3918 267.744L54.2561 209.277Z" fill="#3C4F6D"/>
<path d="M50.1088 209.277L49.0117 209.308L50.1782 250.555L51.2753 250.524L50.1088 209.277Z" fill="#3C4F6D"/>
<path d="M50.2758 256.542C50.2758 256.542 44.6181 269.134 48.2254 279.675L40.1855 272.911C40.1855 272.911 41.0959 272.46 42.1849 268.7C43.2739 264.939 43.2909 255.887 43.2909 255.887L50.2758 256.551V256.542Z" fill="#FFB9AF"/>
<path d="M5.3808 173.387C11.8978 170.128 16.8068 169.941 19.708 170.324C21.2394 170.528 22.2773 168.546 21.8519 166.24L20.814 160.617C20.5077 158.966 19.5293 157.647 18.4318 157.409C15.6753 156.822 10.0346 156.524 2.1223 160.702C1.09285 161.246 0.590888 162.888 0.905678 164.624L1.95214 170.307C2.36902 172.587 4.01103 174.059 5.37229 173.378L5.3808 173.387Z" fill="#3C4F6D"/>
<path d="M40.127 138.241C40.127 138.241 45.1125 140.232 46.5248 145.183C47.9371 150.135 47.0864 165.108 49.2133 168.894C51.3318 172.68 52.2166 180.516 52.2166 180.516L43.6407 181.826L41.6328 168.435L40.127 138.232V138.241Z" fill="#E0F3FF"/>
<path d="M35.3548 140.563C35.3548 140.563 40.2382 140.563 44.2284 134.021C46.7978 129.801 43.7179 124.883 42.7906 121.089C41.8632 117.294 45.0452 114.827 43.82 111.033C42.5864 107.238 40.8423 103.41 34.6911 102.712C28.54 102.014 28.8463 116.469 28.8463 116.469L35.3548 140.563Z" fill="#142241"/>
<path d="M40.6114 181.563C40.6114 181.563 44.7547 180.295 44.3803 176.467C44.006 172.638 40.0158 164.411 43.3424 158.796C46.6689 153.172 40.8921 147.719 41.4111 138.726C41.4111 138.726 36.7573 136.148 33.133 135.05C29.5087 133.953 21.3752 135.501 15.0879 141.567C17.972 153.027 19.0781 169.822 16.866 176.773C14.6455 183.724 18.2613 184.6 18.2613 184.6L40.6029 181.571L40.6114 181.563Z" fill="#E0F3FF"/>
<path d="M43.8527 179.283C43.9378 179.283 44.0144 179.24 44.0569 179.164C44.5164 178.355 44.7035 177.436 44.6099 176.45C44.5078 175.395 44.1505 174.05 43.7251 172.493C42.6446 168.461 41.1558 162.939 43.538 158.915C45.4352 155.716 44.4568 152.568 43.3338 148.927C43.1721 148.416 43.0105 147.889 42.8573 147.353C42.8233 147.225 42.6872 147.157 42.5681 147.191C42.4404 147.225 42.3724 147.361 42.4064 147.48C42.5681 148.016 42.7297 148.552 42.8914 149.063C44.0314 152.747 44.9332 155.656 43.1466 158.677C40.6623 162.871 42.1767 168.503 43.2827 172.621C43.6996 174.161 44.0484 175.488 44.1505 176.501C44.2356 177.394 44.0739 178.211 43.6571 178.934C43.589 179.044 43.6315 179.189 43.7421 179.257C43.7762 179.274 43.8187 179.291 43.8613 179.291L43.8527 179.283Z" fill="#142241"/>
<path d="M37.9413 127.198C37.9413 127.198 35.3975 132.192 37.2181 136.701L35.5506 151.402L26.3281 135.101C26.3281 135.101 27.9616 131.783 26.7365 123.99L37.9498 127.206L37.9413 127.198Z" fill="#FFB9AF"/>
<path d="M39.6177 106.524C40.0941 106.975 41.8723 109.289 42.7996 111.858C43.4632 113.696 45.7518 115.21 47.0025 115.925C47.3853 116.146 47.4109 116.69 47.045 116.937C46.5856 117.252 46.0071 117.609 45.5306 117.796C44.5778 118.171 49.0954 128.916 40.0771 129.282C31.0503 129.648 25.7925 126.211 25.7925 126.211C25.7925 126.211 18.5013 117.38 22.2022 112.164C25.9031 106.949 33.994 101.189 39.6347 106.524H39.6177Z" fill="#FFB9AF"/>
<path d="M40.1272 105.698C40.5441 106.107 40.6802 113.347 35.031 116.852C31.4407 119.081 31.9937 122.331 32.9466 125.343C34.495 130.226 35.567 137.16 26.3275 139.73C17.2071 142.265 16.5435 132.285 16.7477 130.788C16.9519 129.29 15.2077 125.564 18.0834 122.91C17.675 116.98 18.0834 111.237 24.3366 106.626C30.5899 102.014 35.3032 100.985 40.1272 105.707V105.698Z" fill="#142241"/>
<path d="M13.4286 207.018L28.4619 207.197C29.5764 207.171 30.725 207.163 31.8991 207.163C42.117 207.163 50.4036 208.124 50.4036 209.307C50.4036 210.49 42.117 211.451 31.8991 211.451C21.6812 211.451 13.3945 210.49 13.3945 209.307L13.4371 207.018H13.4286Z" fill="#3C4F6D"/>
<path d="M13.3945 207.154C13.3945 208.337 21.6812 209.298 31.8991 209.298C42.117 209.298 50.4036 208.337 50.4036 207.154C50.4036 205.972 42.117 205.01 31.8991 205.01C21.6812 205.01 13.3945 205.972 13.3945 207.154Z" fill="#3C4F6D"/>
<path d="M89.3775 260.898C89.3775 260.898 94.3972 273.719 95.248 275.344C95.9711 276.731 98.9659 282.346 102.097 282.993C90.6367 281.257 88.3566 279.505 88.3566 279.505C88.3566 279.505 88.9947 278.824 88.8841 274.928C88.7735 271.031 83.6348 262.259 83.6348 262.259L89.3775 260.898Z" fill="#FFB9AF"/>
<path d="M43.6894 179.308C43.6894 179.308 35.3517 182.49 17.715 183.826C14.2778 188.93 16.3367 202.347 25.9251 206.567C38.2954 212.004 53.1671 215.441 53.1671 215.441C53.1671 215.441 41.9878 239.297 42.3792 264.616C49.5258 267.1 50.887 266.02 50.887 266.02C54.4093 247.192 59.6586 237.246 68.3791 222.477C68.3791 222.477 72.2332 247.388 85.7436 273.005L93.8856 269.627C87.8876 253.658 83.6762 232.108 80.239 208.15C80.1029 207.214 79.7541 206.312 79.2181 205.538C74.4282 198.595 58.8078 189.739 49.9256 186.565C47.3818 185.655 45.3739 183.673 44.4126 181.154L43.7064 179.291L43.6894 179.308Z" fill="#6D83A9"/>
<path d="M67.4879 224.247C67.5645 224.247 67.6326 224.212 67.6836 224.144C67.7006 224.119 69.5553 221.498 70.6699 218.027C72.1587 213.399 71.6738 209.358 69.2576 206.346C63.5148 199.174 43.598 190.453 42.7557 190.088C42.6366 190.037 42.5004 190.088 42.4494 190.207C42.3984 190.326 42.4494 190.462 42.5685 190.513C42.7727 190.607 63.2255 199.557 68.8917 206.635C74.4814 213.629 67.3688 223.77 67.2923 223.872C67.2157 223.974 67.2412 224.127 67.3433 224.204C67.3858 224.229 67.4369 224.247 67.4794 224.247H67.4879Z" fill="#142241"/>
<path d="M48.8741 181.333C48.8741 181.333 46.7301 183.545 43.7949 184.413C44.3394 181.069 44.2458 180.38 44.2458 180.38L48.8741 181.342V181.333Z" fill="#FFB9AF"/>
<path d="M29.287 178.508C29.287 178.508 36.5952 181.843 38.8157 182.32C41.0448 182.788 42.908 178.891 44.0481 178.866C44.9839 178.84 51.1436 180.627 53.2876 181.256C53.6619 181.367 53.8321 181.801 53.6364 182.133C53.5003 182.362 53.2365 182.481 52.9728 182.413C51.5945 182.082 47.3831 181.095 46.3622 181.324C45.1371 181.605 43.8949 187.059 38.6541 186.038C33.4133 185.017 27.1855 183.604 27.1855 183.604L29.287 178.508Z" fill="#FFB9AF"/>
<path d="M18.4485 138.836C18.4485 138.836 12.7483 141.78 11.3019 144.222C9.86411 146.663 3.40667 170.077 8.94527 175.292C15.0624 181.044 35.3961 188.054 35.3961 188.054C35.3961 188.054 38.1782 185.11 37.6252 181.614C20.3202 173.403 15.0879 167.491 15.0879 167.491L21.0009 147.216L18.44 138.836H18.4485Z" fill="#E0F3FF"/>
<path d="M49.4853 179.819L52.3525 181.826L52.8459 182.813C52.9821 183.077 52.8544 183.392 52.5822 183.502C52.361 183.596 52.1143 183.52 51.9781 183.324L51.4932 182.618L48.9238 181.188L49.4768 179.819H49.4853Z" fill="#FFB9AF"/>
<path d="M53.6371 179.155C53.4329 178.712 53.0926 178.364 52.5906 178.108C52.2163 177.555 51.6463 177.147 50.8805 176.9C50.2254 176.483 49.4768 176.271 48.66 176.228C48.4388 176.075 47.7582 176.007 47.0435 176.143C46.6181 176.228 46.2438 176.492 46.0311 176.875C44.9931 178.764 44.4231 181.027 44.1594 182.337C43.9977 183.154 44.5933 183.945 45.427 183.97C45.4526 183.97 45.8269 184.745 47.1456 184.634C47.7497 185.238 48.66 185.144 48.66 185.144C48.66 185.144 48.9493 185.357 49.3066 185.442C49.6469 185.527 50.0042 185.408 50.234 185.144C51.3144 183.894 52.8969 181.358 53.6031 179.938C53.7222 179.691 53.7392 179.402 53.6286 179.155H53.6371Z" fill="#FFB9AF"/>
<path d="M44.9498 184.098C45.0434 184.098 45.1284 184.047 45.1625 183.953C45.2135 183.834 45.1625 183.698 45.0434 183.647C44.5584 183.443 44.2947 182.907 44.3968 182.379C44.5499 181.622 44.8222 180.465 45.2476 179.248C45.2901 179.129 45.2305 178.993 45.1029 178.951C44.9838 178.908 44.8477 178.968 44.8051 179.095C44.3712 180.337 44.0905 181.511 43.9373 182.286C43.7842 183.026 44.1756 183.783 44.8562 184.072C44.8902 184.089 44.9157 184.089 44.9498 184.089V184.098Z" fill="#FF8376"/>
<path d="M51.6981 183.417C51.7746 183.417 51.8512 183.383 51.8937 183.315C52.2936 182.711 52.702 182.056 53.0763 181.418C53.1444 181.307 53.1019 181.163 52.9913 181.095C52.8807 181.027 52.736 181.069 52.668 181.18C52.3021 181.809 51.9023 182.456 51.5024 183.052C51.4343 183.162 51.4599 183.307 51.5705 183.375C51.613 183.4 51.6555 183.417 51.6981 183.417Z" fill="#FF8376"/>
<path d="M17.8373 158.311C17.9394 158.311 18.033 158.243 18.0671 158.141L20.0153 151.462C20.0494 151.334 19.9813 151.207 19.8537 151.173C19.7261 151.139 19.5985 151.207 19.5644 151.334L17.6161 158.013C17.5821 158.141 17.6502 158.268 17.7778 158.302C17.8033 158.302 17.8203 158.311 17.8458 158.311H17.8373Z" fill="#142241"/>
<path d="M18.1499 170.468C18.0478 170.383 18.0393 170.23 18.1244 170.137C18.2095 170.043 18.3626 170.026 18.4562 170.111C21.5361 172.808 35.8888 180.712 36.7821 180.95C36.9012 180.959 36.9863 181.061 36.9948 181.18C36.9948 181.307 36.8927 181.418 36.7651 181.418C36.0759 181.418 21.1022 173.055 18.1499 170.46V170.468Z" fill="#142241"/>
<path d="M23.29 183.554C23.3835 183.554 23.4686 183.502 23.5027 183.417C23.5537 183.298 23.5027 183.162 23.3835 183.103C23.324 183.077 17.7173 180.516 16.5603 179.904C16.4412 179.844 16.305 179.887 16.2455 180.006C16.1859 180.125 16.2285 180.261 16.3476 180.321C17.5131 180.933 22.9667 183.426 23.1964 183.528C23.2304 183.545 23.2644 183.554 23.29 183.554Z" fill="#142241"/>
<path d="M41.2583 115.389C41.6577 115.389 41.9815 115.065 41.9815 114.666C41.9815 114.266 41.6577 113.942 41.2583 113.942C40.8589 113.942 40.5352 114.266 40.5352 114.666C40.5352 115.065 40.8589 115.389 41.2583 115.389Z" fill="#142241"/>
<path d="M39.7186 115.1C39.7186 115.1 39.7782 115.1 39.8037 115.083C39.9228 115.032 39.9824 114.896 39.9398 114.776C39.7952 114.419 39.7867 114.096 39.9058 113.832C40.11 113.39 40.6034 113.202 40.612 113.202C40.7311 113.16 40.7991 113.024 40.7566 112.905C40.714 112.786 40.5779 112.718 40.4588 112.76C40.4333 112.769 39.7697 113.007 39.4804 113.636C39.3017 114.028 39.3103 114.47 39.4974 114.955C39.5315 115.049 39.625 115.108 39.7186 115.108V115.1Z" fill="#142241"/>
<path d="M43.7683 123.08C44.0236 123.08 44.2618 123.054 44.449 123.012C44.5766 122.986 44.6532 122.859 44.6276 122.731C44.6021 122.603 44.4745 122.518 44.3469 122.552C44.3299 122.552 42.6538 122.893 42.3816 121.838C42.3475 121.71 42.2199 121.633 42.0923 121.668C41.9647 121.702 41.8881 121.829 41.9221 121.957C42.1519 122.842 43.0197 123.088 43.7598 123.088L43.7683 123.08Z" fill="#FF8376"/>
<path d="M37.098 129.546C37.098 129.546 37.132 129.546 37.149 129.546C37.2766 129.546 37.3872 129.435 37.3787 129.308C37.3787 129.18 37.2766 129.07 37.1405 129.078C36.3152 129.078 35.0731 128.865 35.0561 128.865C34.9285 128.84 34.8093 128.925 34.7838 129.053C34.7583 129.18 34.8434 129.299 34.971 129.325C35.022 129.333 36.2302 129.546 37.0894 129.546H37.098Z" fill="#FF8376"/>
<path d="M31.5842 146.017C31.6948 146.017 31.7969 145.94 31.8139 145.83C31.8394 145.702 31.7543 145.574 31.6267 145.549L25.8839 144.417L26.9985 140.206C27.0325 140.078 26.9559 139.951 26.8283 139.917C26.7007 139.883 26.5731 139.959 26.539 140.087L25.3565 144.537C25.3394 144.596 25.3565 144.664 25.382 144.724C25.416 144.775 25.4756 144.817 25.5351 144.834L31.5246 146.017C31.5246 146.017 31.5587 146.017 31.5672 146.017H31.5842Z" fill="#142241"/>
<path d="M36.9878 145.957C36.8857 145.872 36.8772 145.728 36.9623 145.625C38.2555 144.077 39.6763 142.341 40.0166 141.839C39.7103 141.533 39.0637 140.682 37.5068 138.377C37.4302 138.266 37.4643 138.122 37.5664 138.053C37.677 137.977 37.8216 138.011 37.8897 138.113C38.9361 139.661 40.1357 141.346 40.3739 141.559C40.4335 141.584 40.4845 141.627 40.5101 141.678C40.5951 141.848 40.6462 141.959 37.3111 145.932C37.2686 145.991 37.2005 146.017 37.1325 146.017C37.0814 146.017 37.0219 146 36.9793 145.966L36.9878 145.957Z" fill="#142241"/>
<path d="M98.636 278.816C98.4998 277.956 97.4959 277.514 96.7898 278.016C96.7642 278.033 96.7302 278.058 96.7047 278.075C96.0751 278.594 91.4724 279.224 90.4004 277.369C90.1707 276.969 89.9665 276.706 89.7793 276.519C89.4135 276.153 88.7839 276.314 88.6478 276.816C88.4181 277.642 87.9927 279.513 88.5287 280.696C89.2348 282.253 89.49 285.026 89.49 285.026H90.6726L91.4128 281.257C91.4128 281.257 93.744 283.844 96.7387 284.66C98.6615 285.179 103.256 285.043 106.31 284.882C106.855 284.856 106.957 284.082 106.429 283.92C103.834 283.129 100.227 281.81 99.1039 280.262C98.8401 279.709 98.6955 279.224 98.636 278.816Z" fill="#FF6355"/>
<path d="M48.5498 276.527C48.7369 275.676 47.9712 274.894 47.129 275.098C47.0949 275.098 47.0609 275.115 47.0269 275.123C46.2527 275.37 41.7435 274.247 41.4287 272.137C41.3607 271.686 41.2671 271.354 41.165 271.116C40.9608 270.64 40.3142 270.563 39.9994 270.971C39.4804 271.652 38.3914 273.235 38.451 274.528C38.5276 276.229 37.7363 278.901 37.7363 278.901L38.8338 279.343L40.9183 276.119C40.9183 276.119 42.1179 279.386 44.6021 281.249C46.1931 282.448 50.5151 284.022 53.4077 285.001C53.9267 285.179 54.3011 284.499 53.8757 284.15C51.7572 282.457 48.8986 279.888 48.4307 278.033C48.3881 277.42 48.4392 276.918 48.5243 276.519L48.5498 276.527Z" fill="#FF6355"/>
<path d="M20.8818 209.288L17.7461 267.755L18.842 267.813L21.9778 209.347L20.8818 209.288Z" fill="#3C4F6D"/>
<path d="M25.0435 209.303L23.877 250.549L24.974 250.58L26.1406 209.334L25.0435 209.303Z" fill="#3C4F6D"/>
<path d="M38.7038 192.087C38.7038 192.036 38.7038 191.993 38.7038 191.942V191.628C39.6397 166.121 117.69 145.515 213.829 145.515C309.967 145.515 387.482 165.976 388.937 191.364C388.963 191.364 388.963 199.395 388.963 199.395C387.669 224.825 309.755 245.329 213.829 245.329C117.903 245.329 41.8092 225.293 38.7889 200.28C38.7293 199.753 38.6953 199.259 38.6953 198.757C38.6953 198.34 38.7208 197.923 38.7549 197.515L38.7038 192.461C38.7038 192.342 38.6953 192.215 38.6953 192.095L38.7038 192.087Z" fill="#FFECDE"/>
<path d="M277.751 200.467H254.133L268.52 216.845H293.439L277.751 200.467Z" fill="white"/>
<path d="M139.678 221.226H162.819L178.227 202.254H155.085L139.678 221.226Z" fill="white"/>
<path d="M346.639 157.477C346.809 157.451 346.894 157.332 346.869 157.205L346.724 156.311L348.043 157.06C348.153 157.128 348.298 157.086 348.366 156.975C348.434 156.864 348.391 156.72 348.281 156.652L346.537 155.665C346.46 155.622 346.358 155.622 346.281 155.673C346.205 155.724 346.171 155.818 346.188 155.903L346.418 157.281C346.435 157.4 346.537 157.477 346.647 157.477H346.639Z" fill="#142241"/>
<path d="M90.4593 157.375C93.6497 157.103 97.6229 156.311 99.0522 155.835C99.5457 155.673 100.082 155.775 100.49 156.099C101.434 156.864 103.076 158.319 103.493 159.519C103.544 159.663 103.553 159.817 103.519 159.961C103.221 161.493 102.779 162.446 102.455 162.965C102.251 163.296 101.902 163.509 101.519 163.535L99.7413 163.671C99.4351 163.696 99.1458 163.492 99.0607 163.194C98.9671 162.854 99.1543 162.505 99.4861 162.394L99.6307 162.343C98.7289 162.105 97.8186 161.688 97.0784 161.288C95.9468 161.833 95.3853 162.326 92.0077 162.99L74.2604 164.989L66.5098 155.103C66.5098 155.103 86.1884 157.724 90.4508 157.366L90.4593 157.375Z" fill="#FFB9AF"/>
<path d="M58.0591 131.375C57.455 136.445 55.2345 146.008 57.8549 159.697C58.3653 162.369 60.5689 164.385 63.2744 164.683C70.489 165.491 75.6617 165.5 82.1022 164.581C82.1022 164.581 82.0766 161.195 80.9962 156.507L69.9615 153.597V138.547L59.8712 130.626C59.1821 130.082 58.1611 130.507 58.0591 131.375Z" fill="#6D83A9"/>
<path d="M81.0682 157.077C81.0682 157.077 81.1022 157.077 81.1192 157.077C81.2468 157.052 81.3234 156.924 81.2979 156.796C81.2724 156.686 81.2469 156.575 81.2213 156.465C81.2043 156.38 81.1363 156.311 81.0512 156.286L70.1952 153.427V139.789C70.1952 139.662 70.0931 139.551 69.957 139.551C69.8208 139.551 69.7188 139.653 69.7188 139.789V153.606C69.7188 153.717 69.7868 153.81 69.8974 153.836L80.7874 156.711C80.8044 156.771 80.813 156.839 80.83 156.898C80.8555 157.009 80.9491 157.086 81.0597 157.086L81.0682 157.077Z" fill="#142241"/>
<path d="M354.382 199.165L333.878 194.103L314.727 198.706L333.716 203.538L354.382 199.165Z" fill="white"/>
<path d="M67.1473 155.478C67.2069 155.478 67.275 155.452 67.3175 155.401C67.3345 155.384 68.7979 153.87 69.9634 153.836C70.0911 153.836 70.1932 153.725 70.1932 153.597C70.1932 153.47 70.0825 153.368 69.9549 153.368L67.3175 153.393C67.1899 153.393 67.0793 153.504 67.0878 153.631C67.0878 153.759 67.1899 153.87 67.326 153.861H68.5256C67.6919 154.338 67.0197 155.035 66.9772 155.078C66.8836 155.171 66.8921 155.324 66.9772 155.41C67.0197 155.452 67.0793 155.478 67.1388 155.478H67.1473Z" fill="#142241"/>
<path d="M408.602 235.213C418.82 235.213 427.107 235.945 427.107 236.838C427.107 236.855 427.107 236.881 427.09 236.898C427.107 236.898 427.107 238.974 427.107 238.974C426.426 239.824 418.403 240.488 408.602 240.488C398.801 240.488 390.098 239.756 390.098 238.863V236.83C390.098 235.928 398.384 235.205 408.602 235.205V235.213Z" fill="#3C4F6D"/>
<path d="M375.735 152.423C376.084 152.772 382.235 157.341 382.763 168.588L391.806 161.476L383.766 144.434L375.727 152.423H375.735Z" fill="#FFB9AF"/>
<path d="M388.02 154.95C385.442 157.537 378.831 165.389 381.162 176.169C382.626 186.591 380.227 190.19 380.227 190.19C380.227 190.19 381.018 194.758 386.463 196.604C391.908 198.451 399.199 212.854 399.199 212.854L418.52 202.756C418.52 202.756 405.154 172.876 392.963 160.157C391.193 157.528 390.215 156.005 389.67 155.137C389.313 154.559 388.505 154.474 388.028 154.959L388.02 154.95Z" fill="#FF6355"/>
<path d="M357.144 221.26C357.144 221.26 351.427 253.76 345.804 263.408C343.413 266.828 338.648 266.496 338.648 266.496L343.038 270.291H348.475C348.475 270.291 347.641 270.665 351.716 263.637C355.783 256.61 366.401 238.165 367.218 229.504L357.144 221.26Z" fill="#FFB9AF"/>
<path d="M377.147 214.343C377.147 214.343 359.434 215.219 357.154 217.678C354.874 220.137 352.032 223.302 357.826 236.565C363.526 249.599 371.83 266.351 374.467 280.066C374.578 280.653 374.57 281.266 374.433 281.844C373.617 285.23 370.384 288.225 370.384 288.225L382.09 284.43C382.09 284.43 380.355 282.695 379.513 277.08C378.67 271.456 379.393 240.751 370.375 232.439C378.806 233.145 384.073 233.613 384.073 233.613L377.13 214.352L377.147 214.343Z" fill="#FFB9AF"/>
<path d="M362.471 247.328C362.471 247.328 362.53 247.328 362.564 247.311C362.684 247.26 362.735 247.124 362.684 247.005C361.858 245.125 361.05 243.304 360.267 241.543C359.476 239.765 358.736 238.089 358.03 236.472C352.261 223.285 355.06 220.265 357.315 217.84C359.391 215.602 375.139 214.684 376.977 214.59L382.566 230.108C382.609 230.227 382.745 230.295 382.864 230.253C382.983 230.21 383.051 230.074 383.009 229.955L377.36 214.267C377.325 214.173 377.232 214.105 377.13 214.114C376.407 214.148 359.297 215.024 356.975 217.525C355.869 218.716 354.499 220.188 354.218 223.055C353.903 226.28 355.009 230.729 357.604 236.668C358.31 238.276 359.051 239.96 359.842 241.738C360.625 243.5 361.433 245.32 362.25 247.2C362.292 247.286 362.377 247.345 362.462 247.345L362.471 247.328Z" fill="#FF8376"/>
<path d="M380.728 281.768C380.728 281.768 379.46 281.768 378.201 284.26C376.942 286.753 373.428 285.775 372.441 285.434C372.441 285.434 370.331 287.732 369.446 288.199C368.689 288.599 364.588 289.901 363.338 290.292C363.125 290.36 362.98 290.556 362.98 290.777C362.98 291.058 363.21 291.288 363.491 291.288H375.342C375.342 291.288 376.984 291.432 378.856 288.523C379.001 290.82 379.069 291.228 379.069 291.228L381.902 291.288L382.276 287.4C382.276 287.4 383.331 283.563 380.728 281.768Z" fill="#6D83A9"/>
<path d="M366.971 131.103C366.971 131.103 363.56 138.232 364.751 142.35C365.627 145.387 364.138 148.246 363.304 149.531C363.092 149.863 363.296 150.305 363.687 150.347L365.355 150.552C365.355 150.552 365.916 157.639 372.085 158.506C378.253 159.374 382.694 156.345 385.612 151.904L386.854 144.596L382.413 135.935L366.963 131.094L366.971 131.103Z" fill="#FFB9AF"/>
<path d="M381.886 147.165C375.114 146.757 368.606 143.175 366.428 138.13C366.428 138.13 362.259 136.046 365.883 132.149C365.883 132.149 376.705 120.672 388.939 132.583C393.891 138.998 391.271 144.06 391.271 144.06C391.271 144.06 407.384 145.115 402.994 154.048C398.604 162.981 389.118 157.426 389.365 154.346C388.437 155.044 387 154.244 385.426 153.47C383.852 152.695 383.052 150.934 383.46 149.233C383.741 148.076 383.443 147.54 381.886 147.174V147.165Z" fill="#142241"/>
<path d="M381.359 214.786C381.359 214.786 368.708 205.121 363.79 205.912C358.873 206.703 357.945 217.134 357.945 217.134L363.926 215.628C363.926 215.628 368.104 233.052 387.51 238.761C386.106 221.813 386.37 219.091 386.37 219.091L381.367 214.786H381.359Z" fill="#FFB9AF"/>
<path d="M375.453 232.831C375.521 232.831 375.589 232.797 375.64 232.737C375.725 232.635 375.7 232.49 375.598 232.405C366.562 225.25 364.18 215.67 364.155 215.568C364.138 215.509 364.104 215.458 364.044 215.424C363.993 215.39 363.925 215.381 363.865 215.398L358.684 216.7C358.556 216.734 358.48 216.862 358.514 216.989C358.548 217.117 358.676 217.193 358.803 217.159L363.763 215.909C364.189 217.432 366.928 226.135 375.308 232.771C375.351 232.805 375.402 232.822 375.453 232.822V232.831Z" fill="#FF8376"/>
<path d="M419.101 203.394C419.101 203.394 433.275 227.284 417.578 235.715C401.89 244.146 383.266 238.761 383.266 238.761C383.266 238.761 363.826 215.577 366.403 205.265C380.926 208.66 397.551 214.343 397.551 214.343L398.725 213.348L419.101 203.394Z" fill="#142241"/>
<path d="M417.823 200.833L398.034 210.812L397.549 214.343L419.661 204.04L417.823 200.833Z" fill="#142241"/>
<path d="M370.655 156.958C370.408 156.907 370.145 156.915 369.855 157.034C369.813 157.051 369.77 157.034 369.745 157.017C368.928 156.269 367.881 156.328 367.643 156.354C367.609 156.354 367.575 156.354 367.558 156.32C367.362 156.115 366.367 155.18 365.184 155.562C365.167 155.562 365.15 155.562 365.142 155.562C364.138 155.426 363.628 155.869 363.534 155.971C363.525 155.979 363.517 155.996 363.508 156.013C363.398 156.345 362.156 160.25 362.428 164.36C362.717 168.639 357.97 179.869 358.608 185.723C358.608 185.782 358.659 185.825 358.719 185.833L366.988 186.565C367.065 186.565 367.124 186.514 367.124 186.437C367.039 184.914 366.384 170.341 367.55 166.07C367.55 166.044 367.575 166.019 367.609 166.002C369.609 164.955 371.089 164.087 371.327 163.279C371.548 162.513 371.276 160.956 371.234 160.752C371.234 160.735 371.234 160.718 371.234 160.701L371.752 158.795C371.974 157.987 371.489 157.128 370.663 156.966L370.655 156.958Z" fill="#FFB9AF"/>
<path d="M397.565 174.935C397.565 174.935 382.677 197.183 363.236 196.485C355.273 195.082 357.944 186.769 357.944 186.769L368.392 185.723C368.392 185.723 384.259 170.256 387.509 162.063C394.97 167.686 397.565 174.944 397.565 174.944V174.935Z" fill="#FF6355"/>
<path d="M380.526 191.602C380.526 191.602 380.611 191.593 380.653 191.568C386.779 187.782 391.645 182.711 394.64 179.129C394.725 179.027 394.708 178.882 394.615 178.797C394.512 178.712 394.368 178.729 394.283 178.823C391.305 182.379 386.473 187.407 380.407 191.168C380.296 191.236 380.262 191.38 380.33 191.491C380.373 191.559 380.449 191.602 380.534 191.602H380.526Z" fill="#142241"/>
<path d="M357.52 190.292C357.656 190.292 357.758 190.181 357.758 190.053C357.724 188.624 358.022 187.399 358.133 186.991L365.773 186.225C365.9 186.208 365.994 186.097 365.986 185.97C365.969 185.842 365.858 185.748 365.73 185.757L357.929 186.54C357.835 186.548 357.758 186.616 357.724 186.701C357.707 186.761 357.239 188.233 357.282 190.062C357.282 190.189 357.393 190.292 357.52 190.292Z" fill="#142241"/>
<path d="M380.762 172.493C380.83 172.493 380.899 172.468 380.941 172.408C382.524 170.468 383.876 168.673 384.957 167.082C385.033 166.972 384.999 166.827 384.897 166.759C384.787 166.682 384.642 166.716 384.574 166.819C383.502 168.401 382.158 170.179 380.584 172.11C380.499 172.213 380.516 172.357 380.618 172.442C380.66 172.476 380.711 172.493 380.771 172.493H380.762Z" fill="#142241"/>
<path d="M368.562 184.132L368.383 185.723C368.383 185.723 361.883 189.985 356.847 189.407C356.498 185.136 357.51 183.749 357.51 183.749C357.51 183.749 363.763 182.788 368.562 184.132Z" fill="#FF6355"/>
<path d="M357.85 189.687C362.716 189.687 368.28 186.072 368.519 185.91C368.578 185.867 368.612 185.808 368.621 185.74L368.638 185.553C368.655 185.425 368.561 185.306 368.433 185.289C368.306 185.272 368.187 185.365 368.17 185.493V185.57C367.378 186.063 361.823 189.458 357.331 189.194C357.203 189.194 357.092 189.288 357.084 189.415C357.084 189.543 357.178 189.653 357.305 189.662C357.484 189.67 357.663 189.679 357.841 189.679L357.85 189.687Z" fill="#142241"/>
<path d="M377.181 146.025C376.832 148.127 377.7 150.032 379.129 150.262C380.558 150.492 381.996 148.986 382.345 146.876C382.694 144.775 381.826 142.869 380.397 142.639C378.967 142.401 377.529 143.915 377.181 146.025Z" fill="#FFB9AF"/>
<path d="M367.047 144.434C367.047 144.826 367.362 145.149 367.762 145.149C368.161 145.149 368.476 144.834 368.476 144.434C368.476 144.035 368.161 143.72 367.762 143.72C367.362 143.72 367.047 144.035 367.047 144.434Z" fill="#142241"/>
<path d="M369.09 153.623C370.06 153.623 370.545 152.304 370.57 152.245C370.613 152.126 370.553 151.989 370.426 151.938C370.306 151.896 370.17 151.955 370.128 152.083C370.017 152.381 369.617 153.147 369.09 153.147C368.962 153.147 368.852 153.249 368.852 153.385C368.852 153.521 368.954 153.623 369.09 153.623Z" fill="#FF8376"/>
<path d="M369.38 143.745C369.439 143.745 369.499 143.72 369.55 143.677C369.643 143.584 369.635 143.431 369.55 143.345C369.499 143.294 368.265 142.112 367.227 142.359C367.099 142.393 367.023 142.52 367.057 142.639C367.091 142.767 367.219 142.843 367.338 142.809C367.993 142.648 368.92 143.379 369.226 143.677C369.269 143.72 369.328 143.745 369.388 143.745H369.38Z" fill="#142241"/>
<path d="M381.325 146.187C381.419 146.187 381.512 146.127 381.546 146.034C382.142 144.392 381.163 143.388 381.121 143.345C381.027 143.252 380.883 143.252 380.789 143.345C380.695 143.439 380.695 143.584 380.789 143.677C380.823 143.711 381.597 144.528 381.104 145.872C381.061 145.991 381.121 146.127 381.24 146.178C381.265 146.187 381.291 146.195 381.325 146.195V146.187Z" fill="#FF8376"/>
<path d="M379.767 157.596C379.767 157.596 379.827 157.596 379.852 157.579C382.37 156.635 382.915 154.788 382.94 154.703C382.974 154.576 382.906 154.448 382.779 154.414C382.651 154.38 382.523 154.448 382.489 154.576C382.472 154.644 381.97 156.286 379.69 157.136C379.571 157.179 379.503 157.315 379.554 157.443C379.588 157.536 379.682 157.596 379.775 157.596H379.767Z" fill="#FF8376"/>
<path d="M349.386 267.619C349.386 267.619 348.348 266.896 345.88 268.198C343.413 269.499 341.107 266.683 340.495 265.832C340.495 265.832 337.449 266.496 336.454 266.36C335.611 266.249 331.502 264.948 330.26 264.548C330.047 264.48 329.818 264.556 329.681 264.743C329.52 264.973 329.571 265.296 329.809 265.458L339.499 272.29C339.499 272.29 340.759 273.353 343.966 272.06C342.758 274.017 342.579 274.391 342.579 274.391L344.859 276.076L347.403 273.115C347.403 273.115 350.475 270.588 349.386 267.628V267.619Z" fill="#6D83A9"/>
<path d="M144.249 274.984L143.152 275.015L144.312 316.261L145.409 316.23L144.249 274.984Z" fill="#3C4F6D"/>
<path d="M156.867 172.417C156.867 172.749 157.361 176.203 156.867 179.334C156.51 181.58 157.174 183.792 157.701 185.102C157.888 185.561 157.505 186.046 157.02 185.987C155.744 185.851 155.957 186.174 155.957 186.174C155.957 186.174 154.638 194.001 150.112 192.929C145.586 191.857 142.455 191.449 142.455 191.449L147.56 168.792L156.867 172.417Z" fill="#FFB9AF"/>
<path d="M138.552 315.314C138.595 315.476 137.608 326.179 142.798 327.872C135.464 328.493 135.387 328.654 135.387 328.654L133.039 327.71V311.562L138.561 315.314H138.552Z" fill="#FFB9AF"/>
<path d="M137.915 266.216C137.915 266.216 128.088 289.935 131.594 317.126C138.527 318.607 141.335 317.373 141.335 317.373C141.335 317.373 146.465 284.176 153.22 268.028L137.923 266.216H137.915Z" fill="#6D83A9"/>
<path d="M137.913 325.277C138.032 325.166 139.419 324.001 140.278 324.043C141.146 324.086 141.393 327.293 145.842 328.042C150.292 328.782 151.075 330.969 151.075 330.969H131.592C131.592 330.969 131.719 327.787 132.085 326.434C132.451 325.081 133.03 325.243 133.94 325.651C134.85 326.06 135.956 327.013 137.913 325.277Z" fill="#142241"/>
<path d="M140.279 309.623C140.279 309.623 132.12 314.812 132.622 325.277L126.607 318.36L134.596 306.5L140.279 309.631V309.623Z" fill="#FFB9AF"/>
<path d="M130.835 270.895C141.053 270.895 149.339 271.627 149.339 272.52C149.339 272.537 149.339 272.563 149.322 272.58C149.339 272.58 149.339 274.655 149.339 274.655C148.659 275.506 140.636 276.17 130.835 276.17C121.034 276.17 112.33 275.438 112.33 274.545V272.511C112.33 271.61 120.617 270.886 130.835 270.886V270.895Z" fill="#3C4F6D"/>
<path d="M115.98 252.671C115.487 253.522 109.718 265.884 117.299 270.495C124.879 275.106 135.914 273.787 135.914 273.787C135.914 273.787 140.942 273.694 147.119 273.583C151.015 273.243 149.093 274.451 149.093 274.451C149.093 274.451 134.553 300.647 131.252 310.422C133.004 313.715 137.063 314.923 137.063 314.923C137.063 314.923 157.49 302.867 170.839 268.521C172.566 262.591 156.835 253.641 148.71 255.07C140.585 256.499 115.98 252.679 115.98 252.679V252.671Z" fill="#6D83A9"/>
<path d="M137.063 315.161C137.063 315.161 137.148 315.152 137.182 315.127C137.199 315.118 139.241 313.902 142.389 311.239C142.491 311.154 142.499 311.009 142.414 310.907C142.329 310.805 142.184 310.796 142.082 310.882C139.343 313.204 137.454 314.412 137.029 314.667C136.416 314.463 133.056 313.221 131.499 310.397C134.825 300.672 149.901 273.915 150.054 273.651C150.097 273.575 150.097 273.49 150.054 273.413C150.012 273.336 149.935 273.302 149.85 273.294L135.906 273.549C135.906 273.549 135.404 273.609 134.604 273.651C134.476 273.651 134.374 273.77 134.383 273.898C134.383 274.026 134.502 274.128 134.63 274.119C135.378 274.077 135.838 274.026 135.923 274.017L149.45 273.77C147.629 277.02 134.094 301.268 131.031 310.337C131.014 310.397 131.014 310.465 131.048 310.524C132.826 313.868 136.833 315.093 137.003 315.144C137.029 315.144 137.046 315.152 137.071 315.152L137.063 315.161Z" fill="#142241"/>
<path d="M133.719 320.027C133.719 320.027 133.311 316.42 131.141 315.637C128.972 314.855 127.959 315.527 126.606 317.339C125.262 319.151 126.198 321.618 126.249 323.541C126.3 325.464 125.424 332.16 126.606 333.759C127.789 335.359 135.582 334.635 136.629 334.253C133.557 332.44 133.055 323.473 133.719 320.027Z" fill="#142241"/>
<path d="M143.002 195.039C143.002 195.039 129.653 189.356 128.096 191.168C126.53 192.98 126.53 194.46 126.53 194.46C126.53 194.46 117.742 197.183 116.755 201.462C115.768 205.742 117.631 217.721 118.618 225.514C119.605 233.316 115.326 252.203 110.816 259.673C110.927 263.629 123.561 264.837 123.561 264.837L126.199 259.35L127.96 264.837C127.96 264.837 142.125 270.223 152.675 262.2C148.285 248.468 150.259 227.275 150.812 220.903C151.365 214.53 152.675 205.742 152.675 205.742C152.675 205.742 145.809 200.799 144.984 200.637C144.159 200.475 145.077 195.881 143.01 195.039H143.002Z" fill="#FFE28F"/>
<path d="M169.903 218.325C169.903 218.325 170.176 214.59 169.299 213.714C168.423 212.837 164.416 212.999 163.038 213.161C161.668 213.322 159.686 216.343 159.686 216.343L169.903 218.317V218.325Z" fill="#FFB9AF"/>
<path d="M170.567 216.019C170.882 216.164 176.633 234.745 170.567 234.83C164.501 234.915 153.951 229.887 147.859 221.737L149.399 203.453C149.399 203.453 153.908 206.21 155.108 207.571C156.299 208.932 162.765 217.542 162.765 217.542L162.927 215.152C162.927 215.152 166.5 214.148 170.558 216.028L170.567 216.019Z" fill="#FFE28F"/>
<path d="M166.781 223.591C166.33 223.37 163.327 218.895 162.059 216.981C161.991 216.87 162.016 216.726 162.127 216.658C162.238 216.581 162.382 216.615 162.45 216.726C164.016 219.082 166.636 222.911 167.002 223.183C167.113 223.243 167.155 223.379 167.096 223.498C167.053 223.583 166.968 223.625 166.883 223.625C166.849 223.625 166.815 223.625 166.781 223.6V223.591Z" fill="#142241"/>
<path d="M159.387 173.957C159.294 174.34 156.724 176.262 154.308 175.879C152.445 178.9 153.372 189.007 156.342 193.839C151.237 197.906 134.043 200.186 123.748 189.637C128.529 182.473 129.236 172.255 130.529 168.792C131.822 165.33 135.276 157.673 145.409 159.817C155.542 161.961 161.08 166.768 159.379 173.957H159.387Z" fill="#142241"/>
<path d="M147.902 276.859C147.987 276.859 148.063 276.816 148.106 276.731C150.76 271.831 154.742 268.555 154.785 268.521C154.887 268.436 154.904 268.291 154.819 268.189C154.734 268.087 154.589 268.07 154.487 268.155C154.444 268.189 150.395 271.516 147.689 276.501C147.63 276.612 147.672 276.757 147.783 276.825C147.817 276.842 147.859 276.85 147.893 276.85L147.902 276.859Z" fill="#142241"/>
<path d="M150.471 225.012C150.531 225.012 150.59 224.987 150.641 224.944C150.735 224.85 150.726 224.697 150.641 224.612C149.314 223.328 144.848 219.661 144.652 219.499C144.55 219.414 144.405 219.431 144.32 219.533C144.235 219.635 144.252 219.78 144.354 219.865C144.397 219.899 148.999 223.676 150.31 224.953C150.352 224.995 150.412 225.021 150.471 225.021V225.012Z" fill="#142241"/>
<path d="M140.755 200.544C141.044 200.544 141.215 200.544 141.223 200.544C141.351 200.544 141.453 200.424 141.444 200.297C141.444 200.169 141.325 200.067 141.198 200.076C141.113 200.076 132.264 200.459 127.517 195.277C127.432 195.184 127.279 195.175 127.185 195.26C127.092 195.345 127.083 195.498 127.168 195.592C131.422 200.237 138.815 200.552 140.747 200.552L140.755 200.544Z" fill="#142241"/>
<path d="M148.44 274.95L147.344 275.009L150.48 333.484L151.576 333.425L148.44 274.95Z" fill="#3C4F6D"/>
<path d="M113.019 333.495L116.159 274.953L116.142 274.885C114.534 266.624 117.188 235.187 117.214 234.873L116.116 234.779C116.006 236.072 113.436 266.522 115.053 275.03L111.922 333.436L113.019 333.495Z" fill="#3C4F6D"/>
<path d="M119.213 274.989L118.047 316.236L119.144 316.267L120.31 275.02L119.213 274.989Z" fill="#3C4F6D"/>
<path d="M233.13 272.99L232.033 273.021L233.2 314.268L234.297 314.237L233.13 272.99Z" fill="#3C4F6D"/>
<path d="M208.083 273.012L206.916 314.259L208.013 314.29L209.18 273.043L208.083 273.012Z" fill="#3C4F6D"/>
<path d="M227.57 181.758C227.485 182.09 226.898 189.466 228.659 196.205C215.727 195.447 213.881 195.66 213.881 195.66C213.881 195.66 214.638 183.936 214.885 182.005C215.14 180.074 227.561 181.75 227.561 181.75L227.57 181.758Z" fill="#FFB9AF"/>
<path d="M241.854 313.859C241.854 313.859 240.17 322.512 240.672 327.463L234.461 326.536L235.303 313.519L241.863 313.851L241.854 313.859Z" fill="#FFB9AF"/>
<path d="M237.985 252.629C237.985 252.629 250.245 259.511 252.091 264.386C253.937 269.253 248.058 306.373 242.851 324.511C236.641 324.511 233.28 323.669 233.28 323.669L236.3 273.617L231.264 269.755L237.985 252.62V252.629Z" fill="#142241"/>
<path d="M242.969 330.654C242.969 330.654 242.748 323.32 238.715 323.21C234.683 323.099 234.181 324.333 233.228 325.949C232.275 327.566 231.994 330.654 231.994 330.654H242.969Z" fill="#142241"/>
<path d="M200.866 313.859C200.866 313.859 202.55 322.512 202.049 327.463L208.259 326.536L207.417 313.519L200.857 313.851L200.866 313.859Z" fill="#FFB9AF"/>
<path d="M204.736 252.629C204.736 252.629 192.476 259.511 190.63 264.386C188.784 269.253 194.663 306.373 199.87 324.511C206.08 324.511 209.441 323.669 209.441 323.669L206.421 273.617L211.457 269.755L204.736 252.62V252.629Z" fill="#142241"/>
<path d="M199.752 330.654C199.752 330.654 199.973 323.32 204.006 323.21C208.039 323.099 208.541 324.333 209.493 325.949C210.446 327.566 210.727 330.654 210.727 330.654H199.752Z" fill="#142241"/>
<path d="M221.147 268.061C231.365 268.061 239.652 268.793 239.652 269.686C239.652 269.703 239.652 269.729 239.635 269.746C239.652 269.746 239.652 271.822 239.652 271.822C238.971 272.673 230.948 273.336 221.147 273.336C211.346 273.336 202.643 272.605 202.643 271.711V269.678C202.643 268.776 210.929 268.053 221.147 268.053V268.061Z" fill="#3C4F6D"/>
<path d="M240.504 246.75C241.006 248.094 249.071 272.443 222.867 271.771C196.671 271.099 198.458 264.718 199.743 252.629L221.012 246.248L240.495 246.75H240.504Z" fill="#142241"/>
<path d="M238.036 195.669C238.036 195.669 245.097 195.277 247.275 201.973C249.045 207.409 262.589 237.187 251.002 237.357C239.414 237.527 237.814 236.268 237.814 236.268L238.036 195.677V195.669Z" fill="#6D83A9"/>
<path d="M207.391 194.384C207.391 194.384 200.202 195.703 197.011 199.956C193.821 204.21 186.742 228.951 190.281 235.34C193.821 241.721 207.391 236.013 207.391 236.013V194.392V194.384Z" fill="#6D83A9"/>
<path d="M244.376 258.201C244.376 258.201 229.07 270.035 197.787 258.124C198.017 245.363 203.845 195.473 203.845 195.473L212.574 192.784C212.574 192.784 212.71 189.73 217.67 189.483C221.184 189.305 225.54 190.521 227.777 191.244C228.696 191.542 229.385 192.291 229.615 193.227L229.845 194.188L241.015 196.204C241.015 196.204 245.346 254.228 244.376 258.201Z" fill="#6D83A9"/>
<path d="M228.728 176.041C228.251 178.057 228.855 179.921 230.063 180.21C231.271 180.491 232.641 179.087 233.109 177.071C233.577 175.054 232.981 173.191 231.773 172.902C230.565 172.621 229.195 174.025 228.728 176.041Z" fill="#FFB9AF"/>
<path d="M207.815 177.13C208.156 179.172 209.432 180.661 210.657 180.457C211.882 180.252 212.597 178.423 212.256 176.381C211.916 174.34 210.64 172.851 209.415 173.055C208.19 173.259 207.475 175.088 207.815 177.13Z" fill="#FFB9AF"/>
<path d="M214.246 160.94C215.786 158.404 218.653 156.796 221.605 156.507C224.557 156.226 227.569 157.188 229.985 158.915C230.666 159.4 231.44 160.114 232.18 160.889C233.593 162.377 234.163 164.487 233.712 166.487C232.257 172.919 230.598 178.934 228.386 185.272C228.071 186.165 227.365 187.263 226.472 186.94C222.856 187.824 219.248 187.986 215.556 187.527C214.586 187.407 213.472 186.565 213.106 185.655C211.642 181.997 209.413 178.687 208.324 174.892C207.303 171.353 207.014 167.499 208.044 163.985C208.307 163.084 209.192 161.978 210.034 161.552C211.447 160.846 212.68 160.948 214.254 160.931L214.246 160.94Z" fill="#142241"/>
<path d="M242.068 236.583C242.195 236.583 242.306 236.48 242.306 236.353L242.57 211.748C242.57 211.621 242.467 211.51 242.34 211.51C242.212 211.51 242.102 211.612 242.102 211.74L241.838 236.344C241.838 236.472 241.94 236.583 242.068 236.583Z" fill="#142241"/>
<path d="M200.865 237.595C200.993 237.595 201.103 237.493 201.103 237.357C201.095 228.67 201.078 212.148 201.103 211.757L200.865 211.731L200.755 211.527C200.669 211.572 200.627 212.009 200.627 212.837C200.627 213.543 200.627 214.539 200.627 215.738C200.627 218.138 200.627 221.345 200.627 224.544C200.627 230.95 200.635 237.348 200.635 237.348C200.635 237.476 200.738 237.587 200.874 237.587L200.865 237.595Z" fill="#142241"/>
<path d="M237.278 272.993L236.182 273.052L239.317 331.519L240.413 331.46L237.278 272.993Z" fill="#3C4F6D"/>
<path d="M203.923 273.002L200.787 331.469L201.883 331.528L205.019 273.061L203.923 273.002Z" fill="#3C4F6D"/>
<path d="M369.329 298.724C369.329 298.724 373.021 308.048 369.618 310.975C375.361 312.438 374.952 312.438 375.361 312.438C375.769 312.438 378.585 311.205 378.585 311.205L374.893 297.133L369.32 298.715L369.329 298.724Z" fill="#FFB9AF"/>
<path d="M378.799 309.674C378.637 308.95 377.871 308.499 377.182 308.772C377.012 308.84 376.842 308.942 376.689 309.095C375.94 309.844 375.064 310.984 373.651 310.414C372.248 309.844 371.363 308.219 370.708 308.304C370.053 308.389 369.568 309.716 368.555 310.567C367.543 311.426 364.582 313.442 361.766 313.681C360.064 314.676 360.064 316.965 360.064 316.965H379.828C379.828 316.965 379.726 313.936 378.799 309.674Z" fill="#996053"/>
<path d="M352.813 299.549C352.813 299.549 356.506 308.874 353.102 311.8C358.845 313.264 358.437 313.264 358.845 313.264C359.254 313.264 362.07 312.03 362.07 312.03L358.377 297.958L352.805 299.54L352.813 299.549Z" fill="#FFB9AF"/>
<path d="M362.275 310.49C362.114 309.767 361.348 309.316 360.659 309.588C360.489 309.656 360.318 309.758 360.165 309.912C359.417 310.66 358.54 311.8 357.128 311.23C355.724 310.66 354.839 309.035 354.184 309.12C353.521 309.205 353.044 310.533 352.032 311.383C351.019 312.243 348.059 314.259 345.243 314.497C343.541 315.493 343.541 317.781 343.541 317.781H363.305C363.305 317.781 363.203 314.753 362.275 310.49Z" fill="#996053"/>
<path d="M361.026 174.059C361.026 174.059 361.996 183.383 365.688 188.394L352.586 189.186C352.586 189.186 352.408 181.971 351.004 176.347L361.035 174.059H361.026Z" fill="#FFB9AF"/>
<path d="M363.03 265.633L361.863 306.88L362.96 306.911L364.127 265.664L363.03 265.633Z" fill="#3C4F6D"/>
<path d="M372.146 262.064C372.146 262.064 378.348 291.135 379.054 305.794C374.009 308.142 370.725 307.317 370.725 307.317L356.312 262.064H372.146Z" fill="#142241"/>
<path d="M377.454 262.991C387.672 262.991 395.958 263.723 395.958 264.616C395.958 264.633 395.958 264.658 395.941 264.675C395.958 264.675 395.958 266.751 395.958 266.751C395.278 267.602 387.255 268.266 377.454 268.266C367.653 268.266 358.949 267.534 358.949 266.641V264.607C358.949 263.706 367.236 262.982 377.454 262.982V262.991Z" fill="#3C4F6D"/>
<path d="M388.642 243.627C388.642 243.627 392.692 258.695 388.642 262.064C384.593 265.433 371.576 269.661 353.463 263.85C359.843 292.853 362.472 304.79 362.472 304.79C362.472 304.79 357.912 308.091 352.816 306.509C338.744 263.238 333.231 255.589 334.822 251.718C336.413 247.847 341.152 245.21 358.04 247.847C385.656 245.031 388.651 243.627 388.651 243.627H388.642Z" fill="#142241"/>
<path d="M372.734 266.93C372.861 266.93 372.972 266.828 372.972 266.692C372.972 266.564 372.87 266.454 372.734 266.454C368.429 266.445 357.751 265.433 353.548 263.629C353.429 263.578 353.293 263.629 353.242 263.757C353.191 263.876 353.242 264.012 353.37 264.063C357.624 265.892 368.395 266.913 372.734 266.922V266.93Z" fill="white"/>
<path d="M367.006 186.727C367.006 186.727 362.957 183.205 358.916 183.562C354.866 183.911 351.531 188.837 351.531 188.837L345.371 192.181L348.536 212.676C348.536 212.676 358.26 236.472 355.155 247.439C362.251 256.295 386.353 261.222 394.444 253.309C385.298 227.803 377.905 192.972 375.004 190.249C372.103 187.527 366.998 186.727 366.998 186.727H367.006Z" fill="#6D83A9"/>
<path d="M326.61 219.252C326.491 219.448 325.742 221.192 323.436 221.694C321.139 222.204 320.22 222.204 320.22 222.204L318.553 220.367L322.585 217.415L326.618 219.252H326.61Z" fill="#FFB9AF"/>
<path d="M336.829 215.892C336.829 215.892 329.376 216.326 327.198 215.602C325.846 215.152 323.787 215.041 322.417 215.015C321.532 214.998 320.69 215.381 320.12 216.053C319.022 217.338 317.236 219.431 316.844 219.958C316.266 220.733 317.763 223.004 318.104 223.2C318.333 223.336 319.992 223.285 320.996 223.243C321.439 223.225 321.787 222.868 321.804 222.426C321.821 222.009 321.532 221.652 321.124 221.566L320.622 221.464L322.8 219.38C322.8 219.38 324.638 220.103 325.752 220.103C326.867 220.103 336.251 222.043 336.251 222.043L336.829 215.9V215.892Z" fill="#FFB9AF"/>
<path d="M356.218 200.356C356.218 200.356 350.161 224.604 339.611 225.131C329.053 225.659 325.318 223.047 325.318 223.047C324.45 222.936 324.314 216.411 325.318 214.777C336.361 213.978 334.991 214.08 334.651 214.105C334.626 214.105 334.6 214.08 334.609 214.054C334.906 212.863 340.071 192.75 347.719 190.904L356.218 200.356Z" fill="#6D83A9"/>
<path d="M342.581 166.64C342.581 166.64 341.288 169.95 340.386 171.422C340.182 171.753 340.327 172.196 340.692 172.332C341.773 172.749 343.177 172.502 343.177 172.502L342.573 166.64H342.581Z" fill="#FFB9AF"/>
<path d="M342.037 160.199C342.037 160.199 341.296 177.666 344.172 181.35C347.039 185.042 357.317 182.745 357.317 182.745L357.7 166.427L350.893 158.226L342.037 160.191V160.199Z" fill="#FFB9AF"/>
<path d="M363.808 181.52C363.808 181.52 359.418 185.008 351.753 182.584C350.97 177.955 349.166 173.684 349.166 173.684C349.166 173.684 345.967 172.213 345.601 171.634C345.236 171.064 345.27 164.87 345.601 163.398C342.811 162.131 340.531 160.88 340.531 160.88C340.531 160.88 339.135 161.127 338.54 160.276C337.936 159.425 341.577 151.232 347.201 153.249C354.688 150.841 363.213 149.692 366.139 158.438C369.177 167.184 363.544 172.162 363.434 175.769C363.323 179.376 363.8 181.512 363.8 181.512L363.808 181.52Z" fill="#142241"/>
<path d="M348.697 175.514C349.923 175.514 350.918 173.861 350.918 171.821C350.918 169.782 349.923 168.129 348.697 168.129C347.471 168.129 346.477 169.782 346.477 171.821C346.477 173.861 347.471 175.514 348.697 175.514Z" fill="#FFB9AF"/>
<path d="M353.461 264.097C353.564 264.097 353.657 264.029 353.691 263.927C353.725 263.799 353.649 263.672 353.53 263.638L349.829 262.617C349.701 262.583 349.573 262.659 349.539 262.778C349.505 262.906 349.582 263.034 349.701 263.068L353.402 264.089C353.402 264.089 353.444 264.089 353.461 264.089V264.097Z" fill="white"/>
<path d="M350.032 216.377C350.109 216.377 350.177 216.342 350.228 216.274C351.385 214.615 353.206 208.966 353.282 208.728C353.325 208.609 353.257 208.481 353.138 208.43C353.019 208.388 352.883 208.447 352.84 208.566L349.811 216.053C349.769 216.164 349.811 216.291 349.913 216.351C349.947 216.368 349.99 216.377 350.024 216.377H350.032Z" fill="#142241"/>
<path d="M353.504 189.058C353.504 189.058 353.564 189.058 353.598 189.041C359.715 186.429 365.594 187.229 365.654 187.238C365.781 187.255 365.9 187.169 365.917 187.033C365.934 186.906 365.849 186.787 365.722 186.77C365.662 186.761 359.656 185.944 353.419 188.607C353.3 188.658 353.241 188.794 353.292 188.914C353.326 189.007 353.419 189.058 353.504 189.058Z" fill="#142241"/>
<path d="M363.307 317.195C363.307 317.195 363.341 317.195 363.358 317.195C363.486 317.169 363.562 317.041 363.537 316.914C363.469 316.616 363.205 314.481 363.103 313.681C363.086 313.553 362.967 313.46 362.839 313.477C362.711 313.494 362.618 313.613 362.635 313.74C362.652 313.859 362.992 316.642 363.077 317.024C363.103 317.135 363.196 317.212 363.307 317.212V317.195Z" fill="#142241"/>
<path d="M350.169 172.51C350.271 172.51 350.364 172.442 350.398 172.34C350.96 170.298 349.633 168.945 349.582 168.894C349.488 168.801 349.343 168.801 349.25 168.894C349.156 168.988 349.156 169.133 349.25 169.226C349.301 169.277 350.432 170.434 349.947 172.212C349.913 172.34 349.99 172.468 350.109 172.502C350.126 172.502 350.152 172.502 350.169 172.502V172.51Z" fill="#FF8376"/>
<path d="M392.242 265.59L391.146 265.649L394.283 324.124L395.379 324.065L392.242 265.59Z" fill="#3C4F6D"/>
<path d="M388.058 265.645L386.961 265.676L388.12 306.922L389.217 306.892L388.058 265.645Z" fill="#3C4F6D"/>
<path d="M358.873 265.623L355.736 324.098L356.832 324.157L359.968 265.682L358.873 265.623Z" fill="#3C4F6D"/>
<path d="M293.815 275.56L292.648 316.806L293.746 316.837L294.912 275.591L293.815 275.56Z" fill="#3C4F6D"/>
<path d="M288.139 187.391C288.309 187.45 292.044 191.815 292.563 200.144L303.07 197.847L298.476 183.205L288.139 187.399V187.391Z" fill="#FFB9AF"/>
<path d="M291.475 272.111C291.475 272.111 300.561 285.681 303.292 296.691C306.882 311.171 313.417 319.262 313.417 319.262L311.307 323.269L306.985 326.349C306.985 326.349 308.354 323.694 305.93 318.939C300.97 309.231 282.678 280.407 282.678 280.407L287.782 269.568L291.475 272.103V272.111Z" fill="#FFB9AF"/>
<path d="M304.61 272.639C314.828 272.639 323.115 273.371 323.115 274.264C323.115 274.281 323.115 274.307 323.097 274.324C323.115 274.324 323.115 276.4 323.115 276.4C322.434 277.25 314.411 277.914 304.61 277.914C294.809 277.914 286.105 277.182 286.105 276.289V274.256C286.105 273.354 294.392 272.631 304.61 272.631V272.639Z" fill="#3C4F6D"/>
<path d="M285.987 260.192C285.987 260.192 276.067 262.302 274.697 265.467C273.327 268.632 279.13 283.189 281.24 288.676C283.35 294.164 287.569 312.626 288.31 317.263C289.05 321.908 284.83 325.6 284.83 325.6L290.207 327.812L294.529 324.333C294.529 324.333 294.214 317.901 294.529 308.823C294.844 299.754 292.419 283.087 288.829 277.174L289.458 268.419L285.978 260.192H285.987Z" fill="#FFB9AF"/>
<path d="M294.213 300.383C294.366 300.374 294.46 300.255 294.451 300.128C293.719 291.909 291.78 281.632 289.074 277.114L289.134 276.314C289.142 276.187 289.049 276.068 288.912 276.059C288.776 276.051 288.666 276.144 288.657 276.28L288.598 277.157C288.598 277.208 288.598 277.25 288.632 277.293C291.312 281.708 293.251 291.96 293.983 300.162C293.992 300.281 294.094 300.374 294.221 300.374L294.213 300.383Z" fill="#FF8376"/>
<path d="M296.375 330.024C296.375 330.024 296.477 322.478 293.261 322.691C290.045 322.903 289.73 325.541 288.726 325.277C287.722 325.013 286.88 322.691 286.301 323.065C285.723 323.431 284.242 325.915 283.451 326.596C282.66 327.285 279.759 327.753 278.653 329.284L278.074 330.024H296.375Z" fill="#FF6355"/>
<path d="M321.097 254.015C321.786 255.743 327.189 268.836 320.178 273.66C313.168 278.484 300.355 272.648 289.167 275.038C288.835 275.293 281.374 267.041 281.714 261.162C289.746 256.551 292.962 251.727 292.962 251.727L321.106 254.024L321.097 254.015Z" fill="#6D83A9"/>
<path d="M313.78 318.317C313.78 318.317 311.883 317.16 310.513 318.317C309.143 319.475 309.934 321.27 309.773 322.061C309.611 322.852 308.539 324.647 307.365 324.009C306.08 327.174 305.238 328.544 305.238 328.544L303.902 329.276C303.587 329.454 303.724 329.931 304.089 329.905L309.092 329.556C311.483 329.386 313.525 327.787 314.265 325.507L315.167 322.716C315.396 322.001 315.362 321.227 315.048 320.538C314.656 319.679 314.12 318.573 313.771 318.309L313.78 318.317Z" fill="#FF6355"/>
<path d="M306.227 197.991C306.227 197.991 303.725 193.423 298.476 194.027C293.218 194.631 291.236 198.68 291.236 198.68C291.236 198.68 284.685 200.059 283.136 202.041C281.588 204.023 282.013 215.22 285.034 220.478C285.034 220.478 284.004 226.935 290.028 234.345C296.06 241.756 288.82 255.019 288.82 255.019C288.82 255.019 313.884 264.497 323.106 255.368C318.112 240.981 317.593 235.553 317.678 226.858C317.746 220.001 318.861 210.2 316.921 203.87C316.155 201.377 314.054 199.523 311.493 199.021C309.451 198.621 307.018 198.144 306.218 198L306.227 197.991Z" fill="#E0F3FF"/>
<path d="M275.7 226.654C275.7 226.654 274.118 224.323 272.425 223.889C271.94 224.323 272.11 225.157 272.11 225.157C272.11 225.157 269.847 225.472 268.971 226.476C268.383 227.139 267.422 228.577 266.852 229.743C266.512 230.44 266.971 231.265 267.745 231.342C269.183 231.478 270.502 231.444 270.502 231.444L275.7 226.654Z" fill="#FFB9AF"/>
<path d="M289.517 216.938C289.431 217.797 287.322 233.75 280.26 234.779C273.199 235.817 269.098 231.844 269.098 231.844C269.098 231.844 267.975 227.879 272.458 226.161L275.13 225.991C275.13 225.991 279.435 204.968 280.728 203.419C282.021 201.871 285.509 200.467 285.509 200.467L289.508 216.938H289.517Z" fill="#E0F3FF"/>
<path d="M286.81 227.905C286.887 227.905 286.963 227.862 287.014 227.794C288.052 226.093 288.622 223.566 289.082 221.533C289.311 220.495 289.516 219.601 289.745 218.946C289.788 218.827 289.72 218.691 289.601 218.648C289.482 218.606 289.345 218.674 289.303 218.793C289.073 219.465 288.869 220.376 288.631 221.431C288.18 223.43 287.618 225.923 286.623 227.556C286.555 227.667 286.589 227.811 286.699 227.879C286.742 227.905 286.776 227.913 286.819 227.913L286.81 227.905Z" fill="#142241"/>
<path d="M279.604 171.889C279.604 171.889 281.331 188.429 286.495 190.751C291.668 193.074 296.747 189.203 296.747 189.203L293.905 176.969L279.604 171.889Z" fill="#FFB9AF"/>
<path d="M280.898 165.423C281.204 165.372 284.259 159.74 292.528 160.514C305.282 162.931 309.587 180.635 304.592 187.306C299.598 193.976 292.443 191.185 291.244 189.458C290.036 187.731 286.071 187.101 285.212 183.196C284.352 179.291 283.144 177.139 281.417 177.224C279.699 177.309 277.801 172.74 277.886 171.881C277.971 171.022 274.96 166.453 280.898 165.423Z" fill="#142241"/>
<path d="M282.879 183.128C283.254 185.255 284.453 186.812 285.568 186.617C286.682 186.421 287.27 184.541 286.895 182.414C286.521 180.287 285.321 178.73 284.207 178.926C283.101 179.121 282.505 181.001 282.879 183.128Z" fill="#FFB9AF"/>
<path d="M298.475 167.406C298.475 167.406 293.71 167.635 295.259 172.808C296.577 173.727 296.518 171.889 298.475 173.149C300.423 174.416 304.388 176.994 300.372 183.834L296.348 190.666C296.348 190.666 290.452 203.249 304.243 209.792C302.78 204.109 307.255 198.102 308.897 191.67C310.539 185.238 311.194 174.893 305.281 170.511C301.444 167.669 298.475 167.406 298.475 167.406Z" fill="#142241"/>
<path d="M296.136 191.423C296.23 191.423 296.323 191.364 296.357 191.27C296.468 190.989 296.544 190.811 296.561 190.768L300.577 183.945C304.72 176.9 300.594 174.229 298.603 172.944C297.429 172.187 296.876 172.459 296.425 172.681C296.102 172.842 295.906 172.936 295.464 172.655C295.021 171.132 295.107 169.924 295.719 169.056C296.595 167.814 298.288 167.661 298.467 167.644C298.68 167.669 300.968 167.967 303.989 169.907C304.099 169.975 304.244 169.95 304.312 169.839C304.38 169.728 304.355 169.584 304.244 169.516C300.977 167.414 298.586 167.185 298.493 167.176C298.374 167.176 296.391 167.295 295.336 168.784C294.622 169.796 294.52 171.166 295.03 172.876C295.047 172.927 295.081 172.97 295.124 173.004C295.838 173.506 296.264 173.293 296.629 173.114C297.021 172.919 297.395 172.74 298.348 173.353C299.301 173.965 300.739 174.901 301.445 176.501C302.287 178.415 301.862 180.84 300.169 183.715L296.144 190.547C296.144 190.547 296.042 190.768 295.915 191.109C295.872 191.228 295.932 191.364 296.051 191.415C296.076 191.423 296.11 191.432 296.136 191.432V191.423Z" fill="white"/>
<path d="M275.7 227.718C275.7 227.718 275.768 227.718 275.802 227.692C275.912 227.633 275.963 227.497 275.912 227.378C275.895 227.335 275.861 227.173 275.827 227.046C275.606 226.127 275.495 225.812 275.257 225.736C275.155 225.702 275.044 225.736 274.968 225.812C274.713 226.059 274.347 226.723 274.304 226.791C274.245 226.901 274.287 227.046 274.398 227.114C274.508 227.173 274.653 227.131 274.721 227.02C274.798 226.876 274.993 226.552 275.155 226.323C275.24 226.561 275.334 226.952 275.376 227.148C275.436 227.403 275.461 227.514 275.495 227.582C275.538 227.667 275.623 227.709 275.708 227.709L275.7 227.718Z" fill="#142241"/>
<path d="M319.864 275.543L318.768 275.602L321.904 334.077L323 334.018L319.864 275.543Z" fill="#3C4F6D"/>
<path d="M315.72 275.53L314.623 275.561L315.79 316.808L316.887 316.776L315.72 275.53Z" fill="#3C4F6D"/>
<path d="M289.65 275.542L286.514 334.017L287.61 334.076L290.746 275.601L289.65 275.542Z" fill="#3C4F6D"/>
<path d="M61.7065 263.381L60.6094 263.412L61.7687 304.658L62.8658 304.627L61.7065 263.381Z" fill="#3C4F6D"/>
<path d="M66.7166 303.616C66.4613 303.786 64.2408 308.704 63.8409 310.89C63.5006 312.771 63.6112 314.276 66.7166 315.893L58.8723 316.659L55.6309 314.353L59.7231 300.621L66.7166 303.608V303.616Z" fill="#FFB9AF"/>
<path d="M60.7189 313.987C60.7189 313.987 57.7667 310.95 56.3459 311.962C54.9251 312.975 54.6103 315.416 54.5677 316.667C54.5252 317.918 54.5677 319.398 54.5677 319.398H74.0251C74.0251 319.398 74.2548 318.547 71.7535 317.348C69.2522 316.157 66.3766 315.382 65.696 314.591C65.0153 313.791 64.3602 315.127 63.4499 315.331C62.5396 315.527 60.7189 313.996 60.7189 313.996V313.987Z" fill="#996053"/>
<path d="M84.4802 304.977C84.225 305.148 82.0044 310.065 81.6046 312.252C81.2643 314.132 81.3749 315.638 84.4802 317.254L76.636 318.02L73.3945 315.714L77.4868 301.983L84.4802 304.969V304.977Z" fill="#FFB9AF"/>
<path d="M78.4826 315.357C78.4826 315.357 75.5303 312.319 74.1095 313.332C72.6887 314.344 72.3739 316.786 72.3314 318.037C72.2889 319.287 72.3314 320.768 72.3314 320.768H91.7888C91.7888 320.768 92.0185 319.917 89.5172 318.717C87.0159 317.526 84.1403 316.752 83.4596 315.961C82.779 315.17 82.1239 316.497 81.2136 316.701C80.3032 316.897 78.4826 315.365 78.4826 315.365V315.357Z" fill="#996053"/>
<path d="M59.372 169.048C59.1423 169.499 55.62 178.942 56.641 182.584C44.696 180.193 43.5645 180.874 43.5645 180.874C43.5645 180.874 45.2745 174.85 45.6148 170.639L59.372 169.048Z" fill="#FFB9AF"/>
<path d="M68.6972 157.452C68.6972 157.452 68.4675 163.365 68.6972 166.206C68.9269 169.048 69.0375 180.193 61.874 179.853C54.7104 179.512 49.8184 174.391 49.8184 174.391V154.261L68.6972 157.443V157.452Z" fill="#FFB9AF"/>
<path d="M69.0387 257.47C69.0387 257.98 60.08 292.437 58.7188 301.481C64.7763 304.552 68.188 303.786 68.188 303.786L85.9268 257.47H69.0387Z" fill="#142241"/>
<path d="M52.8991 259.435C63.117 259.435 71.4036 260.167 71.4036 261.06C71.4036 261.077 71.4036 261.103 71.3866 261.12C71.4036 261.12 71.4036 263.195 71.4036 263.195C70.723 264.046 62.7001 264.71 52.8991 264.71C43.098 264.71 34.3945 263.978 34.3945 263.085V261.052C34.3945 260.15 42.6812 259.427 52.8991 259.427V259.435Z" fill="#3C4F6D"/>
<path d="M37.9936 239.39C37.9936 239.39 33.0506 253.888 41.5754 258.159C50.1088 262.421 62.3856 261.06 62.3856 261.06L84.6165 265.042L74.4922 305.071C74.4922 305.071 76.2023 308.482 85.4077 307.632C94.6217 284.431 101.556 263.34 99.854 256.057C98.2205 249.106 73.786 246.486 69.1067 244.112C64.4274 241.739 63.917 235.877 63.917 235.877L37.9851 239.39H37.9936Z" fill="#142241"/>
<path d="M82.7878 264.94C82.8984 264.94 83.0005 264.863 83.0175 264.744C83.043 264.616 82.9579 264.497 82.8303 264.472L68.1713 261.851C68.0437 261.826 67.9246 261.911 67.8991 262.038C67.8735 262.166 67.9586 262.285 68.0862 262.311L82.7452 264.931C82.7452 264.931 82.7707 264.931 82.7878 264.931V264.94Z" fill="white"/>
<path d="M57.9531 181.988C57.9531 181.988 58.2934 180.72 57.1023 179.861C55.9112 179.002 47.2077 173.71 42.9453 177.377C40.6397 179.683 40.6397 180.789 40.6397 180.789C40.6397 180.789 36.8877 182.32 35.4329 184.37C33.9866 186.421 33.3315 195.66 34.0121 211.808C34.6927 227.956 33.2124 239.331 36.4028 242.172C39.5847 245.014 60.0545 244.784 65.7463 241.032C69.4982 230.227 63.5853 213.169 63.5853 205.665C63.5853 198.162 63.815 186.387 62.7345 184.966C61.654 183.545 57.9616 181.98 57.9616 181.98L57.9531 181.988Z" fill="#FF6355"/>
<path d="M73.0374 151.922C73.4968 154.576 73.0544 159.528 66.9883 159.808C66.7331 163.475 66.648 168.597 63.6617 168.248C60.7606 167.908 58.1997 169.779 56.5832 174.646C54.9668 179.504 48.9092 177.377 47.5394 177.292C46.1782 177.207 44.2979 177.207 44.2129 174.306C44.1278 171.404 43.8725 163.815 43.0218 159.553C42.171 155.291 40.9714 149.573 48.4838 149.148C56.9236 146.077 62.3771 146.247 66.9883 150.169C68.8941 151.224 70.5105 151.156 71.5145 150.918C72.2121 150.756 72.9183 151.207 73.0374 151.922Z" fill="#142241"/>
<path d="M60.9395 167.355C60.9395 169.677 61.9604 171.566 63.211 171.566C64.4617 171.566 65.4826 169.686 65.4826 167.355C65.4826 165.024 64.4617 163.143 63.211 163.143C61.9604 163.143 60.9395 165.024 60.9395 167.355Z" fill="#FFB9AF"/>
<path d="M81.5716 218.895C81.8268 218.98 95.8987 209.511 98.1193 208.49C100.34 207.469 102.552 207.384 104.517 205.589L107.759 205.419L109.511 205.691C110.124 205.785 110.677 205.206 110.464 204.619C110.396 204.432 110.26 204.253 110.013 204.1C109.758 203.377 109.333 202.569 107.835 202.611C107.112 202.016 106.04 201.846 104.977 202.143C103.828 201.675 103.054 201.999 103.054 201.999C103.054 201.999 97.7109 203.377 96.4602 203.836C95.2096 204.287 78.832 211.91 78.832 211.91L81.563 218.904L81.5716 218.895Z" fill="#FFB9AF"/>
<path d="M95.6502 211.238C95.48 211.238 94.8504 206.746 91.8387 205.044L75.6908 211.468C75.6908 211.468 68.825 185.902 61.721 184.039C55.6804 187.297 54.9998 194.239 55.2805 198.612C55.5613 202.994 65.2858 223.004 72.058 224.995C78.8302 226.986 95.6587 211.238 95.6587 211.238H95.6502Z" fill="#FF6355"/>
<path d="M65.696 219.746C65.747 219.746 65.798 219.729 65.8406 219.695C65.9427 219.618 65.9597 219.465 65.8831 219.363C60.6338 212.565 55.7078 201.616 55.5121 198.596C55.4695 197.941 55.4525 197.285 55.461 196.639C55.461 196.511 55.3589 196.401 55.2313 196.401C55.1037 196.401 54.9931 196.503 54.9931 196.63C54.9846 197.285 54.9931 197.958 55.0442 198.621C55.2483 201.769 60.1233 212.659 65.5088 219.644C65.5513 219.704 65.6279 219.738 65.696 219.738V219.746Z" fill="#142241"/>
<path d="M85.4344 265.297C88.4207 265.297 90.0031 264.148 90.0797 264.097C90.1818 264.02 90.2073 263.876 90.1307 263.765C90.0542 263.663 89.9095 263.638 89.7989 263.714C89.7819 263.731 87.9783 265.024 84.6347 264.795C84.5071 264.786 84.3965 264.88 84.3794 265.016C84.3709 265.144 84.4645 265.254 84.6006 265.271C84.8899 265.288 85.1707 265.297 85.4344 265.297Z" fill="white"/>
<path d="M75.4385 215.407C75.4385 215.407 75.4725 215.407 75.4896 215.407C75.6172 215.381 75.6937 215.262 75.6682 215.135C75.6427 214.905 75.8128 212.786 75.9235 211.493C75.932 211.391 75.8724 211.289 75.7703 211.255C75.6682 211.221 75.5576 211.255 75.4981 211.34L74.4176 212.812C74.341 212.914 74.3665 213.067 74.4686 213.144C74.5707 213.22 74.7238 213.195 74.8004 213.093L75.3875 212.293C75.2854 213.552 75.1663 215.049 75.2088 215.228C75.2343 215.339 75.3279 215.415 75.4385 215.415V215.407Z" fill="#142241"/>
<path d="M62.0976 166.742C62.2422 166.734 62.3443 166.623 62.3358 166.496C62.2677 165.364 62.523 164.845 62.7527 164.615C62.9739 164.386 63.2121 164.386 63.2121 164.386C63.3397 164.386 63.4503 164.284 63.4503 164.156C63.4503 164.028 63.3482 163.918 63.2206 163.909C63.1781 163.909 62.7697 163.909 62.4039 164.284C61.9785 164.726 61.7913 165.475 61.8594 166.521C61.8594 166.649 61.97 166.742 62.0976 166.742Z" fill="#FF8376"/>
<path d="M67.092 262.767L65.9961 262.825L69.1323 321.301L70.2282 321.242L67.092 262.767Z" fill="#3C4F6D"/>
<path d="M38.7749 262.774L35.6387 321.25L36.7346 321.308L39.8708 262.833L38.7749 262.774Z" fill="#3C4F6D"/>
<path d="M42.6997 263.392L41.5332 304.638L42.6303 304.669L43.7968 263.423L42.6997 263.392Z" fill="#3C4F6D"/>
<path d="M99.0195 201.582C98.2198 202.356 95.6504 204.849 95.6504 204.849L97.9986 204.959L99.8022 202.228C99.9809 201.956 99.8618 201.59 99.564 201.48C99.3768 201.403 99.1641 201.446 99.0195 201.59V201.582Z" fill="#FFB9AF"/>
<path d="M433.119 189.288H426.968C425.864 189.288 424.969 190.183 424.969 191.287V200.033C424.969 201.137 425.864 202.033 426.968 202.033H433.119C434.223 202.033 435.119 201.137 435.119 200.033V191.287C435.119 190.183 434.223 189.288 433.119 189.288Z" fill="#3C4F6D"/>
<path d="M234.608 229.496H207.944C205.919 229.496 204.277 231.137 204.277 233.162V238.573C204.277 240.599 205.919 242.24 207.944 242.24H234.608C236.633 242.24 238.275 240.599 238.275 238.573V233.162C238.275 231.137 236.633 229.496 234.608 229.496Z" fill="#3C4F6D"/>
<path d="M30.4029 228.075C35.4055 231.036 43.522 231.895 52.5913 232.108C53.7144 232.133 54.6502 231.231 54.6502 230.1V221.481C54.6502 220.358 53.7229 219.448 52.5998 219.473C44.7046 219.661 37.8813 218.563 32.2236 216.079C30.8964 215.5 29.416 216.47 29.416 217.917V226.339C29.416 227.054 29.7904 227.709 30.4029 228.066V228.075Z" fill="#3C4F6D"/>
<path d="M114.775 237.876C120.909 240.598 130.71 241.075 141.634 240.862C142.995 240.836 144.076 239.884 144.033 238.761L143.693 230.151C143.65 229.028 142.502 228.168 141.141 228.245C131.646 228.798 123.393 228.024 116.485 225.812C114.868 225.293 113.116 226.331 113.175 227.777L113.507 236.191C113.533 236.906 114.018 237.544 114.766 237.876H114.775Z" fill="#3C4F6D"/>
<path d="M35.0731 263.017L36.077 262.566C32.6228 254.858 35.2432 225.514 35.2688 225.225L34.1713 225.123C34.0607 226.339 31.4998 255.045 35.0731 263.017Z" fill="#3C4F6D"/>
<path d="M49.0535 264.284L50.0575 263.833C46.6033 256.125 49.2237 226.782 49.2492 226.492L48.1517 226.39C48.0411 227.607 45.4803 256.312 49.0535 264.284Z" fill="#3C4F6D"/>
<path d="M398.212 229.649C393.21 232.61 385.093 233.469 376.024 233.682C374.901 233.707 373.965 232.805 373.965 231.674V223.055C373.965 221.932 374.892 221.022 376.015 221.047C383.91 221.235 390.734 220.137 396.391 217.653C397.719 217.074 399.199 218.044 399.199 219.49V227.913C399.199 228.628 398.825 229.283 398.212 229.64V229.649Z" fill="#3C4F6D"/>
<path d="M393.543 264.599C397.108 256.627 394.555 227.922 394.445 226.705L393.347 226.807C393.373 227.105 395.993 256.44 392.539 264.148L393.543 264.599Z" fill="#3C4F6D"/>
<path d="M379.555 265.858C383.119 257.886 380.567 229.181 380.457 227.964L379.359 228.066C379.385 228.364 382.005 257.699 378.551 265.407L379.555 265.858Z" fill="#3C4F6D"/>
<path d="M136.088 275.064L137.177 274.911C135.297 261.366 137.16 235.511 137.177 235.247L136.079 235.171C136.062 235.434 134.182 261.4 136.079 275.064H136.088Z" fill="#3C4F6D"/>
<path d="M324.9 237.876C318.766 240.598 308.965 241.075 298.041 240.862C296.68 240.836 295.599 239.884 295.642 238.761L295.982 230.151C296.025 229.028 297.173 228.168 298.534 228.245C308.029 228.798 316.282 228.024 323.19 225.812C324.807 225.293 326.559 226.331 326.5 227.777L326.168 236.191C326.142 236.906 325.657 237.544 324.909 237.876H324.9Z" fill="#3C4F6D"/>
<path d="M303.59 275.064C305.487 261.4 303.615 235.434 303.59 235.171L302.492 235.247C302.509 235.502 304.381 261.366 302.492 274.911L303.581 275.064H303.59Z" fill="#3C4F6D"/>
<path d="M319.305 275.064C321.202 261.4 319.33 235.434 319.305 235.171L318.207 235.247C318.224 235.502 320.096 261.366 318.207 274.911L319.296 275.064H319.305Z" fill="#3C4F6D"/>
<path d="M233.172 236.314L232.01 271.338L233.107 271.375L234.269 236.35L233.172 236.314Z" fill="#3C4F6D"/>
<path d="M208.808 236.333L207.711 236.367L208.793 271.394L209.89 271.36L208.808 236.333Z" fill="#3C4F6D"/>
<path d="M426.212 239.195C430.568 238.072 433.146 230.729 433.877 217.381C434.413 207.605 433.733 198.008 433.724 197.915L432.627 197.991C432.627 198.085 433.307 207.614 432.78 217.33C432.082 229.955 429.717 237.153 425.939 238.131L426.212 239.195Z" fill="#3C4F6D"/>
<path d="M419.788 238.378C424.144 237.255 426.722 229.913 427.453 216.564C427.989 206.788 427.309 197.191 427.3 197.098L426.203 197.174C426.203 197.268 426.883 206.797 426.356 216.513C425.658 229.138 423.293 236.336 419.516 237.314L419.788 238.378Z" fill="#3C4F6D"/>
<path d="M99.6406 127.393L100.202 149.02C104.218 150.577 107.119 153.614 107.783 155.384C108.999 158.668 108.744 161.11 108.744 161.11C115.899 163.424 123.318 163.951 122.263 156.439C121.165 149.752 110.437 138.896 100.755 128.491C100.432 128.074 100.058 127.7 99.6406 127.376V127.393Z" fill="#6D83A9"/>
<path d="M100.176 149.25C100.312 149.25 100.415 149.139 100.415 149.012C100.415 148.901 100.168 137.849 100.168 137.552C100.168 137.424 100.066 137.313 99.9296 137.313C99.7935 137.313 99.6914 137.416 99.6914 137.552C99.6914 137.858 99.9296 148.569 99.9381 149.02C99.9381 149.148 100.049 149.25 100.176 149.25Z" fill="#142241"/>
<path d="M109.705 156.473C109.858 156.354 116.741 150.279 119.438 156.167C122.127 162.054 116.979 162.82 116.979 162.82L110.641 162.556L109.714 156.473H109.705Z" fill="#FFB9AF"/>
<path d="M113.668 162.182C114.162 161.152 115.115 159.025 115.336 157.349C115.421 156.711 115.047 156.09 114.417 155.928C113.881 155.792 113.354 155.954 113.354 155.954C113.354 155.954 112.784 154.874 111.354 155.163C110.061 154.244 109.1 154.874 109.1 154.874C109.1 154.874 107.764 154.286 107.015 155.12C106.556 156.328 105.969 158.209 105.969 158.209L104.301 161.093C104.14 161.382 104.199 161.739 104.446 161.961C104.744 162.216 105.195 162.173 105.433 161.867L107.015 159.876L106.854 161.442C106.794 162.003 107.194 162.505 107.755 162.565C107.985 162.59 108.215 162.582 108.394 162.505C109.27 163.007 110.316 162.59 110.316 162.59C110.316 162.59 111.108 163.339 112.026 162.803C112.664 163.075 113.379 162.786 113.668 162.182Z" fill="#FFB9AF"/>
<path d="M113.302 162.879C113.353 162.879 113.404 162.862 113.447 162.828C113.634 162.684 113.787 162.497 113.889 162.284C114.425 161.178 115.353 159.068 115.582 157.375C115.684 156.609 115.216 155.886 114.493 155.699C114.093 155.597 113.694 155.639 113.472 155.69C113.277 155.418 112.783 154.908 111.898 154.882C111.771 154.882 111.66 154.984 111.66 155.112C111.66 155.239 111.762 155.35 111.89 155.35C112.783 155.376 113.149 156.039 113.166 156.065C113.217 156.167 113.336 156.209 113.447 156.175C113.447 156.175 113.923 156.031 114.383 156.15C114.876 156.277 115.199 156.779 115.123 157.307C114.902 158.932 113.991 160.991 113.472 162.071C113.404 162.216 113.294 162.343 113.166 162.446C113.064 162.522 113.047 162.675 113.124 162.777C113.166 162.837 113.243 162.871 113.311 162.871L113.302 162.879Z" fill="#FF8376"/>
<path d="M107.05 159.876C107.169 159.876 107.271 159.783 107.288 159.663L107.518 157.392C107.535 157.264 107.433 157.145 107.305 157.137C107.178 157.12 107.058 157.222 107.05 157.349L106.82 159.621C106.803 159.749 106.905 159.868 107.033 159.876C107.033 159.876 107.05 159.876 107.058 159.876H107.05Z" fill="#FF8376"/>
<path d="M123.75 172.102L104.82 179.172L77.5352 172.885L99.1025 168.027L123.75 172.102Z" fill="#142241"/>
<path d="M121.488 171.991L104.506 178.338L79.6973 172.766L99.1972 168.299L121.488 171.991Z" fill="white"/>
<path d="M102.745 174.935C103.791 174.935 105.544 174.263 107.909 173.31C109.534 172.655 111.227 171.966 111.874 172.017C112.273 172.043 112.367 172.221 112.401 172.281C112.648 172.74 112.18 173.736 112.001 174.05C111.933 174.161 111.976 174.306 112.086 174.374C112.197 174.442 112.341 174.399 112.41 174.289C112.495 174.144 113.235 172.825 112.818 172.06C112.707 171.847 112.452 171.592 111.908 171.549C111.15 171.498 109.568 172.136 107.739 172.876C105.663 173.719 103.076 174.765 102.328 174.399C102.124 174.297 102.004 174.195 101.979 174.085C101.928 173.855 102.209 173.489 102.464 173.166C102.821 172.706 103.23 172.187 103 171.685C102.881 171.413 102.549 171.217 102.039 171.107C100.643 170.801 98.1334 171.141 97.1891 171.975C96.5084 172.57 94.9685 172.8 93.8285 172.468C93.3775 172.34 92.799 172.06 92.6374 171.507C92.6033 171.379 92.4672 171.311 92.3481 171.345C92.2205 171.379 92.1524 171.515 92.1865 171.634C92.3651 172.23 92.9011 172.689 93.7008 172.919C95.0025 173.293 96.7041 173.03 97.5038 172.323C98.3121 171.609 100.694 171.294 101.945 171.566C102.447 171.677 102.557 171.838 102.575 171.881C102.685 172.128 102.387 172.502 102.098 172.876C101.766 173.302 101.417 173.744 101.52 174.195C101.579 174.459 101.775 174.663 102.124 174.833C102.294 174.918 102.506 174.952 102.753 174.952L102.745 174.935Z" fill="#FF6355"/>
<path d="M255.641 191.9C255.641 192.257 257.002 192.555 258.686 192.555C260.371 192.555 261.732 192.266 261.732 191.9C261.732 191.534 260.371 191.245 258.686 191.245C257.002 191.245 255.641 191.534 255.641 191.9Z" fill="#FF6355"/>
<path d="M263.518 183.094L261.74 191.9H255.639L253.861 183.094H263.518Z" fill="#FF6355"/>
<path d="M253.861 183.094C253.861 183.664 256.022 184.132 258.694 184.132C261.365 184.132 263.526 183.664 263.526 183.094C263.526 182.524 261.365 182.056 258.694 182.056C256.022 182.056 253.861 182.524 253.861 183.094Z" fill="#142241"/>
<path d="M260.71 183.962C260.914 183.962 261.101 183.826 261.161 183.622L263.968 174.161C264.045 173.914 263.9 173.65 263.653 173.574C263.407 173.497 263.143 173.642 263.066 173.889L260.259 183.349C260.182 183.596 260.327 183.86 260.574 183.936C260.616 183.953 260.667 183.953 260.71 183.953V183.962Z" fill="#088BC3"/>
<path d="M259.884 183.962C260.139 183.962 260.352 183.758 260.352 183.503L260.539 173.863C260.539 173.599 260.335 173.387 260.08 173.387C259.816 173.387 259.603 173.591 259.603 173.846L259.416 183.486C259.416 183.749 259.62 183.962 259.875 183.962H259.884Z" fill="#F9D972"/>
<path d="M109.287 198.17C109.287 198.527 110.648 198.825 112.333 198.825C114.017 198.825 115.379 198.536 115.379 198.17C115.379 197.804 114.017 197.515 112.333 197.515C110.648 197.515 109.287 197.804 109.287 198.17Z" fill="#F9D972"/>
<path d="M117.165 189.356L115.378 198.17H109.287L107.5 189.356H117.165Z" fill="#F9D972"/>
<path d="M107.5 189.356C107.5 189.926 109.661 190.394 112.332 190.394C115.004 190.394 117.165 189.926 117.165 189.356C117.165 188.786 115.004 188.318 112.332 188.318C109.661 188.318 107.5 188.786 107.5 189.356Z" fill="#142241"/>
<path d="M114.356 190.224C114.56 190.224 114.748 190.087 114.807 189.883L117.615 180.423C117.691 180.176 117.547 179.912 117.3 179.835C117.053 179.759 116.789 179.904 116.713 180.15L113.905 189.611C113.829 189.858 113.973 190.121 114.22 190.198C114.263 190.215 114.314 190.215 114.356 190.215V190.224Z" fill="#088BC3"/>
<path d="M113.532 190.224C113.788 190.224 114 190.019 114 189.764L114.187 180.125C114.187 179.861 113.983 179.648 113.728 179.648C113.464 179.648 113.252 179.853 113.252 180.108L113.064 189.747C113.064 190.011 113.269 190.224 113.524 190.224H113.532Z" fill="#6D83A9"/>
<path d="M151.333 155.605C153.015 155.605 154.379 155.312 154.379 154.95C154.379 154.588 153.015 154.295 151.333 154.295C149.651 154.295 148.287 154.588 148.287 154.95C148.287 155.312 149.651 155.605 151.333 155.605Z" fill="#088BC3"/>
<path d="M156.156 146.136L154.378 154.95H148.278L146.5 146.136H156.156Z" fill="#088BC3"/>
<path d="M151.332 147.174C154.001 147.174 156.165 146.709 156.165 146.136C156.165 145.563 154.001 145.098 151.332 145.098C148.664 145.098 146.5 145.563 146.5 146.136C146.5 146.709 148.664 147.174 151.332 147.174Z" fill="#142241"/>
<path d="M153.348 147.004C153.553 147.004 153.74 146.868 153.799 146.664L156.607 137.203C156.683 136.956 156.539 136.692 156.292 136.616C156.045 136.539 155.782 136.684 155.705 136.931L152.897 146.391C152.821 146.638 152.966 146.902 153.212 146.978C153.255 146.995 153.306 146.995 153.348 146.995V147.004Z" fill="#FF6355"/>
<path d="M152.523 147.004C152.778 147.004 152.991 146.8 152.991 146.545L153.178 136.905C153.178 136.641 152.974 136.429 152.718 136.429C152.455 136.42 152.242 136.633 152.242 136.888L152.055 146.528C152.055 146.791 152.259 147.004 152.514 147.004C152.514 147.004 152.514 147.004 152.523 147.004Z" fill="#F9D972"/>
<path d="M199.775 183.732H172.27L180.029 172.961H197.784L199.775 183.732Z" fill="white"/>
</svg>
