<svg width="26" height="26" viewBox="0 0 26 26" fill="none" xmlns="http://www.w3.org/2000/svg">
<circle cx="12.6571" cy="12.8748" r="12.5789" fill="#F93C6C"/>
<path d="M12.4809 7.93538C13.5166 7.93538 14.3563 7.09574 14.3563 6.05998C14.3563 5.02422 13.5166 4.18457 12.4809 4.18457C11.4451 4.18457 10.6055 5.02422 10.6055 6.05998C10.6055 7.09574 11.4451 7.93538 12.4809 7.93538Z" fill="white"/>
<path d="M17.7202 13.8132L16.4692 9.14436C16.4685 9.1407 16.4672 9.13727 16.4662 9.13361L16.4443 9.05151L16.4411 9.05242C16.327 8.69655 15.9974 8.4372 15.6036 8.4372C15.6006 8.4372 15.5976 8.43811 15.5946 8.43811V8.42188H9.70654V8.4372C9.31271 8.4372 8.98314 8.69655 8.86901 9.05242L8.86581 9.05151L8.84385 9.13339C8.84294 9.13727 8.84157 9.1407 8.84088 9.14459L7.58985 13.8132L7.60174 13.8164C7.59602 13.8551 7.58985 13.8935 7.58985 13.9337C7.58926 14.1195 7.65369 14.2996 7.77197 14.4429C7.89025 14.5861 8.05493 14.6835 8.23745 14.718C8.41997 14.7526 8.60883 14.7222 8.7713 14.6321C8.93377 14.5421 9.05961 14.398 9.12699 14.2249L9.13248 14.2263L10.0503 10.8016V10.8146H10.0574C10.0825 10.7019 10.1784 10.6159 10.2984 10.6159C10.4187 10.6159 10.5146 10.7021 10.5397 10.8146H10.5473V10.8514C10.5477 10.8572 10.5505 10.862 10.5505 10.8677C10.5505 10.8734 10.5475 10.8782 10.5473 10.8839V10.9189L9.07805 16.4029C9.05387 16.4521 9.03957 16.5055 9.03597 16.5602L9.03277 16.5719L9.0346 16.5723C9.03437 16.5785 9.03277 16.5845 9.03277 16.5909C9.03277 16.6471 9.04384 16.7027 9.06534 16.7546C9.08685 16.8065 9.11838 16.8537 9.15811 16.8934C9.19785 16.9331 9.24503 16.9646 9.29694 16.9861C9.34886 17.0075 9.4045 17.0186 9.46068 17.0186H10.5473V20.6434C10.5473 20.8879 10.6444 21.1225 10.8174 21.2954C10.9903 21.4683 11.2249 21.5655 11.4694 21.5655C11.714 21.5655 11.9485 21.4683 12.1215 21.2954C12.2944 21.1225 12.3916 20.8879 12.3916 20.6434V17.0186H12.916V20.6434C12.9198 20.8854 13.0187 21.1163 13.1912 21.2862C13.3637 21.456 13.5962 21.5512 13.8383 21.5512C14.0804 21.5512 14.3128 21.456 14.4853 21.2862C14.6579 21.1163 14.7567 20.8854 14.7605 20.6434V17.0186H15.8503C15.9065 17.0186 15.9622 17.0075 16.0141 16.9861C16.066 16.9646 16.1132 16.9331 16.1529 16.8934C16.1926 16.8537 16.2242 16.8065 16.2457 16.7546C16.2672 16.7027 16.2782 16.6471 16.2782 16.5909C16.2782 16.5845 16.2766 16.5785 16.2764 16.5723L16.2782 16.5719L16.275 16.5602C16.2712 16.5056 16.2569 16.4521 16.233 16.4029L14.7683 10.9358L14.7731 10.9345C14.7669 10.9127 14.7596 10.8915 14.7596 10.8679C14.7596 10.7289 14.8724 10.6159 15.0117 10.6159C15.1301 10.6159 15.2248 10.6994 15.2518 10.8096L15.2614 10.8071L16.1776 14.2265L16.1831 14.2251C16.2505 14.3982 16.3763 14.5423 16.5388 14.6324C16.7013 14.7224 16.8901 14.7528 17.0726 14.7183C17.2552 14.6837 17.4198 14.5863 17.5381 14.4431C17.6564 14.2998 17.7208 14.1197 17.7202 13.934C17.7202 13.8937 17.7141 13.8553 17.7084 13.8166L17.7202 13.8132Z" fill="white"/>
</svg>
