<svg width="27" height="26" viewBox="0 0 27 26" fill="none" xmlns="http://www.w3.org/2000/svg">
<circle cx="13.4539" cy="12.8748" r="12.5789" fill="#188FFF"/>
<path d="M12.9622 7.50933C14.007 7.50933 14.8541 6.66231 14.8541 5.61746C14.8541 4.57261 14.007 3.72559 12.9622 3.72559C11.9173 3.72559 11.0703 4.57261 11.0703 5.61746C11.0703 6.66231 11.9173 7.50933 12.9622 7.50933Z" fill="white"/>
<path d="M16.5443 8.01891V8.00977H9.76628V8.01594C9.53116 8.016 9.3056 8.109 9.13877 8.27467C8.97194 8.44034 8.87738 8.66525 8.87569 8.90036H8.875V14.261H8.88392C8.88392 14.3655 8.90449 14.4689 8.94445 14.5654C8.98442 14.6618 9.04299 14.7495 9.11683 14.8233C9.19068 14.8972 9.27834 14.9558 9.37482 14.9957C9.4713 15.0357 9.57471 15.0563 9.67914 15.0563C9.78357 15.0563 9.88697 15.0357 9.98345 14.9957C10.0799 14.9558 10.1676 14.8972 10.2414 14.8233C10.3153 14.7495 10.3739 14.6618 10.4138 14.5654C10.4538 14.4689 10.4744 14.3655 10.4744 14.261H10.4762V10.5187H10.4782C10.4806 10.4534 10.5082 10.3916 10.5551 10.3463C10.6021 10.3009 10.6648 10.2755 10.7301 10.2753C10.8668 10.2753 10.9766 10.3835 10.9823 10.5187H10.9844V20.3314C10.9845 20.5782 11.0827 20.8148 11.2573 20.9891C11.4319 21.1635 11.6686 21.2614 11.9153 21.2612C12.1621 21.2611 12.3987 21.1629 12.573 20.9883C12.7474 20.8137 12.8453 20.577 12.8451 20.3303V15.3893H12.852C12.851 15.3548 12.8569 15.3204 12.8694 15.2883C12.8819 15.2561 12.9007 15.2268 12.9247 15.2021C12.9487 15.1773 12.9775 15.1576 13.0092 15.1442C13.041 15.1308 13.0752 15.1238 13.1096 15.1238C13.1441 15.1238 13.1783 15.1308 13.2101 15.1442C13.2418 15.1576 13.2706 15.1773 13.2946 15.2021C13.3186 15.2268 13.3374 15.2561 13.3499 15.2883C13.3624 15.3204 13.3683 15.3548 13.3673 15.3893H13.3739V20.3303C13.3805 20.5727 13.4814 20.803 13.6552 20.9721C13.829 21.1412 14.0619 21.2358 14.3044 21.2358C14.5469 21.2358 14.7798 21.1412 14.9536 20.9721C15.1274 20.803 15.2283 20.5727 15.2349 20.3303V10.5189C15.2349 10.4515 15.2617 10.3869 15.3093 10.3393C15.357 10.2916 15.4216 10.2648 15.489 10.2648C15.5564 10.2648 15.621 10.2916 15.6687 10.3393C15.7163 10.3869 15.7431 10.4515 15.7431 10.5189V14.2613H15.7518C15.7518 14.4722 15.8356 14.6746 15.9848 14.8237C16.134 14.9729 16.3363 15.0567 16.5472 15.0567C16.7582 15.0567 16.9605 14.9729 17.1097 14.8237C17.2589 14.6746 17.3427 14.4722 17.3427 14.2613H17.3443V8.90036C17.3447 8.43951 16.9932 8.06488 16.5443 8.01891Z" fill="white"/>
</svg>
