<svg width="24" height="24" viewBox="0 0 24 24" fill="none" xmlns="http://www.w3.org/2000/svg">
<path d="M2.49756 4.485V17.9175C2.5002 18.9073 2.89456 19.8558 3.59443 20.5556C4.29431 21.2555 5.24279 21.6499 6.23256 21.6525H11.2876C11.3595 21.1332 11.5087 20.6277 11.7301 20.1525C12.3357 18.8167 13.4311 17.7643 14.7901 17.2125C14.3003 16.8736 13.9004 16.4208 13.6247 15.8929C13.349 15.365 13.2058 14.778 13.2076 14.1825C13.2085 13.1982 13.6 12.2545 14.296 11.5584C14.992 10.8624 15.9357 10.471 16.9201 10.47C17.2785 10.4686 17.6351 10.5217 17.9776 10.6275C18.5397 10.7938 19.054 11.0921 19.4776 11.4975V4.485C19.4775 3.49444 19.0839 2.54448 18.3835 1.84405C17.6831 1.14363 16.7331 0.750089 15.7426 0.75H6.23256C5.24239 0.751363 4.29317 1.14531 3.59302 1.84546C2.89287 2.54561 2.49892 3.49483 2.49756 4.485ZM7.02756 4.47H14.9476C15.1465 4.47 15.3372 4.54902 15.4779 4.68967C15.6185 4.83032 15.6976 5.02109 15.6976 5.22C15.6976 5.41891 15.6185 5.60968 15.4779 5.75033C15.3372 5.89098 15.1465 5.97 14.9476 5.97H7.02756C6.82865 5.97 6.63788 5.89098 6.49723 5.75033C6.35658 5.60968 6.27756 5.41891 6.27756 5.22C6.27756 5.02109 6.35658 4.83032 6.49723 4.68967C6.63788 4.54902 6.82865 4.47 7.02756 4.47ZM7.02756 8.46H14.9476C15.1465 8.46 15.3372 8.53902 15.4779 8.67967C15.6185 8.82032 15.6976 9.01109 15.6976 9.21C15.6976 9.40891 15.6185 9.59968 15.4779 9.74033C15.3372 9.88098 15.1465 9.96 14.9476 9.96H7.02756C6.82865 9.96 6.63788 9.88098 6.49723 9.74033C6.35658 9.59968 6.27756 9.40891 6.27756 9.21C6.27756 9.01109 6.35658 8.82032 6.49723 8.67967C6.63788 8.53902 6.82865 8.46 7.02756 8.46ZM7.02756 12.4425H10.6276C10.8265 12.4425 11.0172 12.5215 11.1579 12.6622C11.2985 12.8028 11.3776 12.9936 11.3776 13.1925C11.3776 13.3914 11.2985 13.5822 11.1579 13.7228C11.0172 13.8635 10.8265 13.9425 10.6276 13.9425H7.02756C6.82865 13.9425 6.63788 13.8635 6.49723 13.7228C6.35658 13.5822 6.27756 13.3914 6.27756 13.1925C6.27756 12.9936 6.35658 12.8028 6.49723 12.6622C6.63788 12.5215 6.82865 12.4425 7.02756 12.4425Z" fill="#C4C4C4"/>
<path d="M16.92 16.7697C18.3491 16.7697 19.5075 15.6113 19.5075 14.1822C19.5075 12.7532 18.3491 11.5947 16.92 11.5947C15.491 11.5947 14.3325 12.7532 14.3325 14.1822C14.3325 15.6113 15.491 16.7697 16.92 16.7697Z" fill="#C4C4C4"/>
<path d="M13.095 23.2496H20.7525C20.9512 23.2491 21.1416 23.1698 21.2821 23.0293C21.4227 22.8888 21.5019 22.6984 21.5025 22.4996C21.5025 21.2853 21.0201 20.1207 20.1614 19.262C19.3027 18.4033 18.1381 17.9209 16.9237 17.9209C15.7094 17.9209 14.5447 18.4033 13.6861 19.262C12.8274 20.1207 12.345 21.2853 12.345 22.4996C12.3455 22.6984 12.4248 22.8888 12.5653 23.0293C12.7058 23.1699 12.8962 23.2491 13.095 23.2496Z" fill="#C4C4C4"/>
</svg>
