<svg width="24" height="24" viewBox="0 0 24 24" fill="none" xmlns="http://www.w3.org/2000/svg">
<path d="M20.19 14.0608L19.06 12.1808C18.81 11.7708 18.59 10.9808 18.59 10.5008V8.63078C18.59 5.00078 15.64 2.05078 12.02 2.05078C8.38996 2.06078 5.43996 5.00078 5.43996 8.63078V10.4908C5.43996 10.9708 5.21996 11.7608 4.97996 12.1708L3.84996 14.0508C3.41996 14.7808 3.31996 15.6108 3.58996 16.3308C3.85996 17.0608 4.46996 17.6408 5.26996 17.9008C6.34996 18.2608 7.43996 18.5208 8.54996 18.7108C8.65996 18.7308 8.76996 18.7408 8.87996 18.7608C9.01996 18.7808 9.16996 18.8008 9.31996 18.8208C9.57996 18.8608 9.83996 18.8908 10.11 18.9108C10.74 18.9708 11.38 19.0008 12.02 19.0008C12.65 19.0008 13.28 18.9708 13.9 18.9108C14.13 18.8908 14.36 18.8708 14.58 18.8408C14.76 18.8208 14.94 18.8008 15.12 18.7708C15.23 18.7608 15.34 18.7408 15.45 18.7208C16.57 18.5408 17.68 18.2608 18.76 17.9008C19.53 17.6408 20.12 17.0608 20.4 16.3208C20.68 15.5708 20.6 14.7508 20.19 14.0608ZM12.75 10.0008C12.75 10.4208 12.41 10.7608 11.99 10.7608C11.57 10.7608 11.23 10.4208 11.23 10.0008V6.90078C11.23 6.48078 11.57 6.14078 11.99 6.14078C12.41 6.14078 12.75 6.48078 12.75 6.90078V10.0008Z" fill="#C4C4C4"/>
<path d="M14.8299 20.011C14.4099 21.171 13.2999 22.001 11.9999 22.001C11.2099 22.001 10.4299 21.681 9.87993 21.111C9.55993 20.811 9.31993 20.411 9.17993 20.001C9.30993 20.021 9.43993 20.031 9.57993 20.051C9.80993 20.081 10.0499 20.111 10.2899 20.131C10.8599 20.181 11.4399 20.211 12.0199 20.211C12.5899 20.211 13.1599 20.181 13.7199 20.131C13.9299 20.111 14.1399 20.101 14.3399 20.071C14.4999 20.051 14.6599 20.031 14.8299 20.011Z" fill="#C4C4C4"/>
</svg>
