<svg width="32" height="32" viewBox="0 0 32 32" fill="none" xmlns="http://www.w3.org/2000/svg">
<path d="M26.9199 18.7477L25.4133 16.241C25.0799 15.6944 24.7866 14.641 24.7866 14.001V11.5077C24.7866 6.66771 20.8533 2.73438 16.0266 2.73438C11.1866 2.74771 7.25328 6.66771 7.25328 11.5077V13.9877C7.25328 14.6277 6.95994 15.681 6.63995 16.2277L5.13328 18.7344C4.55994 19.7077 4.42661 20.8144 4.78661 21.7744C5.14661 22.7477 5.95994 23.521 7.02661 23.8677C8.46661 24.3477 9.91995 24.6944 11.3999 24.9477C11.5466 24.9744 11.6933 24.9877 11.8399 25.0144C12.0266 25.041 12.2266 25.0677 12.4266 25.0944C12.7733 25.1477 13.1199 25.1877 13.4799 25.2144C14.3199 25.2944 15.1733 25.3344 16.0266 25.3344C16.8666 25.3344 17.7066 25.2944 18.5333 25.2144C18.8399 25.1877 19.1466 25.161 19.4399 25.121C19.6799 25.0944 19.9199 25.0677 20.1599 25.0277C20.3066 25.0144 20.4533 24.9877 20.5999 24.961C22.0933 24.721 23.5733 24.3477 25.0133 23.8677C26.0399 23.521 26.8266 22.7477 27.1999 21.761C27.5733 20.761 27.4666 19.6677 26.9199 18.7477ZM16.9999 13.3344C16.9999 13.8944 16.5466 14.3477 15.9866 14.3477C15.4266 14.3477 14.9733 13.8944 14.9733 13.3344V9.20104C14.9733 8.64104 15.4266 8.18771 15.9866 8.18771C16.5466 8.18771 16.9999 8.64104 16.9999 9.20104V13.3344Z" fill="#C4C4C4"/>
<path d="M19.7736 26.6813C19.2136 28.228 17.7336 29.3346 16.0002 29.3346C14.9469 29.3346 13.9069 28.908 13.1736 28.148C12.7469 27.748 12.4269 27.2146 12.2402 26.668C12.4136 26.6946 12.5869 26.708 12.7736 26.7346C13.0802 26.7746 13.4002 26.8146 13.7202 26.8413C14.4802 26.908 15.2536 26.948 16.0269 26.948C16.7869 26.948 17.5469 26.908 18.2936 26.8413C18.5736 26.8146 18.8536 26.8013 19.1202 26.7613C19.3336 26.7346 19.5469 26.708 19.7736 26.6813Z" fill="#C4C4C4"/>
</svg>
