<svg width="235" height="329" viewBox="0 0 235 329" fill="none" xmlns="http://www.w3.org/2000/svg">
<path d="M233.271 301.189L209.751 11.0268C209.27 5.1 204.076 0.684865 198.15 1.16528L11.121 16.3256C5.19428 16.806 0.779162 22 1.25958 27.9268L24.7798 318.089C25.2602 324.016 30.4543 328.431 36.381 327.951L223.409 312.791C229.336 312.31 233.751 307.116 233.271 301.189Z" fill="#263238"/>
<path d="M201.858 22.8204L11.1992 38.2749L32.9386 306.467L223.597 291.012L201.858 22.8204Z" fill="white"/>
<path d="M128.401 20.1434L128.307 18.9862C128.26 18.4115 127.757 17.9833 127.182 18.0299L83.8903 21.5391C83.3155 21.5857 82.8874 22.0894 82.934 22.6641L83.0278 23.8213C83.0744 24.3961 83.5781 24.8242 84.1528 24.7776L127.445 21.2685C128.019 21.2219 128.447 20.7182 128.401 20.1434Z" fill="#37474F"/>
<path d="M129.469 315.159C132.711 314.897 135.126 312.056 134.863 308.814C134.6 305.573 131.759 303.158 128.518 303.421C125.276 303.683 122.861 306.524 123.124 309.766C123.387 313.007 126.228 315.422 129.469 315.159Z" fill="#37474F"/>
<path d="M201.859 22.8206L11.2012 38.2751L32.9405 306.467L223.599 291.013L201.859 22.8206Z" fill="white"/>
<path d="M201.859 22.8206L11.2012 38.2751L11.7323 44.8272L202.391 29.3726L201.859 22.8206Z" fill="#455A64"/>
<path d="M16.5523 41.1344C16.6252 42.0336 15.9596 42.8166 15.0605 42.8895C14.1613 42.9623 13.3783 42.2967 13.3054 41.3976C13.2325 40.4985 13.8981 39.7155 14.7973 39.6426C15.6964 39.5697 16.4794 40.2353 16.5523 41.1344Z" fill="#C7C7C7"/>
<path d="M23.1793 40.5971C23.2521 41.4962 22.5865 42.2792 21.6874 42.3521C20.7883 42.425 20.0053 41.7594 19.9324 40.8603C19.8595 39.9611 20.5251 39.1781 21.4242 39.1052C22.3234 39.0323 23.1064 39.6979 23.1793 40.5971Z" fill="white"/>
<path d="M29.814 40.0595C29.8869 40.9586 29.2213 41.7416 28.3222 41.8145C27.423 41.8874 26.64 41.2218 26.5671 40.3227C26.4943 39.4235 27.1599 38.6405 28.059 38.5676C28.9581 38.4947 29.7411 39.1603 29.814 40.0595Z" fill="#FFC727"/>
<path d="M50.9541 68.5644L47.6656 68.8309L48.3566 77.356L46.3752 77.5167L45.6841 68.9915L42.3956 69.2581L42.2539 67.5098L50.8123 66.816L50.9541 68.5644Z" fill="#37474F"/>
<path d="M59.9125 74.6597L60.0542 76.408L52.9194 76.9864L52.0859 66.7046L59.0959 66.1364L59.2376 67.8847L54.2257 68.2909L54.4262 70.7636L58.7553 70.4127L58.8869 72.0361L54.5578 72.387L54.7751 75.0678L59.9118 74.6514L59.9125 74.6597Z" fill="#37474F"/>
<path d="M61.6211 76.2894L60.7876 66.0076L65.3333 65.6392C65.8078 65.6007 66.2488 65.6655 66.6646 65.8329C67.0804 66.0003 67.451 66.2301 67.7604 66.5318C68.0781 66.8329 68.3326 67.181 68.5322 67.5754C68.7317 67.9699 68.8487 68.3794 68.8825 68.7957C68.9365 69.4617 68.8192 70.0829 68.5301 70.6511C68.2416 71.2275 67.8237 71.6553 67.2689 71.9433L69.9297 75.6159L67.6819 75.7981L65.3045 72.5215L63.3314 72.6814L63.6108 76.1281L61.6127 76.2901L61.6211 76.2894ZM63.1974 70.9241L65.7033 70.721C65.8864 70.7061 66.0579 70.6503 66.2087 70.5459C66.3601 70.4499 66.4915 70.3135 66.5959 70.1542C66.7003 69.9949 66.7777 69.8127 66.8281 69.6074C66.8785 69.4022 66.8943 69.1831 66.8754 68.95C66.8565 68.7169 66.796 68.4871 66.7048 68.2934C66.6137 68.0997 66.4913 67.9336 66.3543 67.7939C66.2089 67.6548 66.0496 67.5504 65.8764 67.4806C65.7031 67.4109 65.5249 67.3834 65.3501 67.3976L62.9357 67.5933L63.2057 70.9234L63.1974 70.9241Z" fill="#37474F"/>
<path d="M79.6364 74.8292L79.0844 68.0191L76.8479 73.3038L75.7657 73.3915L72.7072 68.536L73.2592 75.3461L71.2612 75.5081L70.4277 65.2263L72.5673 65.0529L76.0805 70.6593L78.6781 64.5576L80.8094 64.3848L81.6428 74.6666L79.6448 74.8285L79.6364 74.8292Z" fill="#37474F"/>
<path d="M89.287 66.4041C89.215 66.3429 89.0827 66.2615 88.8984 66.1591C88.7141 66.0567 88.4799 65.9584 88.2214 65.8704C87.9545 65.7831 87.6717 65.7054 87.3659 65.6548C87.0601 65.6042 86.757 65.5868 86.4407 65.6125C85.8912 65.657 85.4913 65.79 85.2335 66.0204C84.9833 66.2418 84.8653 66.5447 84.895 66.911C84.9126 67.1274 84.9767 67.2982 85.0874 67.4233C85.1988 67.5567 85.3588 67.6695 85.5583 67.7539C85.7586 67.8466 86.0075 67.9186 86.3146 67.9859C86.6127 68.0455 86.9622 68.1177 87.3609 68.1776C87.8712 68.2703 88.3412 68.383 88.7613 68.4998C89.1821 68.625 89.5473 68.7881 89.8492 68.9983C90.1512 69.2084 90.3982 69.4649 90.5744 69.7775C90.7589 70.0893 90.8662 70.4829 90.904 70.9491C90.9486 71.4986 90.8871 71.9812 90.7107 72.3894C90.5343 72.7975 90.2769 73.1368 89.9468 73.4066C89.6167 73.6764 89.2229 73.8843 88.7738 74.0296C88.3247 74.175 87.8465 74.2724 87.347 74.3129C86.5728 74.3757 85.8057 74.3205 85.0292 74.1488C84.261 73.9764 83.552 73.7071 82.9265 73.3304L83.6693 71.5355C83.7593 71.612 83.9269 71.7158 84.1715 71.8384C84.4078 71.9617 84.6857 72.0817 85.0128 72.1892C85.3323 72.3058 85.6831 72.3947 86.0742 72.4635C86.4569 72.5331 86.8516 72.543 87.2429 72.5113C88.3418 72.4222 88.8629 72.028 88.8056 71.3203C88.7874 71.0955 88.7059 70.9178 88.5682 70.7697C88.4305 70.6217 88.2366 70.5033 88.0023 70.405C87.7598 70.3073 87.4763 70.2213 87.1358 70.1568C86.803 70.0832 86.4286 70.013 86.0112 69.9295C85.5092 69.8361 85.0725 69.7207 84.6934 69.5922C84.3142 69.4637 83.999 69.2965 83.74 69.0996C83.481 68.9027 83.2776 68.6678 83.1381 68.3942C82.9903 68.1212 82.9044 67.7846 82.872 67.385C82.8295 66.8605 82.8922 66.3945 83.0507 65.9711C83.2091 65.5476 83.4485 65.193 83.7676 64.8906C84.0873 64.5965 84.4701 64.356 84.9165 64.1773C85.3546 63.9994 85.8404 63.893 86.3649 63.8504C87.0892 63.7917 87.7646 63.8543 88.3906 64.0298C89.0166 64.2053 89.571 64.4286 90.0462 64.7085L89.2953 66.4034L89.287 66.4041Z" fill="#37474F"/>
<path d="M100.523 73.2114C99.7735 73.2721 99.0703 73.1783 98.439 72.9362C97.7993 72.6947 97.2431 72.3459 96.762 71.8905C96.2809 71.4351 95.8951 70.9133 95.6023 70.3001C95.3103 69.6953 95.1411 69.0554 95.0885 68.406C95.0358 67.7566 95.1047 67.0555 95.3115 66.4018C95.519 65.7565 95.8234 65.1704 96.2338 64.6511C96.6443 64.1318 97.146 63.7056 97.7392 63.3726C98.3323 63.0396 98.9952 62.8434 99.7195 62.7847C100.444 62.726 101.155 62.8192 101.788 63.0779C102.429 63.336 102.985 63.6848 103.458 64.1409C103.931 64.597 104.317 65.1271 104.61 65.7403C104.902 66.3451 105.071 66.9767 105.123 67.6261C105.179 68.3088 105.107 68.9766 104.908 69.6213C104.709 70.2659 104.404 70.8437 104.001 71.354C103.598 71.8643 103.096 72.2905 102.503 72.6235C101.91 72.9565 101.247 73.1527 100.523 73.2114ZM97.1192 68.233C97.1549 68.6742 97.2566 69.1018 97.4236 69.5072C97.5905 69.9127 97.82 70.2628 98.0954 70.5589C98.3792 70.8544 98.7081 71.0875 99.0983 71.2486C99.4884 71.4097 99.9128 71.4759 100.387 71.4374C100.862 71.399 101.287 71.264 101.645 71.0338C102.004 70.8036 102.291 70.5206 102.522 70.1666C102.754 69.821 102.915 69.4309 103.015 69.0121C103.115 68.5934 103.139 68.1724 103.105 67.7478C103.071 67.3232 102.968 66.879 102.792 66.4742C102.617 66.0694 102.388 65.7193 102.112 65.4232C101.828 65.1278 101.499 64.8947 101.11 64.7419C100.72 64.5807 100.296 64.5229 99.8382 64.56C99.3804 64.5971 98.9306 64.7342 98.5721 64.9643C98.2137 65.1945 97.9182 65.4782 97.6948 65.8232C97.4714 66.1681 97.3096 66.5499 97.2094 66.9687C97.1093 67.3874 97.0764 67.8091 97.1108 68.2337L97.1192 68.233Z" fill="#37474F"/>
<path d="M107.076 72.6048L106.242 62.323L113.152 61.7629L113.294 63.5112L108.382 63.9094L108.597 66.5568L112.676 66.2261L112.808 67.8496L108.728 68.1803L109.073 72.4345L107.075 72.5965L107.076 72.6048Z" fill="#37474F"/>
<path d="M124.053 63.5861C123.981 63.5249 123.849 63.4434 123.665 63.341C123.48 63.2386 123.246 63.1403 122.988 63.0523C122.721 62.965 122.438 62.8874 122.132 62.8367C121.826 62.7861 121.515 62.7695 121.207 62.7944C120.657 62.839 120.257 62.9719 120 63.2023C119.749 63.4237 119.631 63.7266 119.661 64.0929C119.679 64.3094 119.743 64.4802 119.854 64.6053C119.965 64.7387 120.125 64.8514 120.324 64.9358C120.525 65.0285 120.774 65.1005 121.081 65.1678C121.379 65.2274 121.728 65.2997 122.127 65.3595C122.637 65.4523 123.107 65.565 123.527 65.6818C123.948 65.8069 124.313 65.97 124.615 66.1802C124.917 66.3904 125.164 66.6469 125.341 66.9594C125.517 67.272 125.632 67.6648 125.67 68.131C125.715 68.6805 125.645 69.1638 125.477 69.5713C125.3 69.9795 125.043 70.3188 124.713 70.5886C124.383 70.8583 123.989 71.0662 123.54 71.2116C123.091 71.3569 122.613 71.4544 122.113 71.4948C121.339 71.5576 120.572 71.5025 119.795 71.3308C119.027 71.1584 118.318 70.889 117.684 70.513L118.427 68.7182C118.517 68.7947 118.685 68.8984 118.921 69.0217C119.157 69.145 119.435 69.2649 119.762 69.3725C120.082 69.4891 120.433 69.578 120.815 69.6475C121.198 69.717 121.593 69.7269 121.984 69.6952C123.083 69.6061 123.604 69.2119 123.547 68.5043C123.529 68.2795 123.447 68.1017 123.309 67.9537C123.172 67.8056 122.978 67.6873 122.743 67.5889C122.501 67.4913 122.217 67.4053 121.877 67.3407C121.544 67.2671 121.17 67.1969 120.752 67.1134C120.25 67.0201 119.805 66.9053 119.435 66.7761C119.055 66.6476 118.74 66.4805 118.481 66.2836C118.222 66.0867 118.019 65.8518 117.879 65.5782C117.74 65.3045 117.646 64.9686 117.613 64.569C117.571 64.0445 117.633 63.5785 117.792 63.155C117.95 62.7316 118.19 62.377 118.517 62.0739C118.837 61.7798 119.22 61.5393 119.658 61.3613C120.104 61.1827 120.582 61.0769 121.106 61.0344C121.83 60.9757 122.506 61.0383 123.132 61.2138C123.758 61.3893 124.312 61.6125 124.787 61.8924L124.036 63.5874L124.053 63.5861Z" fill="#37474F"/>
<path d="M134.425 68.6197L134.566 70.368L127.423 70.9471L126.59 60.6653L133.6 60.0971L133.741 61.8454L128.73 62.2516L128.93 64.7243L133.259 64.3733L133.391 65.9968L129.062 66.3477L129.279 69.0285L134.424 68.6114L134.425 68.6197Z" fill="#37474F"/>
<path d="M136.123 70.2503L135.29 59.9686L139.835 59.6001C140.31 59.5616 140.751 59.6264 141.167 59.7939C141.582 59.9613 141.953 60.191 142.262 60.4928C142.58 60.7938 142.835 61.1419 143.034 61.5364C143.234 61.9308 143.351 62.3403 143.384 62.7566C143.438 63.4226 143.321 64.0439 143.032 64.612C142.744 65.1885 142.326 65.6162 141.771 65.9042L144.432 69.5769L142.184 69.7591L139.806 66.4824L137.833 66.6424L138.113 70.0891L136.115 70.251L136.123 70.2503ZM137.699 64.8851L140.205 64.6819C140.388 64.6671 140.56 64.6113 140.711 64.5069C140.862 64.4108 140.993 64.2745 141.098 64.1151C141.202 63.9558 141.28 63.7736 141.33 63.5684C141.38 63.3632 141.396 63.144 141.377 62.9109C141.358 62.6778 141.298 62.4481 141.207 62.2543C141.116 62.0606 140.993 61.8945 140.856 61.7548C140.711 61.6158 140.552 61.5113 140.378 61.4416C140.205 61.3718 140.027 61.3444 139.852 61.3585L137.429 61.5549L137.699 64.8851Z" fill="#37474F"/>
<path d="M145.729 59.1222L149.14 66.6727L151.257 58.6741L153.355 58.5041L150.176 69.1111L148.494 69.2475L143.623 59.293L145.721 59.1229L145.729 59.1222Z" fill="#37474F"/>
<path d="M155.296 68.6961L154.463 58.4143L156.461 58.2523L157.294 68.5341L155.296 68.6961Z" fill="#37474F"/>
<path d="M158.396 63.199C158.346 62.5746 158.411 61.9407 158.586 61.3064C158.761 60.6721 159.05 60.104 159.444 59.586C159.838 59.0681 160.339 58.6336 160.939 58.2833C161.539 57.9329 162.243 57.725 163.042 57.6603C163.991 57.5833 164.824 57.7253 165.549 58.0856C166.274 58.4458 166.834 58.9451 167.221 59.5842L165.774 60.7657C165.618 60.4851 165.432 60.2571 165.224 60.0728C165.016 59.8886 164.795 59.7472 164.561 59.6489C164.327 59.5506 164.087 59.4862 163.85 59.4552C163.604 59.4248 163.368 59.4104 163.135 59.4293C162.636 59.4698 162.203 59.6054 161.853 59.8433C161.495 60.0734 161.208 60.3648 160.993 60.7091C160.77 61.054 160.616 61.4352 160.525 61.8532C160.433 62.2713 160.399 62.6846 160.432 63.0926C160.469 63.5505 160.579 63.9773 160.755 64.3821C160.93 64.7869 161.168 65.1447 161.461 65.4394C161.753 65.7342 162.09 65.9666 162.48 66.1278C162.87 66.2889 163.286 66.3557 163.727 66.3199C163.961 66.301 164.199 66.2482 164.445 66.178C164.69 66.0995 164.924 65.9883 165.139 65.8452C165.353 65.7021 165.549 65.5271 165.732 65.3111C165.908 65.0957 166.047 64.8498 166.14 64.5573L167.848 65.3658C167.713 65.7622 167.508 66.1225 167.232 66.4465C166.948 66.7628 166.627 67.0403 166.261 67.2794C165.894 67.5103 165.499 67.7015 165.075 67.8449C164.65 67.9882 164.23 68.0725 163.814 68.1063C163.081 68.1657 162.394 68.0622 161.761 67.8034C161.128 67.5446 160.571 67.1792 160.09 66.7238C159.608 66.26 159.221 65.7216 158.928 65.1084C158.627 64.4959 158.458 63.8643 158.405 63.2066L158.396 63.199Z" fill="#37474F"/>
<path d="M176.366 65.2201L176.508 66.9684L169.365 67.5474L168.531 57.2656L175.541 56.6974L175.683 58.4457L170.671 58.852L170.871 61.3246L175.201 60.9737L175.332 62.5971L171.003 62.948L171.22 65.6288L176.365 65.2117L176.366 65.2201Z" fill="#37474F"/>
<path d="M36.5216 102.24C36.788 102.219 37.0087 102.151 37.1824 102.019C37.3568 101.896 37.4869 101.743 37.5892 101.559C37.6833 101.375 37.7504 101.169 37.7738 100.941C37.8055 100.712 37.8033 100.477 37.7837 100.236L37.5448 97.2887L38.6604 97.1982L38.8993 100.145C38.9317 100.545 38.9114 100.915 38.8482 101.272C38.7849 101.63 38.6594 101.941 38.4728 102.225C38.2856 102.5 38.0444 102.729 37.7402 102.904C37.436 103.08 37.0591 103.186 36.6095 103.222C36.16 103.259 35.7453 103.208 35.4161 103.076C35.0786 102.944 34.8029 102.748 34.5822 102.507C34.3608 102.256 34.1867 101.969 34.0751 101.626C33.9551 101.284 33.8845 100.929 33.8541 100.554L33.6152 97.6072L34.7392 97.5161L34.978 100.463C34.9976 100.705 35.0422 100.944 35.102 101.165C35.1619 101.387 35.2613 101.58 35.3837 101.746C35.5061 101.912 35.6674 102.041 35.8504 102.127C36.0423 102.221 36.2628 102.253 36.5209 102.232L36.5216 102.24Z" fill="#C7C7C7"/>
<path d="M43.3638 98.3505C43.3638 98.3505 43.2482 98.2677 43.1429 98.2092C43.0376 98.1506 42.908 98.1025 42.761 98.0474C42.6148 98.0006 42.4519 97.9551 42.282 97.927C42.1121 97.8988 41.9353 97.888 41.7604 97.9022C41.4524 97.9272 41.224 98.0044 41.0836 98.1331C40.9432 98.2618 40.8811 98.426 40.8979 98.6341C40.9074 98.7507 40.9405 98.8486 41.0055 98.9271C41.0698 98.9973 41.1592 99.0655 41.2721 99.115C41.3851 99.1645 41.523 99.212 41.6936 99.2484C41.8641 99.2849 42.0597 99.3193 42.2808 99.3601C42.57 99.412 42.8348 99.4744 43.0663 99.5394C43.3062 99.6038 43.5064 99.6965 43.6754 99.8169C43.8444 99.9372 43.9814 100.077 44.0795 100.253C44.186 100.429 44.2458 100.651 44.2674 100.917C44.2924 101.225 44.2557 101.496 44.1567 101.722C44.0577 101.948 43.9143 102.144 43.7253 102.293C43.5363 102.443 43.3196 102.561 43.0669 102.648C42.8143 102.736 42.5499 102.782 42.2668 102.805C41.8339 102.84 41.3956 102.809 40.9609 102.719C40.5255 102.62 40.1277 102.468 39.7751 102.253L40.1963 101.247C40.2503 101.293 40.339 101.353 40.4782 101.417C40.6099 101.49 40.7658 101.553 40.9467 101.613C41.1276 101.674 41.3245 101.725 41.5374 101.767C41.7502 101.808 41.977 101.815 42.1935 101.797C42.8096 101.747 43.1014 101.523 43.0697 101.131C43.0596 101.006 43.0175 100.901 42.9358 100.824C42.8541 100.747 42.7558 100.671 42.6179 100.623C42.4799 100.576 42.3247 100.521 42.1292 100.487C41.9413 100.443 41.7284 100.402 41.4982 100.354C41.2174 100.301 40.9692 100.237 40.7537 100.163C40.5381 100.088 40.3635 100.002 40.2202 99.8874C40.0769 99.7733 39.9572 99.6406 39.8777 99.4878C39.7983 99.335 39.7495 99.1462 39.7313 98.9215C39.7077 98.6301 39.736 98.3596 39.8343 98.1254C39.9244 97.8918 40.0587 97.6882 40.238 97.5228C40.4174 97.3574 40.6327 97.2227 40.884 97.1185C41.136 97.0226 41.4074 96.9587 41.6988 96.9351C42.1067 96.9021 42.4868 96.9383 42.8382 97.0355C43.1897 97.1327 43.5016 97.2583 43.7738 97.4122L43.3485 98.3685L43.3638 98.3505Z" fill="#C7C7C7"/>
<path d="M49.1991 101.179L49.2787 102.162L45.2659 102.487L44.7969 96.7007L48.7431 96.3808L48.8227 97.3632L46.0004 97.592L46.1131 98.9823L48.5441 98.7852L48.6184 99.701L46.1874 99.8981L46.3095 101.405L49.1984 101.171L49.1991 101.179Z" fill="#C7C7C7"/>
<path d="M50.1512 102.091L49.6822 96.3047L52.238 96.0976C52.5044 96.076 52.7506 96.1147 52.9925 96.204C53.226 96.294 53.4297 96.4284 53.611 96.598C53.7924 96.7677 53.9341 96.9657 54.0439 97.1831C54.1544 97.4087 54.2232 97.6378 54.2421 97.8709C54.2725 98.2455 54.2086 98.5943 54.0421 98.9179C53.8756 99.2414 53.6434 99.4781 53.3301 99.646L54.8217 101.712L53.5562 101.815L52.2168 99.9709L51.1095 100.061L51.2668 102L50.1428 102.092L50.1512 102.091ZM51.0382 99.0776L52.4452 98.9635C52.5451 98.9554 52.643 98.9223 52.7305 98.865C52.818 98.8076 52.8876 98.7349 52.9474 98.6463C53.0073 98.5576 53.0491 98.4537 53.0813 98.3337C53.1135 98.2138 53.1207 98.0959 53.1099 97.9627C53.0991 97.8295 53.064 97.7066 53.0129 97.5934C52.9619 97.4803 52.8955 97.3851 52.8138 97.3079C52.7321 97.2307 52.6435 97.1709 52.5478 97.1283C52.4522 97.0858 52.351 97.0773 52.2511 97.0854L50.894 97.1954L51.0459 99.0686L51.0382 99.0776Z" fill="#C7C7C7"/>
<path d="M58.4514 95.6023L59.4421 95.522L62.109 101.13L60.9518 101.224L60.2939 99.8273L58.2708 99.9913L57.8547 101.475L56.6975 101.569L58.4347 95.6036L58.4514 95.6023ZM60.0376 99.0436L59.0541 96.8356L58.4058 99.1759L60.0376 99.0436Z" fill="#C7C7C7"/>
<path d="M66.5003 100.112C66.0795 100.607 65.5573 100.884 64.9412 100.934C64.5582 100.965 64.1942 100.919 63.849 100.796C63.5038 100.673 63.1956 100.489 62.9242 100.242C62.6529 99.9963 62.4358 99.6955 62.2652 99.3489C62.0947 99.0024 61.988 98.6172 61.9543 98.201C61.9219 97.8013 61.9671 97.4289 62.0796 97.0595C62.1928 96.6983 62.3677 96.3741 62.5958 96.0875C62.824 95.8008 63.1068 95.5684 63.436 95.3909C63.7645 95.205 64.1331 95.0997 64.5327 95.0673C65.0739 95.0234 65.5495 95.1022 65.959 95.2953C66.3685 95.4883 66.6849 95.7728 66.9081 96.1485L66.1172 96.8328C65.9437 96.5535 65.7264 96.3533 65.4478 96.225C65.1692 96.0967 64.8801 96.0448 64.5721 96.0697C64.3306 96.0893 64.1099 96.1575 63.9105 96.2826C63.7188 96.3987 63.5555 96.5544 63.4205 96.7497C63.2938 96.9443 63.1934 97.1536 63.1374 97.3927C63.073 97.6326 63.06 97.8851 63.0809 98.1432C63.1018 98.4012 63.165 98.6643 63.2755 98.89C63.386 99.1156 63.5194 99.3143 63.6834 99.477C63.8475 99.6397 64.0414 99.7581 64.2576 99.8411C64.4739 99.9241 64.7027 99.9559 64.9525 99.9356C65.5103 99.8904 65.9965 99.5828 66.4036 99.0219L66.3705 98.6139L65.205 98.7084L65.1381 97.8842L67.2278 97.7148L67.4687 100.687L66.5363 100.763L66.4836 100.113L66.5003 100.112Z" fill="#C7C7C7"/>
<path d="M68.4441 100.608L67.9751 94.8221L70.531 94.6149C70.7974 94.5933 71.0436 94.632 71.2854 94.7214C71.519 94.8114 71.7226 94.9457 71.904 95.1154C72.0853 95.285 72.2271 95.483 72.3369 95.7004C72.4474 95.9261 72.5162 96.1551 72.5351 96.3882C72.5655 96.7629 72.5016 97.1116 72.3351 97.4352C72.1685 97.7588 71.9363 97.9955 71.6231 98.1633L73.1146 100.23L71.8492 100.332L70.5098 98.4882L69.4025 98.578L69.5597 100.518L68.4358 100.609L68.4441 100.608ZM69.3312 97.5949L70.7382 97.4808C70.8381 97.4727 70.936 97.4397 71.0235 97.3823C71.111 97.3249 71.1805 97.2522 71.2404 97.1636C71.3002 97.0749 71.3421 96.971 71.3743 96.8511C71.4065 96.7311 71.4137 96.6132 71.4029 96.48C71.3921 96.3468 71.357 96.224 71.3059 96.1108C71.2548 95.9976 71.1884 95.9024 71.1068 95.8252C71.0251 95.7481 70.9364 95.6882 70.8408 95.6457C70.7452 95.6031 70.6439 95.5946 70.544 95.6027L69.187 95.7127L69.3388 97.5859L69.3312 97.5949Z" fill="#C7C7C7"/>
<path d="M77.7967 98.8613L77.8764 99.8436L73.8635 100.169L73.3945 94.3828L77.3407 94.0629L77.4204 95.0453L74.5981 95.2741L74.7108 96.6644L77.1418 96.4674L77.216 97.3832L74.785 97.5802L74.9072 99.0871L77.796 98.8529L77.7967 98.8613Z" fill="#C7C7C7"/>
<path d="M82.6913 98.4643L82.7709 99.4467L78.7581 99.7719L78.2891 93.9858L82.2353 93.666L82.3149 94.6484L79.4926 94.8771L79.6053 96.2675L82.0363 96.0704L82.1105 96.9862L79.6795 97.1832L79.8017 98.6901L82.6906 98.456L82.6913 98.4643Z" fill="#C7C7C7"/>
<path d="M88.3647 98.9933L88.0543 95.1636L86.7949 98.1317L86.1871 98.1809L84.4661 95.4545L84.7765 99.2841L83.6526 99.3752L83.1836 93.5891L84.3908 93.4913L86.364 96.6414L87.8208 93.2132L89.0196 93.116L89.4887 98.9022L88.3647 98.9933Z" fill="#C7C7C7"/>
<path d="M94.6307 97.4965L94.7103 98.4789L90.6975 98.8042L90.2285 93.0181L94.1747 92.6982L94.2544 93.6806L91.4321 93.9094L91.5448 95.2997L93.9758 95.1026L94.05 96.0184L91.619 96.2155L91.7411 97.7224L94.63 97.4882L94.6307 97.4965Z" fill="#C7C7C7"/>
<path d="M96.4176 94.6116L96.7179 98.3163L95.594 98.4074L95.125 92.6213L95.9992 92.5505L99.3207 96.1025L99.0136 92.3145L100.138 92.2234L100.606 98.0012L99.6901 98.0754L96.4176 94.6116Z" fill="#C7C7C7"/>
<path d="M105.743 92.7576L103.895 92.9074L104.284 97.7028L103.168 97.7932L102.779 92.9979L100.931 93.1477L100.852 92.1653L105.664 91.7752L105.743 92.7576Z" fill="#C7C7C7"/>
<path d="M66.5042 277.156L66.0352 271.37L68.1331 271.2C68.6077 271.162 69.0217 271.204 69.3918 271.325C69.762 271.445 70.0702 271.63 70.3326 271.868C70.5949 272.107 70.7947 272.401 70.948 272.74C71.0929 273.081 71.1898 273.45 71.2222 273.849C71.258 274.291 71.2238 274.696 71.1189 275.056C71.0147 275.425 70.8475 275.74 70.6187 276.018C70.3892 276.288 70.1057 276.513 69.7668 276.674C69.4286 276.844 69.0427 276.942 68.6098 276.977L66.5118 277.147L66.5042 277.156ZM70.0907 273.949C70.0684 273.675 70.0058 273.42 69.912 273.193C69.8182 272.966 69.6854 272.776 69.5304 272.621C69.3671 272.466 69.1814 272.347 68.9575 272.273C68.7337 272.199 68.4882 272.169 68.2134 272.191L67.2394 272.27L67.5485 276.083L68.5225 276.004C68.7973 275.982 69.043 275.912 69.2513 275.794C69.4597 275.677 69.6237 275.529 69.7601 275.351C69.8874 275.164 69.9795 274.956 70.0438 274.716C70.0999 274.477 70.1212 274.224 70.099 273.949L70.0907 273.949Z" fill="#FFC727"/>
<path d="M76.2733 275.376L76.3529 276.358L72.3401 276.684L71.8711 270.897L75.8173 270.578L75.8969 271.56L73.083 271.788L73.1957 273.178L75.635 272.981L75.7092 273.896L73.2699 274.094L73.392 275.601L76.2809 275.367L76.2733 275.376Z" fill="#FFC727"/>
<path d="M76.5147 273.395C76.4864 273.046 76.5247 272.69 76.6212 272.331C76.7184 271.979 76.8849 271.656 77.1041 271.361C77.3233 271.067 77.6054 270.826 77.9499 270.631C78.2861 270.436 78.6873 270.32 79.1368 270.283C79.6697 270.24 80.137 270.319 80.5472 270.521C80.9574 270.722 81.2654 271.007 81.4873 271.366L80.6693 272.028C80.5809 271.867 80.4785 271.741 80.3615 271.642C80.2445 271.543 80.1205 271.46 79.9903 271.404C79.86 271.347 79.7227 271.308 79.5875 271.294C79.4516 271.272 79.3177 271.274 79.1845 271.285C78.9015 271.308 78.6647 271.386 78.4571 271.511C78.2584 271.645 78.0957 271.809 77.9683 271.995C77.8416 272.19 77.7586 272.406 77.7019 272.637C77.6542 272.875 77.6308 273.104 77.6497 273.337C77.6706 273.595 77.7318 273.833 77.8346 274.068C77.9368 274.294 78.0702 274.493 78.2349 274.664C78.3996 274.835 78.5859 274.962 78.8111 275.053C79.0281 275.144 79.2659 275.183 79.5156 275.163C79.6489 275.152 79.7807 275.125 79.9195 275.08C80.0584 275.035 80.1875 274.975 80.3063 274.89C80.4258 274.813 80.5433 274.711 80.6421 274.586C80.7415 274.469 80.8133 274.321 80.8671 274.157L81.8344 274.615C81.7603 274.839 81.6427 275.041 81.4896 275.221C81.3283 275.402 81.1483 275.559 80.9489 275.684C80.7419 275.818 80.5239 275.919 80.2789 275.998C80.0421 276.076 79.8034 276.129 79.5703 276.148C79.154 276.181 78.7726 276.128 78.4171 275.981C78.0616 275.834 77.752 275.633 77.4793 275.37C77.2066 275.107 76.9895 274.806 76.8273 274.459C76.6567 274.113 76.5611 273.76 76.5307 273.386L76.5147 273.395Z" fill="#FFC727"/>
<path d="M82.6956 275.844L82.2266 270.058L83.3505 269.967L83.7392 274.762L86.6864 274.523L86.766 275.506L82.6949 275.836L82.6956 275.844Z" fill="#FFC727"/>
<path d="M87.4514 275.459L86.9824 269.673L88.1063 269.582L88.5754 275.368L87.4514 275.459Z" fill="#FFC727"/>
<path d="M90.6071 271.474L90.9074 275.179L89.7835 275.27L89.3145 269.484L90.1886 269.413L93.5101 272.965L93.2031 269.177L94.327 269.086L94.7953 274.863L93.8795 274.938L90.6071 271.474Z" fill="#FFC727"/>
<path d="M99.9334 273.458L100.013 274.44L96.0003 274.766L95.5312 268.979L99.4775 268.66L99.5571 269.642L96.7348 269.871L96.8475 271.261L99.2785 271.064L99.3527 271.98L96.9217 272.177L97.0439 273.684L99.9328 273.45L99.9334 273.458Z" fill="#FFC727"/>
<path d="M190.98 98.6952L34.1973 111.404L34.3424 113.194L191.125 100.485L190.98 98.6952Z" fill="#EBEBEB"/>
<path d="M191.351 103.274L34.5684 115.983L34.7134 117.773L191.496 105.064L191.351 103.274Z" fill="#EBEBEB"/>
<path d="M191.722 107.861L34.9395 120.57L35.0845 122.36L191.867 109.651L191.722 107.861Z" fill="#EBEBEB"/>
<path d="M192.093 112.44L35.3105 125.149L35.4556 126.939L192.238 114.23L192.093 112.44Z" fill="#EBEBEB"/>
<path d="M192.466 117.019L35.6836 129.728L35.8287 131.518L192.611 118.809L192.466 117.019Z" fill="#EBEBEB"/>
<path d="M192.837 121.607L36.0547 134.315L36.1998 136.105L192.982 123.397L192.837 121.607Z" fill="#EBEBEB"/>
<path d="M193.208 126.185L36.4258 138.894L36.5709 140.684L193.353 127.975L193.208 126.185Z" fill="#EBEBEB"/>
<path d="M193.579 130.773L36.7969 143.481L36.942 145.271L193.725 132.563L193.579 130.773Z" fill="#EBEBEB"/>
<path d="M193.951 135.352L37.168 148.06L37.3131 149.85L194.096 137.142L193.951 135.352Z" fill="#EBEBEB"/>
<path d="M194.324 139.939L37.541 152.647L37.6861 154.437L194.469 141.729L194.324 139.939Z" fill="#EBEBEB"/>
<path d="M134.802 149.373L37.9121 157.226L38.0572 159.016L134.947 151.162L134.802 149.373Z" fill="#EBEBEB"/>
<path d="M195.437 153.684L38.6543 166.393L38.7994 168.183L195.582 155.474L195.437 153.684Z" fill="#EBEBEB"/>
<path d="M195.81 158.271L39.0273 170.98L39.1724 172.77L195.955 160.061L195.81 158.271Z" fill="#EBEBEB"/>
<path d="M196.181 162.85L39.3984 175.559L39.5435 177.349L196.326 164.64L196.181 162.85Z" fill="#EBEBEB"/>
<path d="M196.552 167.437L39.7695 180.146L39.9146 181.936L196.697 169.227L196.552 167.437Z" fill="#EBEBEB"/>
<path d="M196.923 172.016L40.1406 184.725L40.2857 186.515L197.068 173.806L196.923 172.016Z" fill="#EBEBEB"/>
<path d="M197.294 176.595L40.5117 189.304L40.6568 191.094L197.439 178.385L197.294 176.595Z" fill="#EBEBEB"/>
<path d="M197.665 181.183L40.8828 193.891L41.0279 195.681L197.81 182.972L197.665 181.183Z" fill="#EBEBEB"/>
<path d="M198.036 185.762L41.2539 198.47L41.399 200.26L198.182 187.552L198.036 185.762Z" fill="#EBEBEB"/>
<path d="M138.517 195.204L41.627 203.057L41.772 204.847L138.662 196.994L138.517 195.204Z" fill="#EBEBEB"/>
<path d="M199.152 199.515L42.3691 212.224L42.5142 214.014L199.297 201.305L199.152 199.515Z" fill="#EBEBEB"/>
<path d="M199.523 204.094L42.7402 216.802L42.8853 218.592L199.668 205.884L199.523 204.094Z" fill="#EBEBEB"/>
<path d="M199.896 208.681L43.1133 221.39L43.2584 223.18L200.041 210.471L199.896 208.681Z" fill="#EBEBEB"/>
<path d="M200.267 213.26L43.4844 225.969L43.6295 227.759L200.412 215.05L200.267 213.26Z" fill="#EBEBEB"/>
<path d="M200.638 217.847L43.8555 230.556L44.0006 232.346L200.783 219.637L200.638 217.847Z" fill="#EBEBEB"/>
<path d="M201.009 222.426L44.2266 235.135L44.3717 236.925L201.154 224.216L201.009 222.426Z" fill="#EBEBEB"/>
<path d="M201.382 227.014L44.5996 239.722L44.7447 241.512L201.527 228.804L201.382 227.014Z" fill="#EBEBEB"/>
<path d="M141.861 236.447L44.9707 244.301L45.1158 246.091L142.006 238.237L141.861 236.447Z" fill="#EBEBEB"/>
<path d="M119.591 281.066L47.918 286.875L46.1816 265.454L117.854 259.645L119.591 281.066ZM48.6831 285.975L118.691 280.301L117.089 260.545L47.0817 266.219L48.6831 285.975Z" fill="#FFC727"/>
<path d="M203.53 253.119L132.689 258.861L134.358 279.45L205.199 273.708L203.53 253.119Z" fill="#FFC727"/>
<path d="M208.227 276.219L131.767 282.417L129.654 256.35L206.114 250.152L208.227 276.219ZM132.532 281.517L207.327 275.454L205.349 251.052L130.554 257.115L132.532 281.517Z" fill="#FFC727"/>
<path d="M155.291 264.135L156.282 264.055L158.949 269.663L157.792 269.757L157.134 268.361L155.111 268.525L154.695 270.008L153.537 270.102L155.275 264.137L155.291 264.135ZM156.878 267.585L155.895 265.377L155.246 267.717L156.878 267.585Z" fill="white"/>
<path d="M158.786 266.726C158.758 266.377 158.796 266.022 158.893 265.662C158.99 265.31 159.156 264.987 159.376 264.692C159.595 264.398 159.877 264.157 160.221 263.962C160.558 263.767 160.959 263.651 161.408 263.614C161.941 263.571 162.408 263.65 162.819 263.852C163.229 264.053 163.537 264.338 163.759 264.697L162.941 265.359C162.852 265.198 162.75 265.073 162.633 264.973C162.516 264.874 162.392 264.791 162.262 264.735C162.131 264.679 161.994 264.639 161.859 264.625C161.723 264.603 161.589 264.605 161.456 264.616C161.173 264.639 160.936 264.717 160.729 264.843C160.53 264.976 160.367 265.14 160.24 265.326C160.113 265.521 160.03 265.737 159.973 265.968C159.926 266.207 159.902 266.435 159.921 266.668C159.942 266.926 160.003 267.164 160.106 267.399C160.208 267.625 160.342 267.824 160.506 267.995C160.671 268.166 160.857 268.293 161.083 268.384C161.3 268.475 161.537 268.514 161.787 268.494C161.92 268.483 162.052 268.456 162.191 268.411C162.33 268.366 162.459 268.306 162.586 268.22C162.706 268.143 162.823 268.042 162.922 267.916C163.021 267.799 163.093 267.651 163.147 267.487L164.114 267.945C164.04 268.169 163.922 268.371 163.769 268.551C163.608 268.732 163.428 268.889 163.229 269.014C163.022 269.148 162.804 269.25 162.559 269.328C162.322 269.406 162.083 269.459 161.85 269.478C161.434 269.512 161.052 269.459 160.697 269.312C160.341 269.164 160.024 268.964 159.759 268.701C159.486 268.438 159.269 268.137 159.099 267.79C158.928 267.444 158.833 267.091 158.802 266.717L158.786 266.726Z" fill="white"/>
<path d="M164.323 266.278C164.295 265.928 164.333 265.573 164.43 265.213C164.527 264.862 164.694 264.538 164.913 264.244C165.132 263.949 165.414 263.709 165.758 263.513C166.095 263.318 166.496 263.202 166.945 263.166C167.478 263.122 167.946 263.202 168.356 263.403C168.766 263.605 169.074 263.89 169.296 264.249L168.478 264.91C168.389 264.75 168.287 264.624 168.17 264.524C168.053 264.425 167.929 264.343 167.799 264.286C167.669 264.23 167.531 264.191 167.396 264.176C167.26 264.154 167.126 264.156 166.993 264.167C166.71 264.19 166.473 264.268 166.266 264.394C166.067 264.527 165.904 264.691 165.777 264.878C165.65 265.072 165.567 265.288 165.511 265.519C165.463 265.758 165.439 265.986 165.458 266.219C165.479 266.477 165.54 266.715 165.643 266.95C165.745 267.176 165.879 267.375 166.044 267.546C166.208 267.717 166.395 267.844 166.62 267.935C166.837 268.026 167.074 268.066 167.324 268.045C167.457 268.035 167.589 268.007 167.728 267.962C167.867 267.918 167.996 267.857 168.123 267.771C168.243 267.694 168.36 267.593 168.459 267.467C168.558 267.35 168.63 267.202 168.684 267.039L169.651 267.497C169.577 267.72 169.46 267.923 169.307 268.103C169.145 268.283 168.965 268.44 168.766 268.566C168.559 268.7 168.341 268.801 168.096 268.88C167.859 268.957 167.62 269.01 167.387 269.029C166.971 269.063 166.59 269.01 166.234 268.863C165.879 268.716 165.561 268.515 165.296 268.252C165.024 267.989 164.806 267.688 164.636 267.342C164.465 266.995 164.37 266.642 164.339 266.268L164.323 266.278Z" fill="white"/>
<path d="M174.43 267.419L174.509 268.402L170.496 268.727L170.027 262.941L173.974 262.621L174.053 263.603L171.231 263.832L171.344 265.223L173.783 265.025L173.857 265.941L171.418 266.138L171.54 267.645L174.429 267.411L174.43 267.419Z" fill="white"/>
<path d="M175.391 268.33L174.922 262.544L177.37 262.346C177.636 262.324 177.882 262.363 178.124 262.452C178.358 262.542 178.561 262.676 178.743 262.846C178.924 263.016 179.066 263.214 179.175 263.431C179.286 263.657 179.355 263.886 179.374 264.119C179.393 264.36 179.371 264.605 179.298 264.846C179.234 265.085 179.125 265.295 178.982 265.491C178.838 265.679 178.659 265.844 178.451 265.97C178.235 266.097 177.998 266.175 177.732 266.196L176.367 266.307L176.524 268.247L175.4 268.338L175.391 268.33ZM176.278 265.317L177.577 265.211C177.785 265.195 177.953 265.097 178.073 264.92C178.201 264.742 178.248 264.503 178.225 264.22C178.213 264.07 178.178 263.948 178.127 263.834C178.076 263.721 178.01 263.626 177.928 263.549C177.855 263.471 177.767 263.42 177.663 263.386C177.568 263.352 177.467 263.343 177.367 263.351L176.11 263.453L176.262 265.326L176.278 265.317Z" fill="white"/>
<path d="M184.401 262.773L182.553 262.923L182.942 267.718L181.826 267.808L181.438 263.013L179.589 263.163L179.51 262.18L184.322 261.79L184.401 262.773Z" fill="white"/>
<path d="M202.382 29.3732L196.463 29.853L217.672 291.501L223.591 291.022L202.382 29.3732Z" fill="#DBDBDB"/>
<path d="M214.665 217.707C213.824 217.776 213.078 217.149 213.009 216.3L198.107 32.4515C198.038 31.6107 198.665 30.8643 199.514 30.7955C200.355 30.7273 201.101 31.354 201.17 32.2032L216.073 216.051C216.141 216.892 215.514 217.639 214.665 217.707Z" fill="#A6A6A6"/>
</svg>
