<svg width="51" height="50" viewBox="0 0 51 50" fill="none" xmlns="http://www.w3.org/2000/svg">
<circle cx="25.2812" cy="25" r="23.5" fill="#F4F844" stroke="#F8FAB1" stroke-width="3"/>
<path fill-rule="evenodd" clip-rule="evenodd" d="M13.5978 24.7915C13.5978 24.7375 13.6306 24.7876 13.6113 24.7915C13.6113 24.7915 13.5978 24.8492 13.5978 24.7915ZM21.5213 23.4587C21.5213 23.4048 21.5541 23.4549 21.5348 23.4587C21.5348 23.4587 21.5213 23.5165 21.5213 23.4587ZM13.995 20.9184C13.995 20.8645 14.0278 20.9146 14.0085 20.9184C14.0085 20.9184 13.995 20.9762 13.995 20.9184ZM22.3775 34.5578V40.3683C23.0254 40.5186 23.602 40.6765 24.2731 40.7882C26.2361 41.1117 28.7815 41.1984 30.4901 40.0563V33.9126C31.1553 33.5949 31.5082 33.4562 32.1908 33.0094L34.0286 31.5958C34.2272 31.4301 34.3988 31.2298 34.582 31.0449C34.8404 30.7869 35.3842 30.1205 35.5693 29.8643L36.0996 29.0824C36.3329 28.73 36.5296 28.3506 36.7186 27.9712C36.8208 27.767 36.9056 27.5802 36.9963 27.3741C37.085 27.1738 37.1467 26.9408 37.247 26.7501C36.9384 26.7501 35.7718 27.0775 35.4671 27.1796L34.4566 27.5224C33.5638 27.846 32.8349 28.2215 32.0154 28.6664C31.6316 28.8744 31.2652 29.1171 30.9104 29.354C30.1102 29.8875 30.4496 29.6217 30.3223 30.5558C30.3049 30.679 30.3069 30.8235 30.3069 30.9775C30.3069 31.1547 30.2856 31.2433 30.2856 31.4147L30.3069 31.8307C30.3088 31.9752 30.2953 32.1485 30.3069 32.2891C30.33 32.5568 30.3493 32.8457 30.3705 33.1211C30.3898 33.3657 30.4148 33.6661 30.4727 33.9146C30.4168 33.928 30.4052 33.9358 30.3531 33.9627C30.3416 33.9685 30.3126 33.9858 30.2991 33.9916C29.8653 34.2208 29.389 34.3691 28.9146 34.5058C28.5193 34.6214 28.1471 34.6907 27.7306 34.76C27.5088 34.7966 27.3141 34.812 27.0846 34.8429L26.427 34.8929C26.1706 34.8929 25.9835 34.9141 25.7174 34.9141C25.4532 34.9141 25.2642 34.8929 25.0078 34.8929C24.5893 34.8949 22.5896 34.6715 22.3775 34.5232C22.2522 34.4346 20.3181 32.4624 19.9362 32.0869C19.863 32.0137 19.8302 31.9578 19.7588 31.8885C19.6277 31.7595 19.5139 31.6439 19.3828 31.5149L18.7465 30.8369C18.5208 30.5923 18.1255 30.2014 17.9462 29.9683C17.9057 29.9144 17.9038 29.9144 17.8594 29.8682C17.1671 29.1248 16.2897 27.7555 15.825 26.8406C15.206 25.6235 14.7182 24.36 14.3865 23.0312C14.3595 22.9233 14.3383 22.8232 14.3151 22.7269C14.2939 22.6383 14.2553 22.5015 14.2476 22.4187C14.076 22.5458 13.8465 23.1718 13.781 23.3894C13.6672 23.7707 13.6016 24.1809 13.6016 24.6682L13.5592 24.1058C13.5592 23.4086 13.7598 22.7172 14.0683 22.1992C14.1782 22.0162 14.1763 22.074 14.1339 21.8236C14.1088 21.6753 14.0914 21.5617 14.0683 21.4095C14.0452 21.2516 14.0182 21.1264 14.0182 20.9608C14.0914 21.0648 14.1204 21.2439 14.1609 21.3595C14.2091 21.4943 14.2766 21.6329 14.3093 21.7735C14.4077 21.708 14.5002 21.5386 14.5851 21.4461L14.9785 21.0686C15.179 20.9069 15.3854 20.7489 15.6148 20.6218C16.9126 19.8996 18.5208 19.9593 19.7665 20.7566C19.9594 20.8799 20.1271 21.0436 20.3123 21.1688C20.3605 21.0763 20.4068 21.0166 20.4704 20.93L20.9023 20.3406C20.9332 20.3021 20.9621 20.254 21.0007 20.2521C20.9506 20.3638 20.9101 20.5121 20.8676 20.6392C20.8194 20.7855 20.6034 21.3922 20.615 21.5001C20.6208 21.554 20.804 21.7581 20.8464 21.8217C21.0065 22.0528 21.1337 22.2781 21.2591 22.5343C21.3304 22.6826 21.5194 23.2122 21.5233 23.3952L21.3381 22.9349C21.2475 22.7153 21.1299 22.5092 20.9988 22.3166C20.9698 22.2743 20.9583 22.2608 20.9274 22.2203C20.8985 22.1799 20.8869 22.1587 20.858 22.1221C20.777 22.0162 20.6497 21.8429 20.5417 21.7716C20.4434 21.9777 20.2024 23.4491 20.1754 23.634C19.9845 24.9975 19.9555 26.6307 20.1387 28.0039C20.1792 28.3043 20.2101 28.5528 20.2583 28.8436L20.3701 29.4406C20.4164 29.639 20.5822 29.6852 20.7461 29.795C21.18 30.0839 21.6235 30.3555 22.0786 30.6097C22.1403 30.6443 22.1828 30.6578 22.2425 30.6963C22.4508 30.8215 22.6668 30.9082 22.877 31.0199C22.9001 30.9236 22.9348 30.835 22.9676 30.7368C23.0042 30.6289 23.0293 30.5365 23.0621 30.4344L23.386 29.2172C24.0475 26.3303 23.9144 23.0446 22.9792 20.2386C22.5935 19.0869 22.1558 18.0758 21.5695 17.0184C20.9698 15.9361 19.971 14.5725 19.0974 13.6981C18.9547 13.5556 18.8352 13.3919 18.679 13.2629C18.5208 13.13 18.3859 12.9721 18.2239 12.843C18.112 12.7544 18.031 12.6485 17.9134 12.5695C17.7977 12.6312 17.6994 12.7275 17.5914 12.8103L16.1567 14.1873C15.7807 14.5571 15.1983 15.391 14.9361 15.7993C14.2322 16.8952 13.7251 18.1181 13.3895 19.3777C13.2063 20.0633 13.0347 21.1072 13.0135 21.8352C13.0077 22.0278 13.0231 22.2184 13 22.3821L13.0424 23.4741C13.0617 23.6243 13.0791 23.8266 13.0983 23.9806C13.1196 24.1578 13.1408 24.3023 13.1658 24.4756C13.4146 26.2417 14.2727 28.2889 15.3063 29.6891L15.9253 30.4864C16.095 30.7021 16.2782 30.8928 16.471 31.0873C16.5655 31.1817 16.6407 31.2895 16.7429 31.38L17.1922 31.7845C18.0812 32.6454 19.5332 33.5063 20.6806 33.9858C21.1511 34.1823 21.6602 34.3575 22.1519 34.4943C22.2155 34.5135 22.3293 34.5366 22.3795 34.5598L22.3775 34.5578ZM24.4216 17.627C24.4216 17.2129 24.7436 16.8355 25.1524 16.8355C25.4841 16.8355 25.7425 16.951 25.8967 17.2592C26.1262 17.7156 25.8158 18.3762 25.1948 18.3762C24.7745 18.3762 24.4235 17.9891 24.4235 17.627H24.4216ZM30.6559 13.0241L29.3716 14.9904C29.1634 15.3409 28.8722 15.9033 28.7141 16.2904C28.6543 16.4329 28.5829 16.5832 28.5174 16.7392C28.3361 17.1706 28.1143 17.7252 27.9909 18.1721C27.9446 18.3415 27.8906 18.5052 27.8424 18.6709C27.586 19.5452 27.3854 20.4851 27.2986 21.398L27.2427 21.9873C27.1964 22.2974 27.181 23.5858 27.1907 23.9171L27.2813 25.14C27.3777 25.9162 27.4818 26.65 27.6631 27.3626C27.827 28.0097 28.0141 28.626 28.2358 29.248C28.2647 29.327 28.2358 29.3097 28.2956 29.354C28.3322 28.9052 28.6851 27.8132 28.824 27.3414C29.0264 26.6558 29.2926 26.1377 29.549 25.504C29.7341 25.0457 30.1642 24.2965 30.4341 23.8478C30.6752 23.4472 30.9374 23.0774 31.1978 22.696C31.2865 22.5651 31.3771 22.4534 31.4735 22.3263C31.7415 21.9661 32.0308 21.6195 32.3355 21.2921C32.6382 20.9666 32.9371 20.6083 33.2746 20.3137C33.5021 20.1134 33.7181 19.8919 33.9591 19.7051C34.3178 19.4258 34.6572 19.1235 35.0313 18.8596C35.6002 18.459 36.1787 18.0815 36.7899 17.7426C36.869 17.6983 36.9191 17.654 37.0117 17.6328C36.9596 17.4075 36.5142 16.587 36.4216 16.4118C36.2114 16.0189 35.9627 15.6529 35.7101 15.2889C35.523 15.0193 35.3244 14.7805 35.1239 14.5224C35.0776 14.4627 35.0621 14.4531 35.0178 14.4011L34.5897 13.9119C34.287 13.6057 33.9842 13.3052 33.6622 13.0298L33.5368 12.9239C33.2071 12.635 32.8446 12.3943 32.4936 12.1343C32.401 12.0649 32.3123 12.0187 32.2159 11.9532C31.3732 11.3851 30.4438 10.9652 29.4179 10.6243C27.4973 9.98302 25.2758 9.79813 23.0081 10.2469C21.5426 10.5377 20.2795 11.0538 19.0608 11.7818C18.9605 11.8415 18.8795 11.8897 18.7792 11.9571C18.625 12.0592 18.0715 12.3923 17.979 12.531C18.0368 12.6119 18.2104 12.6928 18.2991 12.7525C18.6288 12.9721 18.9586 13.2051 19.2671 13.4516C19.5737 13.6981 19.8957 13.9369 20.1831 14.2046C20.2853 14.299 20.3759 14.3761 20.4742 14.4762C20.5707 14.5744 20.6574 14.638 20.7558 14.7362L22.339 16.5081C22.4238 16.614 22.4971 16.718 22.58 16.8297C22.9753 17.3555 23.3398 17.9198 23.6695 18.4898L23.9626 19.031C23.9973 19.0984 24.032 19.1466 24.0667 19.2178C24.1285 19.343 24.1998 19.4682 24.2519 19.5953C24.4061 19.9766 24.599 20.3599 24.7571 20.7566C24.8092 20.8857 24.8574 21.0224 24.9114 21.163L25.1871 21.9912C25.2488 22.2165 25.4166 22.6729 25.4204 22.8829H25.4629C25.4629 22.5805 25.702 21.5963 25.7714 21.3171C26.1648 19.7436 26.6314 18.6651 27.3604 17.2592C27.4086 17.1648 27.4741 17.0569 27.5262 16.9664C27.5879 16.8605 27.638 16.7738 27.7036 16.6641C27.8251 16.4638 27.9389 16.2808 28.0661 16.0882C28.3766 15.6221 28.7044 15.1772 29.0534 14.742C29.1286 14.6495 29.1923 14.5725 29.2675 14.4781L29.925 13.7405C30.0581 13.5652 30.2432 13.4131 30.3994 13.2571C30.4669 13.1878 30.5614 13.0568 30.654 13.0318L30.6559 13.0241ZM33.1377 24.6451C33.4693 24.6451 33.7162 24.8184 33.8531 25.0746C34.0016 25.348 33.9553 25.739 33.7586 25.9509C33.4115 26.3226 32.8735 26.3245 32.5495 25.9605C32.1099 25.4675 32.4647 24.6432 33.1377 24.6432V24.6451ZM30.6366 28.0174L32.1099 27.4261C33.7085 26.8984 35.1335 26.5691 36.8497 26.4766C36.9307 26.4728 37.0194 26.4805 37.1004 26.4766C37.1968 26.4709 37.2296 26.4555 37.3492 26.4555L37.6037 25.5849C37.9682 24.1713 38.1031 22.542 37.9161 21.0571C37.8177 20.2732 37.6828 19.5433 37.4514 18.8153L37.1968 18.07C37.164 17.9814 37.1197 17.8928 37.1004 17.8119C36.9943 17.8678 36.8979 17.9563 36.8015 18.0334L36.3753 18.3781C36.3233 18.4243 36.2789 18.4532 36.2288 18.5033C36.1729 18.5592 36.1478 18.5688 36.0938 18.6189C35.7833 18.8923 35.1663 19.4701 34.904 19.7841L34.6553 20.0556C34.6051 20.1095 34.5781 20.1288 34.5357 20.1846C34.3969 20.3676 34.1346 20.643 33.9399 20.9011C33.5908 21.3633 33.4076 21.606 33.0682 22.1125C32.9255 22.3263 32.8041 22.5323 32.6691 22.7538L32.2931 23.4202C32.1658 23.6301 32.0559 23.8882 31.944 24.1116L31.782 24.4698C31.1515 26.0183 31.0531 26.2378 30.6385 28.0135L30.6366 28.0174ZM16.5616 24.1443C16.5616 23.322 17.6531 23.1332 17.9501 23.8189C18.0812 24.1193 17.9905 24.4352 17.8151 24.6258C17.5297 24.9398 16.9435 24.9051 16.7101 24.5565C16.6696 24.4949 16.6426 24.4621 16.6137 24.3812C16.5964 24.3312 16.5597 24.1963 16.5597 24.1443H16.5616ZM14.4983 22.1645C14.5022 22.3359 15.1405 23.5781 15.1983 23.6725C15.4124 24.0288 15.5531 24.335 15.8115 24.726L17.4545 26.96C17.5432 27.0698 17.6203 27.1584 17.7148 27.2624L17.9809 27.559L18.3569 25.9143C18.596 24.9494 18.9875 23.7457 19.379 22.852C19.4329 22.7288 19.4812 22.6363 19.5332 22.5073C19.6451 22.2396 20.0462 21.5829 20.0674 21.5001L19.5911 21.371C19.4407 21.3325 19.2613 21.2959 19.0897 21.2689C18.7349 21.2112 18.0812 21.1457 17.7283 21.1861C17.6415 21.1958 17.5509 21.1823 17.4641 21.1919C16.4826 21.2998 15.7305 21.5001 14.8608 21.9661C14.7991 22.0008 14.7471 22.0316 14.6892 22.0643C14.6352 22.0952 14.5658 22.1491 14.5002 22.1664L14.4983 22.1645Z" fill="#0965A0"/>
</svg>
