<svg width="263" height="263" viewBox="0 0 263 263" fill="none" xmlns="http://www.w3.org/2000/svg">
<circle cx="131.5" cy="131.5" r="131.5" fill="#006241"/>
<path d="M166 147.24C166 163.68 152.8 175.2 131.2 175.2C109.48 175.2 95.92 163.56 94.6 145.32H113.08C113.56 154.8 119.68 160.92 130.84 160.92C140.08 160.92 146.68 156.84 146.68 149.88C146.68 144.48 142.48 141.24 135.16 139.8L121 137.04C107.92 134.52 97.84 127.44 97.84 113.16C97.84 97.8 111.4 86.76 130 86.76C149.32 86.76 163.48 98.04 164.68 116.04H146.2C145.6 107.04 139.36 100.92 130.24 100.92C121.36 100.92 116.32 105.96 116.32 111.96C116.32 117.84 121.72 120.36 127.96 121.56L142.72 124.56C157.84 127.56 166 134.52 166 147.24Z" fill="white"/>
</svg>
