<svg width="29" height="34" viewBox="0 0 29 34" fill="none" xmlns="http://www.w3.org/2000/svg">
<path d="M13.7183 23.3992H9.25719V33.7924H0V-0.289062H13.7183C16.7869 -0.289062 19.4234 0.146209 21.6277 1.01676C23.689 1.77324 25.4599 3.12641 26.6996 4.89228C27.8793 6.61811 28.4678 8.76268 28.4652 11.326C28.4625 13.8893 27.874 16.072 26.6996 17.8743C25.4754 19.7017 23.7124 21.1305 21.6395 21.975C19.4274 22.9219 16.7869 23.3967 13.7183 23.3992ZM13.6671 7.25958H9.25719V15.8506H13.6671C15.5062 15.8506 16.8947 15.4395 17.8326 14.6173C18.2954 14.2204 18.6624 13.7298 18.9076 13.1801C19.1528 12.6304 19.2701 12.0352 19.2513 11.4367C19.2833 10.8505 19.1713 10.2652 18.9247 9.72892C18.6781 9.19265 18.3039 8.72064 17.8326 8.35159C16.8842 7.62358 15.4956 7.25958 13.6671 7.25958Z" fill="#006241"/>
</svg>
