<svg width="220" height="327" viewBox="0 0 220 327" fill="none" xmlns="http://www.w3.org/2000/svg">
<g style="mix-blend-mode:hard-light">
<mask id="mask0_1145_8263" style="mask-type:luminance" maskUnits="userSpaceOnUse" x="71" y="243" width="99" height="54">
<path d="M97.6142 292.334C89.0514 287.671 80.4613 283.008 71.8984 278.345C79.2614 282.354 87.5788 283.69 96.9052 282.381C117.249 279.517 132.711 266.701 143.292 243.848L169.007 257.838C158.427 280.69 142.964 293.507 122.621 296.37C113.295 297.679 104.977 296.343 97.6142 292.334Z" fill="white"/>
</mask>
<g mask="url(#mask0_1145_8263)">
<path d="M97.6142 292.334L71.8984 278.345C72.3348 278.59 72.7984 278.836 73.2619 279.054L98.9777 293.043C98.5141 292.825 98.0778 292.58 97.6142 292.334Z" fill="#292C7B"/>
<path d="M98.9775 293.016L73.2617 279.026C75.4979 280.117 77.8158 280.99 80.2156 281.617L105.931 295.607C103.532 294.979 101.214 294.107 98.9775 293.016Z" fill="#2A2C7C"/>
<path d="M105.934 295.607L80.2188 281.617C85.3728 282.954 90.9359 283.199 96.9081 282.354C102.471 281.563 107.653 280.036 112.479 277.772L138.195 291.762C133.368 294.025 128.16 295.552 122.624 296.343C116.652 297.189 111.089 296.943 105.934 295.607Z" fill="#2A2D7D"/>
<path d="M138.194 291.762L112.479 277.773C115.069 276.546 117.551 275.128 119.923 273.491L145.639 287.481C143.266 289.117 140.785 290.535 138.194 291.762Z" fill="#2A2C7C"/>
<path d="M145.636 287.481L119.92 273.491C121.829 272.155 123.683 270.71 125.483 269.101L151.199 283.09C149.426 284.699 147.572 286.144 145.636 287.481Z" fill="#292C7B"/>
<path d="M151.2 283.09L125.484 269.1C127.175 267.573 128.839 265.91 130.42 264.11L156.136 278.099C154.554 279.899 152.918 281.563 151.2 283.09Z" fill="#292C7B"/>
<path d="M156.14 278.099L130.424 264.11C132.115 262.173 133.751 260.101 135.305 257.892L161.021 271.882C159.467 274.091 157.83 276.163 156.14 278.099Z" fill="#292C7A"/>
<path d="M161.017 271.882L135.301 257.893C137.155 255.22 138.928 252.357 140.591 249.275L166.307 263.265C164.643 266.346 162.871 269.237 161.017 271.882Z" fill="#292B79"/>
<path d="M166.306 263.265L140.59 249.275C141.517 247.53 142.444 245.73 143.29 243.848L169.005 257.838C168.133 259.72 167.233 261.519 166.306 263.265Z" fill="#282B79"/>
</g>
<mask id="mask1_1145_8263" style="mask-type:luminance" maskUnits="userSpaceOnUse" x="123" y="34" width="63" height="224">
<path d="M123.928 34.2502C132.491 38.9134 141.081 43.5766 149.643 48.2398C157.47 52.494 164.069 59.6933 169.387 69.8105C179.913 89.8268 185.122 120.478 185.04 161.793C184.958 202.971 179.613 234.986 169.033 257.811L143.317 243.821C153.898 220.996 159.243 188.981 159.324 147.803C159.406 106.462 154.17 75.8372 143.671 55.8209C138.354 45.7037 131.782 38.5044 123.928 34.2502Z" fill="white"/>
</mask>
<g mask="url(#mask1_1145_8263)">
<path d="M169.003 257.811L143.287 243.821C144.651 240.904 145.932 237.822 147.105 234.577L172.821 248.566C171.621 251.784 170.366 254.866 169.003 257.811Z" fill="#282B79"/>
<path d="M172.823 248.566L147.107 234.577C155.179 212.624 159.242 183.691 159.297 147.803C159.379 106.462 154.143 75.8374 143.644 55.8212C138.326 45.7039 131.754 38.5046 123.9 34.2505L149.616 48.2401C157.443 52.4942 164.042 59.6935 169.36 69.8107C179.886 89.827 185.095 120.479 185.013 161.793C184.931 197.708 180.868 226.614 172.823 248.566Z" fill="#282B78"/>
</g>
<mask id="mask2_1145_8263" style="mask-type:luminance" maskUnits="userSpaceOnUse" x="0" y="0" width="169" height="319">
<path d="M78.3558 318.65C69.793 313.986 61.2029 309.323 52.6401 304.66C42.7138 299.26 34.0146 291.079 26.5153 280.09C9.33511 254.892 0.772286 218.105 0.854096 169.673C0.935907 121.541 9.58054 82.4356 26.7607 52.4112C43.9409 22.4141 67.366 5.28842 97.0631 1.11609C114.352 -1.31095 129.487 1.00701 142.441 8.04271C151.003 12.7059 159.594 17.3691 168.156 22.0323C155.203 14.9693 140.068 12.6786 122.779 15.1057C93.0817 19.278 69.6567 36.3764 52.4765 66.4008C35.2963 96.4252 26.6789 135.503 26.5698 183.662C26.488 232.067 35.0236 268.854 52.231 294.079C59.7303 305.069 68.4295 313.25 78.3558 318.65Z" fill="white"/>
</mask>
<g mask="url(#mask2_1145_8263)">
<path d="M78.3558 318.65L52.6401 304.66C42.7138 299.261 34.0146 291.08 26.5153 280.09C9.33511 254.892 0.772286 218.105 0.854096 169.673C0.935907 133.976 5.68091 103.27 15.1436 77.5544L40.8594 91.544C31.3966 117.287 26.6516 147.993 26.5698 183.663C26.488 232.067 35.0236 268.854 52.231 294.079C59.7303 305.069 68.4295 313.25 78.3558 318.65Z" fill="#282B78"/>
<path d="M40.8329 91.5442L15.1172 77.5547C17.926 69.919 21.1439 62.6924 24.7708 55.9294L50.4866 69.919C46.8596 76.682 43.6145 83.8813 40.8057 91.5442" fill="#282B79"/>
<path d="M50.5107 69.919L24.7949 55.9294C25.4221 54.7296 26.0766 53.5569 26.7311 52.4116C28.9127 48.621 31.1761 45.0487 33.5486 41.6399L59.2644 55.6295C56.8919 59.011 54.6285 62.5834 52.4468 66.3739C51.7924 67.5465 51.1379 68.7191 50.5107 69.8918" fill="#292B79"/>
<path d="M59.2665 55.6565L33.5508 41.6669C36.1414 37.9855 38.8412 34.5494 41.65 31.3315L67.3657 45.3211C64.5297 48.5117 61.8299 51.9478 59.2665 55.6565Z" fill="#292C7A"/>
<path d="M67.3681 45.321L41.6523 31.3314C44.2703 28.3589 46.9973 25.6047 49.8334 23.0413L75.5491 37.0308C72.713 39.5942 69.986 42.3485 67.3681 45.321Z" fill="#292C7B"/>
<path d="M75.5751 37.0312L49.8594 23.0416C52.8045 20.3964 55.8861 17.9421 59.0494 15.7605L84.7652 29.7501C81.6018 31.9317 78.5203 34.386 75.5751 37.0312Z" fill="#292C7B"/>
<path d="M84.7626 29.7496L59.0469 15.76C62.9738 13.0602 67.0643 10.6877 71.3184 8.69702L97.0342 22.6866C92.78 24.6773 88.6895 27.0498 84.7626 29.7496Z" fill="#2A2C7C"/>
<path d="M97.0341 22.6867L71.3184 8.69708C79.3085 4.9338 87.8713 2.42495 97.0614 1.11598C108.324 -0.465685 118.659 -0.0293633 128.095 2.39768L153.811 16.3873C144.375 13.9602 134.04 13.5239 122.777 15.1056C113.587 16.3873 105.024 18.9234 97.0341 22.6867Z" fill="#2A2D7D"/>
<path d="M153.786 16.3873L128.07 2.39771C132.27 3.48851 136.306 4.98837 140.151 6.87001L165.867 20.8596C162.022 18.9779 158.013 17.4781 153.786 16.3873Z" fill="#2A2C7C"/>
<path d="M165.866 20.8599L140.15 6.87036C140.914 7.25214 141.678 7.6612 142.441 8.07025L168.157 22.0598C167.393 21.6508 166.63 21.2417 165.866 20.8599Z" fill="#292C7B"/>
</g>
<path d="M193.735 46.0296C210.752 70.9 219.206 107.769 219.124 156.61C219.042 205.287 210.479 244.583 193.408 274.444C176.364 304.332 152.857 321.376 122.915 325.576C92.9722 329.803 69.4108 319.276 52.2306 294.106C35.0231 268.908 26.4603 232.094 26.5694 183.689C26.6512 135.53 35.2958 96.4521 52.476 66.4277C69.6562 36.4033 93.0812 19.3049 122.778 15.1326C153.103 10.8784 176.746 21.1593 193.763 46.0569L193.735 46.0296ZM169.001 257.809C179.582 234.984 184.927 202.969 185.009 161.791C185.091 120.45 179.855 89.8255 169.356 69.8092C158.857 49.8202 143.422 41.2573 123.078 44.1207C103.471 46.875 88.2272 60.0192 77.2646 83.5806C66.2747 107.142 60.7661 138.775 60.6843 178.453C60.6025 218.431 66.002 248.756 76.9101 269.454C87.7908 290.152 103.008 299.124 122.615 296.369C142.958 293.506 158.421 280.689 169.001 257.837" fill="#2C2F84"/>
</g>
<g style="mix-blend-mode:darken">
<mask id="mask3_1145_8263" style="mask-type:luminance" maskUnits="userSpaceOnUse" x="71" y="243" width="99" height="54">
<path d="M97.6142 292.334C89.0514 287.671 80.4613 283.008 71.8984 278.345C79.2614 282.354 87.5788 283.69 96.9052 282.381C117.249 279.517 132.711 266.701 143.292 243.848L169.007 257.838C158.427 280.69 142.964 293.507 122.621 296.37C113.295 297.679 104.977 296.343 97.6142 292.334Z" fill="white"/>
</mask>
<g mask="url(#mask3_1145_8263)">
<path d="M97.6142 292.334L71.8984 278.345C72.3348 278.59 72.7984 278.836 73.2619 279.054L98.9777 293.043C98.5141 292.825 98.0778 292.58 97.6142 292.334Z" fill="#279C68"/>
<path d="M98.9775 293.016L73.2617 279.026C75.4979 280.117 77.8158 280.99 80.2156 281.617L105.931 295.607C103.532 294.979 101.214 294.107 98.9775 293.016Z" fill="#279D68"/>
<path d="M105.934 295.607L80.2188 281.617C85.3728 282.954 90.9359 283.199 96.9081 282.354C102.471 281.563 107.653 280.036 112.479 277.772L138.195 291.762C133.368 294.025 128.16 295.552 122.624 296.343C116.652 297.189 111.089 296.943 105.934 295.607Z" fill="#279E69"/>
<path d="M138.194 291.762L112.479 277.773C115.069 276.546 117.551 275.128 119.923 273.491L145.639 287.481C143.266 289.117 140.785 290.535 138.194 291.762Z" fill="#279D68"/>
<path d="M145.636 287.481L119.92 273.491C121.829 272.155 123.683 270.71 125.483 269.101L151.199 283.09C149.426 284.699 147.572 286.144 145.636 287.481Z" fill="#279C68"/>
<path d="M151.2 283.09L125.484 269.1C127.175 267.573 128.839 265.91 130.42 264.11L156.136 278.099C154.554 279.899 152.918 281.563 151.2 283.09Z" fill="#279B67"/>
<path d="M156.14 278.099L130.424 264.11C132.115 262.173 133.751 260.101 135.305 257.892L161.021 271.882C159.467 274.091 157.83 276.163 156.14 278.099Z" fill="#269A66"/>
<path d="M161.017 271.882L135.301 257.893C137.155 255.22 138.928 252.357 140.591 249.275L166.307 263.265C164.643 266.346 162.871 269.237 161.017 271.882Z" fill="#269966"/>
<path d="M166.306 263.265L140.59 249.275C141.517 247.53 142.444 245.73 143.29 243.848L169.005 257.838C168.133 259.72 167.233 261.519 166.306 263.265Z" fill="#269865"/>
</g>
<mask id="mask4_1145_8263" style="mask-type:luminance" maskUnits="userSpaceOnUse" x="123" y="34" width="63" height="224">
<path d="M123.928 34.2502C132.491 38.9134 141.081 43.5766 149.643 48.2398C157.47 52.494 164.069 59.6933 169.387 69.8105C179.913 89.8268 185.122 120.478 185.04 161.793C184.958 202.971 179.613 234.986 169.033 257.811L143.317 243.821C153.898 220.996 159.243 188.981 159.324 147.803C159.406 106.462 154.17 75.8372 143.671 55.8209C138.354 45.7037 131.782 38.5044 123.928 34.2502Z" fill="white"/>
</mask>
<g mask="url(#mask4_1145_8263)">
<path d="M169.003 257.811L143.287 243.821C144.651 240.904 145.932 237.822 147.105 234.577L172.821 248.566C171.621 251.784 170.366 254.866 169.003 257.811Z" fill="#269865"/>
<path d="M172.823 248.566L147.107 234.577C155.179 212.624 159.242 183.691 159.297 147.803C159.379 106.462 154.143 75.8374 143.644 55.8212C138.326 45.7039 131.754 38.5046 123.9 34.2505L152.077 47.4179C159.903 51.672 164.042 59.6935 169.36 69.8107C179.886 89.827 185.095 120.479 185.013 161.793C184.931 197.708 180.868 226.614 172.823 248.566Z" fill="#269765"/>
</g>
<mask id="mask5_1145_8263" style="mask-type:luminance" maskUnits="userSpaceOnUse" x="0" y="0" width="169" height="319">
<path d="M78.3558 318.65C69.793 313.986 61.2029 309.323 52.6401 304.66C42.7138 299.26 34.0146 291.079 26.5153 280.09C9.33511 254.892 0.772286 218.105 0.854096 169.673C0.935907 121.541 9.58054 82.4356 26.7607 52.4112C43.9409 22.4141 67.366 5.28842 97.0631 1.11609C114.352 -1.31095 129.487 1.00701 142.441 8.04271C151.003 12.7059 159.594 17.3691 168.156 22.0323C155.203 14.9693 140.068 12.6786 122.779 15.1057C93.0817 19.278 69.6567 36.3764 52.4765 66.4008C35.2963 96.4252 26.6789 135.503 26.5698 183.662C26.488 232.067 35.0236 268.854 52.231 294.079C59.7303 305.069 68.4295 313.25 78.3558 318.65Z" fill="white"/>
</mask>
<g mask="url(#mask5_1145_8263)">
<path d="M78.3558 318.65L52.6401 304.66C42.7138 299.261 34.0146 291.08 26.5153 280.09C9.33511 254.892 0.772286 218.105 0.854096 169.673C0.935907 133.976 5.68091 103.27 15.1436 77.5544L40.8594 91.544C31.3966 117.287 26.6516 147.993 26.5698 183.663C26.488 232.067 35.0236 268.854 52.231 294.079C59.7303 305.069 68.4295 313.25 78.3558 318.65Z" fill="#269765"/>
<path d="M40.8329 91.5442L15.1172 77.5547C17.926 69.919 21.1439 62.6924 24.7708 55.9294L50.4866 69.919C46.8596 76.682 43.6145 83.8813 40.8057 91.5442" fill="#269865"/>
<path d="M50.5107 69.919L24.7949 55.9294C25.4221 54.7296 26.0766 53.5569 26.7311 52.4116C28.9127 48.621 31.1761 45.0487 33.5486 41.6399L59.2644 55.6295C56.8919 59.011 54.6285 62.5834 52.4468 66.3739C51.7924 67.5465 51.1379 68.7191 50.5107 69.8918" fill="#269966"/>
<path d="M59.2665 55.6565L33.5508 41.6669C36.1414 37.9855 38.8412 34.5494 41.65 31.3315L67.3657 45.3211C64.5297 48.5117 61.8299 51.9478 59.2665 55.6565Z" fill="#269A66"/>
<path d="M67.3681 45.321L41.6523 31.3314C44.2703 28.3589 46.9973 25.6047 49.8334 23.0413L75.5491 37.0308C72.713 39.5942 69.986 42.3485 67.3681 45.321Z" fill="#279B67"/>
<path d="M75.5751 37.0312L49.8594 23.0416C52.8045 20.3964 55.8861 17.9421 59.0494 15.7605L84.7652 29.7501C81.6018 31.9317 78.5203 34.386 75.5751 37.0312Z" fill="#279C68"/>
<path d="M84.7626 29.7496L59.0469 15.76C62.9738 13.0602 67.0643 10.6877 71.3184 8.69702L97.0342 22.6866C92.78 24.6773 88.6895 27.0498 84.7626 29.7496Z" fill="#279D68"/>
<path d="M97.0341 22.6867L71.3184 8.69708C79.3085 4.9338 87.8713 2.42495 97.0614 1.11598C108.324 -0.465685 118.659 -0.0293633 128.095 2.39768L153.811 16.3873C144.375 13.9602 134.04 13.5239 122.777 15.1056C113.587 16.3873 105.024 18.9234 97.0341 22.6867Z" fill="#279E69"/>
<path d="M153.786 16.3873L128.07 2.39771C132.27 3.48851 136.306 4.98837 140.151 6.87001L165.867 20.8596C162.022 18.9779 158.013 17.4781 153.786 16.3873Z" fill="#279D68"/>
<path d="M165.866 20.8599L140.15 6.87036C140.914 7.25214 141.678 7.6612 142.441 8.07025L168.157 22.0598C167.393 21.6508 166.63 21.2417 165.866 20.8599Z" fill="#279C68"/>
</g>
<path d="M193.735 46.0296C210.752 70.9 219.206 107.769 219.124 156.61C219.042 205.287 210.479 244.583 193.408 274.444C176.364 304.332 152.857 321.376 122.915 325.576C92.9722 329.803 69.4108 319.276 52.2306 294.106C35.0231 268.908 26.4603 232.094 26.5694 183.689C26.6512 135.53 35.2958 96.4521 52.476 66.4277C69.6562 36.4033 93.0812 19.3049 122.778 15.1326C153.103 10.8784 176.746 21.1593 193.763 46.0569L193.735 46.0296ZM169.001 257.809C179.582 234.984 184.927 202.969 185.009 161.791C185.091 120.45 178.746 91.264 168.247 71.2477C157.748 51.2587 143.422 41.2573 123.078 44.1207C103.471 46.875 88.2272 60.0192 77.2646 83.5806C66.2747 107.142 60.7661 138.775 60.6843 178.453C60.6025 218.431 66.002 248.756 76.9101 269.454C87.7908 290.152 103.008 299.124 122.615 296.369C142.958 293.506 158.421 280.689 169.001 257.837" fill="#2AA76F"/>
</g>
</svg>
